<svg width="43" height="45" viewBox="0 0 43 45" fill="none" xmlns="http://www.w3.org/2000/svg">
<path d="M1.62165 40.5411C1.50493 27.6893 1.38821 14.8376 1.27148 1.42871C14.208 7.55682 27.164 13.6657 40.1006 19.7938C27.2224 27.1322 14.3442 34.4706 1.62165 40.5411Z" fill="#B3EAFE"/>
<path d="M1.6226 41.2714C1.48642 41.2714 1.35025 41.233 1.23353 41.1561C1.01954 41.0216 0.883366 40.7911 0.883366 40.5414C0.766645 27.6704 0.649924 14.8379 0.533203 1.42903C0.533203 1.1793 0.649924 0.948773 0.863912 0.8143C1.0779 0.679827 1.35025 0.660616 1.56424 0.775878L40.3933 19.141C40.6462 19.2563 40.8019 19.4868 40.8019 19.7557C40.8019 20.0247 40.6657 20.2744 40.4323 20.4089C27.7486 27.6512 14.6564 35.1048 1.9144 41.1753C1.81713 41.2137 1.70041 41.2522 1.60314 41.2522L1.6226 41.2714ZM2.01167 2.60087C2.12839 15.1837 2.24511 27.3054 2.34238 39.408C14.3063 33.6448 26.6008 26.6715 38.5258 19.871L2.01167 2.60087Z" fill="#334A52"/>
<g opacity="0.13">
<path d="M41.5037 19.7749C40.2586 18.6799 38.7413 18.968 37.9242 19.9862C37.8853 20.0246 37.788 20.1206 37.6519 20.2743C37.3212 20.5049 37.0099 20.7162 36.6792 20.9467C31.7769 23.9051 26.5439 26.3448 21.7195 29.4569C18.3151 31.5892 14.6384 33.2221 11.2924 35.4505C9.61944 36.2574 8.04371 37.2179 6.35126 37.9671C5.06733 38.505 3.88067 39.235 2.694 39.9458C2.16876 40.2915 1.50734 40.4837 1.13773 41.0215C-0.282375 42.7121 1.89641 45.1518 3.80285 44.0184C7.73245 41.521 12.0706 39.7537 16.0002 37.2947C21.4082 34.5476 26.5634 31.3203 31.8158 28.3043C34.0335 26.8827 36.2901 25.538 38.6245 24.2893C38.8191 24.174 39.3054 23.9435 39.6167 23.7898C40.4143 23.8475 41.2313 23.5401 41.6982 22.8677C42.4763 22.0033 42.3207 20.5817 41.5037 19.7749Z" fill="#334A52"/>
</g>
</svg>
