<svg width="140" height="145" fill="none" xmlns="http://www.w3.org/2000/svg"><path d="M70 145c-38.603 0-70-32.528-70-72.5S31.397 0 70 0s70 32.528 70 72.5S108.603 145 70 145zM70 2.473c-37.198 0-67.45 31.406-67.45 70.002 0 38.595 30.252 70.001 67.45 70.001 37.198 0 67.451-31.406 67.451-70.001 0-38.596-30.253-70.002-67.451-70.002zm0 125.371c-29.472 0-53.482-24.83-53.482-55.37S40.502 17.106 70 17.106c29.498 0 53.482 24.83 53.482 55.37 0 30.539-23.984 55.369-53.482 55.369zm-50.933-55.37c0 29.164 22.84 52.871 50.933 52.871 28.094 0 50.933-23.707 50.933-52.87 0-29.164-22.84-52.871-50.933-52.871-28.094 0-50.933 23.707-50.933 52.87z" fill="#334A52"/><path d="M53.897 59.907l-8.194 7.902 22.293 25.696 24.66-37.218-9.13-7.52-17.22 25.16-12.409-14.02z" fill="#FDB932"/><path d="M67.997 94.754a1.26 1.26 0 01-.963-.433L44.742 68.625c-.443-.484-.39-1.224.078-1.683l8.168-7.902c.26-.23.598-.383.936-.357.338 0 .676.178.91.433l11.342 12.797 16.284-23.81a1.25 1.25 0 01.884-.535c.365-.05.729.051.989.28l9.13 7.52c.495.409.599 1.097.26 1.632l-24.66 37.194a1.236 1.236 0 01-.988.56h-.078zm-20.55-26.843l20.42 23.53 23.1-34.874-7.18-5.914L67.373 74.64a1.238 1.238 0 01-.989.56c-.39 0-.78-.127-1.04-.432L53.82 61.742l-6.373 6.17zM26.404 76.4c-.234 0-.416-.179-.416-.383-.625-9.432 1.144-18.94 5.124-27.455.104-.204.338-.306.573-.204.208.102.312.332.208.561-3.928 8.387-5.671 17.743-5.073 27.047 0 .23-.156.434-.39.434h-.026zm8.686-33.19s-.182-.026-.26-.103a.404.404 0 01-.052-.586 72.708 72.708 0 015.75-6.195.447.447 0 01.597 0 .426.426 0 010 .587 80.085 80.085 0 00-5.67 6.143.423.423 0 01-.339.153h-.026zm70.599 56.311s-.182-.025-.26-.076c-.182-.128-.208-.408-.078-.586 4.838-6.144 7.752-13.868 8.194-21.77 0-.23.208-.409.442-.383.234 0 .416.204.39.433-.442 8.081-3.433 15.984-8.376 22.255a.423.423 0 01-.338.153l.026-.026z" fill="#334A52"/></svg>