<svg width="129" height="108" fill="none" xmlns="http://www.w3.org/2000/svg"><path d="M128.118 68.929c.121-2.11.068-4.23-.169-6.332-1.105-9.867-6.118-19.17-13.498-25.733-2.633-2.342-5.628-4.44-7.34-7.529-2.886-5.207-2.665-11.186-6.247-16.328C97.279 7.86 92.057 3.85 86.168 1.788c-17.562-6.145-42.151 3.86-39.936 25.226.008.077.016.186.024.328a7.75 7.75 0 01-7.545 8.276c-16.204.39-30.152 13.005-33.139 28.984-1.917 10.277 1.222 21.54 8.667 28.81 5.555 5.426 13.011 8.405 20.472 10.455 14.958 4.108 30.699 4.968 46.119 3.397 14.435-1.469 29.665-5.662 38.999-16.876 4.981-5.983 7.835-13.654 8.285-21.46h.004z" fill="#fff" opacity=".41"/><path opacity=".31" d="M124.539 16.859c.505-2.15-.813-4.308-2.943-4.818-2.13-.51-4.266.82-4.771 2.97-.505 2.151.812 4.308 2.942 4.818 2.131.51 4.267-.82 4.772-2.97zm-87.651-2.283a4.672 4.672 0 000-6.562 4.564 4.564 0 00-6.498 0 4.672 4.672 0 000 6.562 4.564 4.564 0 006.498 0zM6.115 106.415c3.277 0 5.933-2.682 5.933-5.991 0-3.308-2.656-5.99-5.933-5.99-3.277 0-5.933 2.682-5.933 5.99 0 3.309 2.656 5.991 5.933 5.991z" fill="#fff"/><path d="M42.41 95.355a2.81 2.81 0 01-2.774-2.511l-5.063-45.37a.473.473 0 01.417-.524l74.751-8.506a.47.47 0 01.519.42l5.063 45.39a2.803 2.803 0 01-2.453 3.105l-70.145 7.982a2.38 2.38 0 01-.315.021v-.007zm-7.14-47.742l5.036 45.162a2.123 2.123 0 002.337 1.883l70.138-7.982a2.105 2.105 0 001.408-.787c.348-.441.506-.993.444-1.559l-5.043-45.176-74.327 8.459h.007z" fill="#243762"/><path opacity=".29" d="M109.543 87.015L46.12 94.997c-1.345.152 19.652-27.045 19.501-28.404L34.915 47.441a.131.131 0 01.116-.145l74.751-8.507a.13.13 0 01.143.117L84.357 64.462c.15 1.352 26.539 22.409 25.199 22.56l-.013-.006z" fill="#243762"/><path d="M34.932 47.648l-.055-.51-.096-.097.075-.075h.007l30.83-30.792a5.889 5.889 0 017.325-.841l36.74 23.043c.15.097.225.276.191.448a.43.43 0 01-.362.332l-74.655 8.492zm34.95-32.53a5.226 5.226 0 00-3.71 1.546l-30.209 30.17 72.79-8.279L72.656 15.92a5.23 5.23 0 00-2.775-.8z" fill="#243762"/><path opacity=".29" d="M35.024 47.296L65.936 16.43a5.57 5.57 0 016.908-.793l36.74 23.036c.062.042.041.138-.034.145L34.895 47.31" fill="#243762"/><path d="M45.39 94.9l23.683-33.274a7.348 7.348 0 015.152-3.05 7.315 7.315 0 015.692 1.815l30.426 27.12-64.952 7.39zm29.655-35.675c-.246 0-.499.014-.745.041a6.677 6.677 0 00-4.673 2.767L46.839 94.045l61.899-7.044-29.272-26.086a6.657 6.657 0 00-4.421-1.69z" fill="#243762"/><path d="M38.795 24.929l48.855-5.56c3.204-.366 6.053 1.614 6.368 4.422l3.143 28.141-13.584 12.612-17.95 2.042-17.73-11.197-3.041-27.266-6.047-3.194h-.014z" fill="#F1F8FF"/><path d="M65.536 66.945L47.56 55.595 44.52 28.35l-4.654-3.884 47.741-5.43c1.633-.186 3.225.2 4.496 1.084 1.285.89 2.084 2.187 2.248 3.65l3.157 28.314L83.71 64.889l-18.182 2.07.007-.014zM48.201 55.188l17.492 11.046 17.725-2.015 13.378-12.411-3.122-27.97c-.144-1.255-.834-2.38-1.955-3.153-1.134-.786-2.569-1.131-4.03-.965L39.94 25.15l5.22 2.752 3.041 27.28v.006z" fill="#454545"/><path opacity=".29" d="M69.352 59.012L46.113 94.474l63.422-7.217L79.69 57.84a6.976 6.976 0 00-10.345 1.18l.007-.007z" fill="#243762"/><path d="M45.39 94.9l23.683-33.274a7.348 7.348 0 015.152-3.05 7.315 7.315 0 015.692 1.815l30.426 27.12-64.952 7.39zm29.655-35.675c-.246 0-.499.014-.745.041a6.677 6.677 0 00-4.673 2.767L46.839 94.045l61.899-7.044-29.272-26.086a6.657 6.657 0 00-4.421-1.69z" fill="#243762"/><path opacity=".35" d="M71.6 69.056L54.54 93.03l46.578-5.299-21.92-19.538a5.129 5.129 0 00-7.597.862z" fill="#ECF1F7"/><path d="M35.238 47.068l-.361.586 30.566 19.233.362-.585-30.567-19.234zm74.417-8.469L84.1 64.223l.481.49 25.556-25.625-.482-.49z" fill="#243762"/><path d="M46.198 40.686l-8.527.973-1.373-12.28c-.253-2.27 1.366-4.32 3.607-4.575l.39-.04c2.248-.256 4.277 1.379 4.53 3.642l1.373 12.28z" fill="#ECF1F7"/><path d="M37.37 42.038l-1.407-12.625a4.484 4.484 0 01.943-3.298 4.376 4.376 0 012.973-1.656l.389-.041a4.348 4.348 0 013.26.952 4.44 4.44 0 011.64 3l1.407 12.626-9.204 1.05v-.008zm3.397-16.958c-.144 0-.287.007-.43.028l-.39.041a3.73 3.73 0 00-2.515 1.4 3.787 3.787 0 00-.792 2.788l1.332 11.942 7.844-.89-1.332-11.942a3.784 3.784 0 00-1.387-2.54 3.717 3.717 0 00-2.33-.827zm11.213 9.218a.347.347 0 01-.341-.304.346.346 0 01.3-.38l35.401-4.028a.34.34 0 01.376.303.346.346 0 01-.3.38l-35.401 4.029h-.041.006zm1.366 12.149a.347.347 0 01-.342-.303.346.346 0 01.3-.38L88.7 41.735a.344.344 0 01.075.683l-35.394 4.03h-.041.007zm-.698-6.147a.347.347 0 01-.341-.303.346.346 0 01.3-.38l15.299-1.738a.344.344 0 01.075.683L52.683 40.3h-.041.006zm19.311-2.194a.347.347 0 01-.342-.304.346.346 0 01.3-.38l16.099-1.828a.34.34 0 01.376.304.346.346 0 01-.3.38l-16.099 1.828h-.04.006zM54.107 53.333a.347.347 0 01-.341-.304.346.346 0 01.3-.38l15.299-1.738a.344.344 0 01.075.683l-15.298 1.739H54.1h.007z" fill="#243762"/></svg>