<svg aria-hidden="true" style="position: absolute; width: 0; height: 0; overflow: hidden;" version="1.1"
  xmlns="http://www.w3.org/2000/svg" xmlns:xlink="http://www.w3.org/1999/xlink">
  <defs>
    <symbol id="icon-burger" viewBox="0 0 32 32">
      <path stroke="currentColor" stroke-linejoin="round" stroke-linecap="round" stroke-miterlimit="4" stroke-width="1"
        d="M2 6h29M2 16h29M2 26h29"></path>
    </symbol>
    <symbol id="icon-star" viewBox="0 0 33 32">
      <path fill="#fdb932" style="fill: var(--color1, #fdb932)"
        d="M16.627 31.705l3.966-12.596 12.687-3.164-12.687-3.185-3.966-12.575-3.941 12.575-12.687 3.185 12.687 3.164 3.941 12.596z">
      </path>
    </symbol>
    <symbol id="icon-rating" viewBox="0 0 32 32">
      <path fill="#fdb932" style="fill: var(--color1, #fdb932)"
        d="M16.218 1.055c-1.392-0.586-4.048 10.169-4.048 10.169s-10.174-0.774-11.031 0.816c-0.9 1.695 8.354 7.365 8.354 7.365s-3.77 10.838-2.592 11.487c1.756 0.962 9.318-6.047 9.318-6.047s8.011 6.654 9.318 6.047c0.664-0.314-2.913-11.152-2.913-11.152s8.803-5.44 8.268-6.863c-0.493-1.339-10.624-1.151-10.624-1.151s-2.206-9.876-4.048-10.671z">
      </path>
      <path fill="#fdb932" style="fill: var(--color1, #fdb932)"
        d="M7.2 31.979c2.163 0 5.912-2.908 9.039-5.754 7.882 6.465 9.232 5.838 9.746 5.607 0.9-0.418 1.478-0.69-2.099-11.654 8.804-5.524 8.247-7.030 8.011-7.658-0.214-0.586-0.728-1.946-10.774-1.841-0.921-3.934-2.57-9.75-4.477-10.566-0.386-0.167-0.793-0.146-1.178 0.042-1.457 0.711-2.999 5.649-4.113 9.98-6.662-0.439-10.41 0.042-11.16 1.444-0.321 0.607-1.307 2.469 8.011 8.285-3.727 10.922-2.549 11.57-1.821 11.947 0.236 0.126 0.514 0.188 0.814 0.188v-0.021zM16.197 23.798c-0.257 0-0.514 0.105-0.728 0.293-3.042 2.825-6.405 5.293-7.775 5.775 0.107-1.674 1.414-6.256 2.763-10.127 0.15-0.46-0.021-0.962-0.45-1.214-3.791-2.322-7.176-4.938-7.818-6.026 1.285-0.502 5.933-0.544 9.853-0.251 0.535 0.042 0.985-0.293 1.114-0.795 0.878-3.536 2.142-7.574 2.935-9.039 0.9 1.444 2.249 5.733 3.084 9.499 0.107 0.481 0.535 0.816 1.028 0.816 3.599-0.063 7.818 0.126 9.318 0.544-1.007 1.172-4.455 3.662-7.54 5.566-0.407 0.251-0.6 0.732-0.45 1.192 1.157 3.473 2.356 7.49 2.785 9.457-1.671-0.921-4.862-3.264-7.497-5.461-0.193-0.167-0.45-0.251-0.685-0.251l0.064 0.021z">
      </path>
    </symbol>
    <symbol id="icon-stars" viewBox="0 0 32 32">
      <path fill="#b3eafe" style="fill: var(--color2, #b3eafe)"
        d="M9.593 32l2.288-7.673 7.319-1.927-7.319-1.94-2.288-7.66-2.273 7.66-7.319 1.94 7.319 1.927 2.273 7.673z">
      </path>
      <path fill="#b3eafe" style="fill: var(--color2, #b3eafe)"
        d="M13.592 0l-1.508 5.102-4.885 1.292 4.885 1.292 1.508 5.115 1.523-5.115 4.885-1.292-4.885-1.292-1.523-5.102z">
      </path>
      <path fill="#b3eafe" style="fill: var(--color2, #b3eafe)"
        d="M25.592 11.2l-1.508 5.102-4.885 1.292 4.885 1.292 1.508 5.115 1.523-5.115 4.885-1.292-4.885-1.292-1.523-5.102z">
      </path>
    </symbol>
    <symbol id="icon-logo" viewBox="0 0 35 32">
      <path fill="#fdb932" style="fill: var(--color1, #fdb932)"
        d="M2.878 10l0.686-2.344 2.196-0.589-2.196-0.593-0.686-2.341-0.682 2.341-2.196 0.593 2.196 0.589 0.682 2.344z">
      </path>
      <path fill="#fdb932" style="fill: var(--color1, #fdb932)"
        d="M7.682 6.8l0.457-1.49 1.461-0.376-1.461-0.376-0.457-1.49-0.457 1.49-1.465 0.376 1.465 0.376 0.457 1.49z">
      </path>
      <path fill="#fdb932" style="fill: var(--color1, #fdb932)"
        d="M3.838 0.4l-0.452 1.488-1.465 0.377 1.465 0.377 0.452 1.492 0.457-1.492 1.465-0.377-1.465-0.377-0.457-1.488z">
      </path>
      <path fill="#ffde9d" style="fill: var(--color3, #ffde9d)"
        d="M22.4 30.974l12.8-17.665-4.889-6.682h-15.822l-4.889 6.682 12.8 17.665z"></path>
      <path fill="#feeeb3" style="fill: var(--color4, #feeeb3)" d="M14.489 6.627l3.644 6.682h-8.533l4.889-6.682z">
      </path>
      <path fill="#feeeb3" style="fill: var(--color4, #feeeb3)" d="M30.311 6.627l-3.644 6.682-4.267-6.682h7.911z">
      </path>
      <path fill="#feeeb3" style="fill: var(--color4, #feeeb3)" d="M26.666 13.309l-4.267 17.665-4.267-17.665h8.533z">
      </path>
      <path fill="#fdb932" style="fill: var(--color1, #fdb932)" d="M30.31 6.627l4.889 6.682h-8.533l3.645-6.682z"></path>
      <path fill="#fdb932" style="fill: var(--color1, #fdb932)" d="M22.399 6.627l4.267 6.682h-8.533l4.267-6.682z">
      </path>
      <path fill="#fdb932" style="fill: var(--color1, #fdb932)" d="M18.133 13.309l4.267 17.665-12.8-17.665h8.533z">
      </path>
    </symbol>
    <symbol id="icon-edit" viewBox="0 0 32 32">
      <path fill="none" stroke="#61747a" style="stroke: var(--color5, #61747a)" stroke-linejoin="round"
        stroke-linecap="round" stroke-miterlimit="4" stroke-width="1.6"
        d="M14.668 6.667h-6.667c-0.707 0-1.386 0.281-1.886 0.781s-0.781 1.178-0.781 1.886v14.667c0 0.707 0.281 1.385 0.781 1.886s1.178 0.781 1.886 0.781h14.667c0.707 0 1.386-0.281 1.886-0.781s0.781-1.178 0.781-1.886v-6.667M23.449 4.781c0.246-0.255 0.54-0.458 0.865-0.598s0.675-0.213 1.029-0.216 0.705 0.064 1.033 0.198c0.328 0.134 0.625 0.332 0.876 0.582s0.448 0.548 0.582 0.876c0.134 0.328 0.202 0.679 0.199 1.033s-0.077 0.704-0.216 1.029c-0.14 0.325-0.343 0.62-0.598 0.866l-11.448 11.448h-3.771v-3.771l11.448-11.448z">
      </path>
    </symbol>
    <symbol id="icon-user" viewBox="0 0 32 32">
      <path fill="none" stroke="#61747a" style="stroke: var(--color5, #61747a)" stroke-linejoin="round"
        stroke-linecap="round" stroke-miterlimit="4" stroke-width="1.6"
        d="M19.77 13.105c1-1 1.562-2.357 1.562-3.771s-0.562-2.771-1.562-3.771c-1-1-2.357-1.562-3.771-1.562s-2.771 0.562-3.771 1.562c-1 1-1.562 2.357-1.562 3.771s0.562 2.771 1.562 3.771c1 1 2.357 1.562 3.771 1.562s2.771-0.562 3.771-1.562z">
      </path>
      <path fill="none" stroke="#61747a" style="stroke: var(--color5, #61747a)" stroke-linejoin="round"
        stroke-linecap="round" stroke-miterlimit="4" stroke-width="1.6"
        d="M9.399 21.4c1.75-1.75 4.124-2.734 6.6-2.734s4.849 0.983 6.6 2.734c1.75 1.75 2.734 4.124 2.734 6.6h-18.667c0-2.475 0.983-4.849 2.734-6.6z">
      </path>
    </symbol>
    <symbol id="icon-arrow-left" viewBox="0 0 32 32">
      <path
        d="M12 28c0.341 0 0.683-0.131 0.943-0.391l10.667-10.667c0.521-0.521 0.521-1.364 0-1.885l-10.667-10.667c-0.521-0.521-1.364-0.521-1.885 0s-0.521 1.364 0 1.885l9.724 9.724-9.724 9.724c-0.521 0.521-0.521 1.364 0 1.885 0.26 0.26 0.601 0.391 0.943 0.391z">
      </path>
    </symbol>
    <symbol id="icon-close" viewBox="0 0 32 32">
      <path fill="none" stroke="currentColor" stroke-linejoin="miter" stroke-linecap="butt" stroke-miterlimit="4"
        stroke-width="1.3333"
        d="M31.333 16c0 8.468-6.865 15.333-15.333 15.333s-15.333-6.865-15.333-15.333c0-8.468 6.865-15.333 15.333-15.333s15.333 6.865 15.333 15.333z">
      </path>
      <path stroke="currentColor" stroke-linejoin="round" stroke-linecap="round" stroke-miterlimit="4"
        stroke-width="1.3333" d="M16 16l-5.333-5.333M16 16l5.333 5.333M16 16l5.333-5.333M16 16l-5.333 5.333"></path>
    </symbol>
    <symbol id="icon-facebook" viewBox="0 0 32 32">
      <path fill="none" stroke="currentColor" stroke-linejoin="miter" stroke-linecap="butt" stroke-miterlimit="10"
        stroke-width="1.2308"
        d="M30.769 16c0-8.157-6.612-14.769-14.769-14.769s-14.769 6.612-14.769 14.769c0 8.157 6.612 14.769 14.769 14.769s14.769-6.612 14.769-14.769z">
      </path>
      <path fill="currentColor"
        d="M13.751 24.925h3.593v-9.003h2.507l0.264-3.011h-2.778v-1.715c0-0.714 0.14-0.993 0.83-0.993h1.948v-3.128h-2.491c-2.678 0-3.88 1.18-3.88 3.43v2.406h-1.87v3.050h1.87v8.964h0.008z">
      </path>
    </symbol>
    <symbol id="icon-instagram" viewBox="0 0 32 32">
      <path fill="none" stroke="currentColor" stroke-linejoin="miter" stroke-linecap="butt" stroke-miterlimit="10"
        stroke-width="1.2308"
        d="M16 30.769c-8.157 0-14.769-6.612-14.769-14.769s6.612-14.769 14.769-14.769c8.157 0 14.769 6.612 14.769 14.769s-6.612 14.769-14.769 14.769z">
      </path>
      <path fill="currentColor"
        d="M15.998 9.364c2.165 0 2.421 0.008 3.275 0.047 0.792 0.039 1.218 0.171 1.506 0.279 0.38 0.147 0.644 0.326 0.931 0.605 0.287 0.287 0.458 0.551 0.605 0.931 0.109 0.287 0.241 0.714 0.279 1.506 0.039 0.854 0.047 1.11 0.047 3.275s-0.008 2.422-0.047 3.275c-0.039 0.792-0.171 1.218-0.279 1.506-0.147 0.38-0.326 0.644-0.605 0.931-0.279 0.279-0.551 0.458-0.931 0.605-0.287 0.109-0.714 0.241-1.506 0.279-0.854 0.039-1.11 0.047-3.275 0.047s-2.421-0.008-3.275-0.047c-0.792-0.039-1.218-0.171-1.506-0.279-0.38-0.147-0.644-0.326-0.931-0.605-0.287-0.287-0.458-0.551-0.605-0.931-0.109-0.287-0.241-0.714-0.279-1.506-0.039-0.854-0.047-1.11-0.047-3.275s0.008-2.421 0.047-3.275c0.039-0.792 0.171-1.219 0.279-1.506 0.147-0.38 0.326-0.644 0.605-0.931 0.287-0.287 0.551-0.458 0.931-0.605 0.287-0.109 0.714-0.241 1.506-0.279 0.854-0.039 1.11-0.047 3.275-0.047zM15.998 7.905c-2.196 0-2.476 0.008-3.337 0.047s-1.451 0.178-1.964 0.38c-0.536 0.21-0.986 0.481-1.436 0.931s-0.73 0.9-0.931 1.436c-0.202 0.512-0.334 1.102-0.373 1.963s-0.047 1.141-0.047 3.337c0 2.196 0.008 2.476 0.047 3.337s0.178 1.451 0.373 1.964c0.21 0.535 0.481 0.986 0.931 1.436s0.9 0.729 1.436 0.931c0.512 0.202 1.102 0.334 1.964 0.38 0.862 0.039 1.141 0.047 3.337 0.047s2.476-0.008 3.337-0.047c0.862-0.039 1.451-0.179 1.964-0.38 0.535-0.21 0.986-0.481 1.436-0.931s0.729-0.9 0.931-1.436c0.202-0.512 0.334-1.102 0.38-1.964 0.039-0.861 0.047-1.141 0.047-3.337s-0.008-2.476-0.047-3.337c-0.039-0.861-0.179-1.451-0.38-1.963-0.21-0.536-0.481-0.986-0.931-1.436s-0.9-0.73-1.436-0.931c-0.512-0.202-1.102-0.334-1.964-0.38-0.861-0.039-1.141-0.047-3.337-0.047z">
      </path>
      <path fill="currentColor"
        d="M15.999 11.84c-2.297 0-4.16 1.863-4.16 4.16s1.863 4.16 4.16 4.16c2.297 0 4.16-1.863 4.16-4.16s-1.863-4.16-4.16-4.16zM15.999 18.701c-1.49 0-2.701-1.211-2.701-2.701s1.211-2.701 2.701-2.701 2.701 1.211 2.701 2.701c0 1.49-1.211 2.701-2.701 2.701z">
      </path>
      <path fill="currentColor"
        d="M21.291 11.677c0 0.536-0.435 0.97-0.97 0.97s-0.97-0.435-0.97-0.97c0-0.536 0.435-0.97 0.97-0.97s0.97 0.435 0.97 0.97z">
      </path>
    </symbol>
    <symbol id="icon-location" viewBox="0 0 32 32">
      <path fill="none" stroke="currentColor" stroke-linejoin="round" stroke-linecap="round" stroke-miterlimit="4"
        stroke-width="1.3333"
        d="M23.543 22.21l-5.657 5.657c-0.247 0.248-0.541 0.444-0.865 0.578s-0.67 0.203-1.020 0.203c-0.35 0-0.697-0.069-1.020-0.203s-0.617-0.331-0.865-0.578l-5.659-5.657c-1.492-1.492-2.508-3.392-2.919-5.461s-0.2-4.214 0.607-6.163 2.175-3.615 3.929-4.787c1.754-1.172 3.816-1.798 5.926-1.798s4.172 0.626 5.926 1.798c1.754 1.172 3.121 2.838 3.929 4.787s1.019 4.094 0.607 6.163c-0.411 2.069-1.427 3.97-2.919 5.461v0z">
      </path>
      <path fill="none" stroke="currentColor" stroke-linejoin="round" stroke-linecap="round" stroke-miterlimit="4"
        stroke-width="1.3333"
        d="M18.828 17.495c0.75-0.75 1.172-1.768 1.172-2.828s-0.421-2.078-1.172-2.828c-0.75-0.75-1.768-1.172-2.828-1.172s-2.078 0.421-2.828 1.172c-0.75 0.75-1.172 1.768-1.172 2.828s0.421 2.078 1.172 2.828c0.75 0.75 1.768 1.172 2.828 1.172s2.078-0.421 2.828-1.172z">
      </path>
    </symbol>
    <symbol id="icon-mail" viewBox="0 0 32 32">
      <path fill="none" stroke="currentColor" stroke-linejoin="round" stroke-linecap="round" stroke-miterlimit="4"
        stroke-width="1.3333"
        d="M4 10.667l10.52 7.013c0.438 0.292 0.953 0.448 1.48 0.448s1.042-0.156 1.48-0.448l10.52-7.013M6.667 25.333h18.667c0.707 0 1.385-0.281 1.886-0.781s0.781-1.178 0.781-1.886v-13.333c0-0.707-0.281-1.386-0.781-1.886s-1.178-0.781-1.886-0.781h-18.667c-0.707 0-1.386 0.281-1.886 0.781s-0.781 1.178-0.781 1.886v13.333c0 0.707 0.281 1.385 0.781 1.886s1.178 0.781 1.886 0.781z">
      </path>
    </symbol>
    <symbol id="icon-phone" viewBox="0 0 32 32">
      <path fill="none" stroke="#1D1D1D" stroke-linejoin="round" stroke-linecap="round" stroke-miterlimit="4"
        stroke-width="1.3333"
        d="M4.781 4.781c-0.5 0.5-0.781 1.178-0.781 1.886v1.333c0 11.045 8.955 20 20 20h1.333c0.707 0 1.385-0.281 1.886-0.781s0.781-1.178 0.781-1.886v-4.372c0-0.28-0.088-0.553-0.252-0.78s-0.395-0.397-0.66-0.485l-5.991-1.997c-0.304-0.101-0.635-0.089-0.931 0.034s-0.539 0.349-0.682 0.636l-1.507 3.009c-3.265-1.475-5.88-4.090-7.355-7.355l3.009-1.507c0.287-0.143 0.513-0.385 0.636-0.682s0.135-0.627 0.034-0.932l-1.997-5.991c-0.088-0.265-0.258-0.496-0.485-0.66s-0.499-0.252-0.779-0.252h-4.373c-0.707 0-1.386 0.281-1.886 0.781z">
      </path>
    </symbol>
    <symbol id="icon-whatsapp" viewBox="0 0 32 32">
      <path fill="none" stroke="currentColor" stroke-linejoin="miter" stroke-linecap="butt" stroke-miterlimit="10"
        stroke-width="1.2308"
        d="M16 30.769c-8.157 0-14.769-6.612-14.769-14.769s6.612-14.769 14.769-14.769c8.157 0 14.769 6.612 14.769 14.769s-6.612 14.769-14.769 14.769z">
      </path>
      <path fill="currentColor"
        d="M24.096 15.588c-0.109-4.269-3.624-7.691-7.947-7.691s-7.761 3.345-7.947 7.552c0 0.116 0 0.233 0 0.349 0 1.49 0.419 2.887 1.141 4.075l-1.436 4.238 4.408-1.397c1.141 0.629 2.453 0.986 3.842 0.986 4.393 0 7.955-3.531 7.955-7.893 0-0.070 0-0.132 0-0.202l-0.015-0.015zM16.148 22.426c-1.358 0-2.623-0.404-3.679-1.102l-2.569 0.823 0.83-2.468c-0.799-1.094-1.273-2.437-1.273-3.888 0-0.217 0.008-0.435 0.031-0.644 0.326-3.36 3.19-5.991 6.651-5.991s6.395 2.701 6.667 6.116c0.015 0.171 0.023 0.342 0.023 0.52 0 3.663-3.003 6.636-6.69 6.636h0.008z">
      </path>
      <path fill="currentColor"
        d="M19.796 17.389c-0.194-0.093-1.156-0.567-1.335-0.629-0.178-0.070-0.31-0.093-0.442 0.093-0.132 0.194-0.505 0.629-0.621 0.753-0.116 0.132-0.225 0.147-0.427 0.047-0.194-0.093-0.823-0.295-1.568-0.962-0.574-0.512-0.97-1.141-1.087-1.335-0.109-0.194-0.008-0.295 0.085-0.396 0.085-0.085 0.194-0.225 0.295-0.342 0.023-0.031 0.047-0.062 0.070-0.093 0.047-0.070 0.078-0.14 0.124-0.233 0.070-0.132 0.031-0.241-0.016-0.341-0.047-0.093-0.442-1.048-0.605-1.436s-0.326-0.318-0.442-0.318c-0.116 0-0.241-0.016-0.373-0.016s-0.342 0.047-0.52 0.241c-0.178 0.194-0.683 0.66-0.683 1.614 0 0.225 0.039 0.45 0.101 0.66 0.194 0.683 0.621 1.242 0.698 1.343 0.093 0.124 1.35 2.142 3.329 2.926 1.987 0.768 1.987 0.512 2.344 0.481s1.156-0.466 1.312-0.924c0.163-0.45 0.163-0.838 0.116-0.924-0.047-0.078-0.178-0.124-0.373-0.225l0.015 0.015z">
      </path>
    </symbol>
    <symbol id="icon-youtube" viewBox="0 0 32 32">
      <path fill="none" stroke="currentColor" stroke-linejoin="miter" stroke-linecap="butt" stroke-miterlimit="10"
        stroke-width="1.2308"
        d="M16 30.769c-8.157 0-14.769-6.612-14.769-14.769s6.612-14.769 14.769-14.769c8.157 0 14.769 6.612 14.769 14.769s-6.612 14.769-14.769 14.769z">
      </path>
      <path fill="currentColor"
        d="M27.324 10.272c-0.272-1.024-1.071-1.832-2.088-2.103-1.847-0.497-9.236-0.497-9.236-0.497s-7.396 0-9.236 0.497c-1.017 0.272-1.816 1.079-2.088 2.103-0.497 1.855-0.497 5.728-0.497 5.728s0 3.873 0.497 5.728c0.272 1.024 1.071 1.831 2.088 2.103 1.847 0.497 9.236 0.497 9.236 0.497s7.396 0 9.236-0.497c1.017-0.272 1.816-1.079 2.088-2.103 0.497-1.855 0.497-5.728 0.497-5.728s0-3.873-0.497-5.728z">
      </path>
      <path fill="#fff" style="fill: var(--color7, #fff)" d="M13.587 19.508v-7.024l6.178 3.516-6.178 3.508z"></path>
    </symbol>
    <symbol id="icon-play" viewBox="0 0 31 32">
      <path fill="#b3eafe" style="fill: var(--color1, #b3eafe)"
        d="M1.153 28.829c-0.083-9.139-0.166-18.278-0.249-27.813 9.199 4.358 18.412 8.702 27.612 13.060-9.158 5.218-18.316 10.437-27.363 14.754z">
      </path>
      <path fill="#334a52" style="fill: var(--color2, #334a52)"
        d="M1.154 29.348c-0.097 0-0.194-0.027-0.277-0.082-0.152-0.096-0.249-0.26-0.249-0.437-0.083-9.153-0.166-18.278-0.249-27.813 0-0.178 0.083-0.342 0.235-0.437s0.346-0.109 0.498-0.027l27.612 13.060c0.18 0.082 0.291 0.246 0.291 0.437s-0.097 0.369-0.263 0.464c-9.020 5.15-18.33 10.45-27.39 14.767-0.069 0.027-0.152 0.055-0.221 0.055l0.014 0.014zM1.431 1.849c0.083 8.948 0.166 17.568 0.235 26.174 8.508-4.098 17.25-9.057 25.73-13.893l-25.966-12.281z">
      </path>
      <path fill="#334a52" style="fill: var(--color2, #334a52)" opacity="0.13"
        d="M29.514 14.062c-0.885-0.779-1.964-0.574-2.545 0.15-0.028 0.027-0.097 0.096-0.194 0.205-0.235 0.164-0.457 0.314-0.692 0.478-3.486 2.104-7.207 3.839-10.638 6.052-2.421 1.516-5.035 2.678-7.415 4.262-1.19 0.574-2.31 1.257-3.514 1.79-0.913 0.383-1.757 0.902-2.601 1.407-0.373 0.246-0.844 0.383-1.107 0.765-1.010 1.202 0.539 2.937 1.895 2.131 2.794-1.776 5.879-3.033 8.674-4.781 3.846-1.954 7.512-4.248 11.247-6.393 1.577-1.011 3.182-1.967 4.842-2.855 0.138-0.082 0.484-0.246 0.706-0.355 0.567 0.041 1.148-0.178 1.48-0.656 0.553-0.615 0.443-1.626-0.138-2.199z">
      </path>
    </symbol>
    <symbol id="icon-logo-simple" viewBox="0 0 32 32">
      <path fill="#ffde9d" style="fill: var(--color4, #ffde9d)"
        d="M16 27.413l12-16.561-4.584-6.264h-14.833l-4.584 6.264 12 16.561z"></path>
      <path fill="#feeeb3" style="fill: var(--color5, #feeeb3)" d="M8.584 4.587l3.416 6.264h-8l4.584-6.264z"></path>
      <path fill="#feeeb3" style="fill: var(--color5, #feeeb3)" d="M23.417 4.587l-3.417 6.264-4-6.264h7.417z"></path>
      <path fill="#feeeb3" style="fill: var(--color5, #feeeb3)" d="M20 10.852l-4 16.561-4-16.561h8z"></path>
      <path fill="#fdb932" style="fill: var(--color3, #fdb932)" d="M23.417 4.587l4.583 6.264h-8l3.417-6.264z"></path>
      <path fill="#fdb932" style="fill: var(--color3, #fdb932)" d="M16 4.587l4 6.264h-8l4-6.264z"></path>
      <path fill="#fdb932" style="fill: var(--color3, #fdb932)" d="M12 10.852l4 16.561-12-16.561h8z"></path>
    </symbol>
  </defs>
</svg>