<svg width="381" height="196" viewBox="0 0 381 196" fill="none" xmlns="http://www.w3.org/2000/svg">
<g clip-path="url(#clip0_703_1030)">
<path d="M63.6026 186.909C65.8187 186.909 67.773 186.889 69.2034 186.869C70.6137 186.849 72.2053 186.829 73.6961 186.127C75.4489 185.304 76.6577 183.598 76.7383 181.772C76.7383 181.732 76.7383 181.712 76.7383 181.672C76.0533 167.123 75.328 150.888 74.5826 133.71C73.0111 97.8696 71.2181 57.2528 69.3041 25.4056C69.3041 25.3253 69.3041 25.2651 69.2638 25.1849C69.0624 24.5226 64.4891 8.84985 60.2381 0.582008C60.0568 0.240859 59.7143 0.0401832 59.3516 0.0401832C58.2637 0.0401832 57.337 0.0401832 56.3901 4.80432e-05C55.4633 4.80432e-05 54.5567 -0.0200195 53.5292 -0.0200195C53.1263 -0.0200195 52.7637 0.220791 52.6025 0.582008C51.4743 3.19079 49.1775 10.4352 47.9083 14.5089C45.5511 22.0944 44.8258 24.4223 44.7654 25.3253H44.7251C44.7251 52.8179 44.5841 81.1132 44.4431 108.485C44.302 135.356 44.1811 160.761 44.1811 185.003C44.1811 185.485 44.5236 185.906 45.0072 185.986C49.0969 186.729 57.3571 186.889 63.5825 186.889L63.6026 186.909ZM74.7437 181.712C74.6632 182.936 73.7364 183.899 72.85 184.301C71.762 184.822 70.4525 184.842 69.1833 184.863C64.0861 184.943 51.9981 185.003 46.216 184.16C46.216 160.159 46.3368 135.055 46.4779 108.485C46.6189 81.1533 46.7599 52.8781 46.7599 25.4056C47.1226 23.8403 52.1794 7.10397 54.2142 1.96667C54.9596 1.96667 55.6648 1.96667 56.3699 1.98674C57.1355 1.98674 57.9011 2.00681 58.7271 2.00681C62.6557 9.89336 66.9067 24.2216 67.3096 25.6063C69.2235 57.4134 70.9965 97.97 72.5679 133.771C73.3133 150.928 74.0386 167.143 74.7236 181.692L74.7437 181.712Z" fill="#334A52"/>
<path d="M16.359 181.591H100.633V195.017H16.359V181.591Z" fill="#B3EAFE"/>
<path d="M16.3594 196H100.633C101.177 196 101.641 195.558 101.641 194.996V181.571C101.641 181.029 101.197 180.568 100.633 180.568H16.3594C15.8155 180.568 15.3521 181.009 15.3521 181.571V194.996C15.3521 195.538 15.7953 196 16.3594 196ZM99.626 194.013H17.3668V182.595H99.626V194.013Z" fill="#334A52"/>
<path d="M134.681 21.1714L2.11554 24.021L1.00746 40.3961L151 41.1988L134.681 21.1714Z" fill="#B3EAFE"/>
<path d="M151.001 42.2021C151.383 42.2021 151.746 41.9814 151.907 41.6402C152.068 41.2991 152.028 40.8776 151.786 40.5766L135.447 20.5291C135.246 20.2883 134.964 20.1478 134.641 20.1679L2.09596 23.0376C1.57214 23.0376 1.14908 23.459 1.10878 23.9607L0.000701904 40.3158C0.000701904 40.5967 0.0812988 40.8576 0.262619 41.0583C0.443939 41.2589 0.705856 41.3793 0.9879 41.3793L150.98 42.2021H151.001ZM134.198 22.1747L148.885 40.1954L2.07584 39.3926L3.06302 25.0042L134.198 22.1747Z" fill="#334A52"/>
<path d="M45.4518 180.488C49.7632 175.932 57.1369 169.23 63.6644 163.31C67.4722 159.858 71.0583 156.607 73.6572 154.099L74.2012 153.577L73.4356 153.537C64.43 152.995 55.4446 152.955 46.7613 152.935C54.3969 143.202 62.9391 133.911 72.8312 124.539L73.4154 123.977H72.6096C63.8256 123.757 54.7999 124.258 46.0562 124.76C53.9335 115.288 62.093 105.937 71.6627 95.3409L72.1865 94.759H71.4008C62.5362 95.1001 54.1149 95.6018 46.3181 96.244C53.6112 87.5346 61.267 78.6046 70.3531 68.2096L70.7964 67.7079L70.1315 67.6477C63.4428 67.1058 56.2303 67.166 47.5067 67.8483C54.0947 58.1758 61.1864 49.0651 67.8751 40.6568L67.3513 40.2354C60.5215 48.8243 53.2687 58.1356 46.5598 68.0289L46.177 68.6109L46.862 68.5507C55.5856 67.8483 62.7578 67.748 69.4063 68.2497C60.2999 78.6648 52.624 87.635 45.2906 96.4045L44.7869 97.0266L45.5928 96.9664C53.3694 96.3042 61.7908 95.8025 70.6553 95.4613C61.1058 106.037 52.9665 115.408 45.069 124.9L44.5855 125.482L45.351 125.442C54.0544 124.941 63.0399 124.419 71.8037 124.579C61.952 133.951 53.45 143.262 45.8346 153.015L45.4115 153.557H46.0965C54.7394 153.577 63.6846 153.617 72.6499 154.119C70.1114 156.527 66.7469 159.577 63.2212 162.788C56.6937 168.708 49.2998 175.431 44.9682 180.006L45.4518 180.468V180.488Z" fill="#FFDD98"/>
<path d="M145.359 35.4596V34.7973C97.6317 33.5531 49.2191 33.2521 1.45116 33.8742V34.5364C49.2191 33.8943 97.6317 34.2154 145.359 35.4596Z" fill="#FFDD98"/>
<g opacity="0.13">
<path d="M46.8015 40.757C47.2447 40.456 47.7081 40.2955 48.2117 40.2955C50.2869 40.2754 52.3821 40.456 54.4572 40.5162C58.9298 40.6567 63.4024 40.5564 67.875 40.5764C71.5417 40.6768 71.5417 47.3191 67.875 47.4395C63.2211 47.3994 58.5873 47.5198 53.9334 47.3593C52.0195 47.279 50.1257 47.1385 48.2117 47.1586C47.829 47.1586 47.4663 47.0783 47.144 46.8576C45.0286 45.9546 44.8875 42.0614 46.8015 40.757Z" fill="#334A52"/>
</g>
</g>
<path d="M280.572 54H133.579C130.028 54 127.15 56.8781 127.15 60.4284V166.799C127.15 170.349 130.028 173.228 133.579 173.228H280.572C284.122 173.228 287 170.349 287 166.799V60.4284C287 56.8781 284.122 54 280.572 54Z" fill="#D7F4FF" stroke="#334A52" stroke-width="1.85" stroke-miterlimit="10"/>
<path d="M132.002 66.6895H282.142" stroke="#334A52" stroke-width="1.85" stroke-miterlimit="10"/>
<path d="M256.093 63.5476C257.597 63.5476 258.816 62.3288 258.816 60.8253C258.816 59.3218 257.597 58.103 256.093 58.103C254.59 58.103 253.371 59.3218 253.371 60.8253C253.371 62.3288 254.59 63.5476 256.093 63.5476Z" fill="#D7F4FF" stroke="#334A52" stroke-width="1.39" stroke-miterlimit="10"/>
<path d="M264.523 63.5476C266.027 63.5476 267.245 62.3288 267.245 60.8253C267.245 59.3218 266.027 58.103 264.523 58.103C263.02 58.103 261.801 59.3218 261.801 60.8253C261.801 62.3288 263.02 63.5476 264.523 63.5476Z" fill="#D7F4FF" stroke="#334A52" stroke-width="1.39" stroke-miterlimit="10"/>
<path d="M272.953 63.5476C274.456 63.5476 275.675 62.3288 275.675 60.8253C275.675 59.3218 274.456 58.103 272.953 58.103C271.449 58.103 270.23 59.3218 270.23 60.8253C270.23 62.3288 271.449 63.5476 272.953 63.5476Z" fill="#D7F4FF" stroke="#334A52" stroke-width="1.39" stroke-miterlimit="10"/>
<g clip-path="url(#clip1_703_1030)">
<path d="M184.587 145.788L180.59 144.587L176.989 147.113L172.623 140.887C173.949 140.086 175.267 139.277 176.593 138.476C176.664 138.431 176.734 138.387 176.778 138.316C176.839 138.227 176.839 138.102 176.839 137.996C176.822 136.608 176.795 135.22 176.76 133.833C175.452 133.148 174.204 132.481 173.01 131.733C172.913 131.671 172.816 131.6 172.79 131.493C172.764 131.387 172.825 131.28 172.878 131.182C173.879 129.536 174.881 127.882 175.882 126.236C175.908 126.192 175.935 126.147 175.979 126.121C176.084 126.05 176.225 126.112 176.339 126.174C177.445 126.797 178.491 127.535 179.439 128.38C180.827 127.633 182.11 126.85 183.348 125.996C183.647 125.792 183.954 125.551 184.06 125.213C184.148 124.929 184.06 124.617 183.981 124.333C183.647 123.168 183.278 122.02 182.856 120.89C185.158 119.921 187.793 119.734 190.217 120.374C190.402 120.463 189.778 124.769 189.778 124.769L194.267 127.339L197.684 125.276L201.154 129.999L197.535 132.454L197.622 136.786L201.435 138.458L199.186 144.907L195.277 143.342L191.482 145.663L191.131 150.04L185.746 150.173L184.578 145.779L184.587 145.788ZM186.625 138.343C186.818 138.387 187.187 138.218 187.363 138.147C187.512 138.085 187.653 138.022 187.793 137.933C188.048 137.773 188.285 137.56 188.496 137.337C188.926 136.875 189.242 136.359 189.462 135.772C189.55 135.532 189.611 135.283 189.655 135.025C189.69 134.802 189.717 134.598 189.69 134.375C189.673 134.242 189.629 134.1 189.629 133.957C189.629 134.34 189.629 133.922 189.594 133.77C189.409 133.103 188.856 132.454 188.25 132.134C187.881 131.938 187.468 131.76 187.046 131.742C186.669 131.725 186.273 131.831 185.922 131.974C185.421 132.178 184.921 132.418 184.473 132.73C183.972 133.077 183.445 133.504 183.173 134.064C182.892 134.624 182.848 135.229 183.058 135.763C182.953 135.985 182.918 136.243 183.006 136.466C183.155 136.866 183.357 137.213 183.691 137.489C184.025 137.764 184.35 137.942 184.754 138.102C184.877 138.156 185.009 138.191 185.14 138.227C185.219 138.245 185.29 138.262 185.369 138.271C185.492 138.289 185.606 138.307 185.729 138.316H185.65C185.544 138.298 185.544 138.298 185.641 138.316C185.764 138.334 185.887 138.351 186.01 138.369C186.071 138.369 186.133 138.378 186.194 138.369C186.344 138.369 186.511 138.36 186.651 138.316L186.625 138.343Z" fill="#D7F4FF"/>
<g opacity="0.13">
<path d="M187.416 139.614C186.74 139.561 186.678 138.538 187.328 138.387C187.961 138.182 187.846 138.262 188.505 137.586C189.032 136.937 188.874 137.168 189.243 136.163C189.533 135.22 189.471 135.602 189.471 134.802C189.454 134.695 189.427 134.58 189.392 134.473C189.243 134.081 189.322 134.206 188.909 133.459C188.751 133.147 188.47 132.881 188.452 132.525C188.25 131.448 189.832 130.924 190.367 131.875C191.536 133.566 192.063 135.264 191.096 137.195C190.552 138.191 189.621 138.911 188.54 139.276C188.189 139.427 187.82 139.641 187.425 139.614H187.416Z" fill="#334A52"/>
</g>
<g opacity="0.13">
<path d="M198.229 142.532C198.457 141.9 198.615 141.678 198.826 140.477C199.002 139.917 198.914 139.223 199.283 138.743C200.003 137.729 201.681 138.565 201.33 139.748C201.031 141.162 200.97 142.79 199.924 143.893C198.94 144.765 197.658 143.662 198.229 142.532Z" fill="#334A52"/>
</g>
<g opacity="0.13">
<path d="M188.961 150.564C188.961 150.564 188.934 150.564 188.925 150.564H188.961C188.723 150.564 188.486 150.511 188.284 150.395C187.362 149.906 187.511 148.474 188.469 148.127C188.513 148.109 188.565 148.083 188.627 148.047C188.811 147.949 189.013 147.887 189.207 147.816C189.356 147.753 189.558 147.664 189.672 147.611C189.883 147.487 190.111 147.424 190.357 147.424C191.93 147.442 192.228 149.648 190.717 150.066C190.226 150.28 189.725 150.449 189.198 150.52C189.119 150.538 189.04 150.546 188.969 150.546L188.961 150.564Z" fill="#334A52"/>
</g>
<path d="M201.83 138.405C201.83 138.227 201.725 138.067 201.558 138.004C200.398 137.542 199.204 137.061 198.035 136.332C198.202 134.962 198.123 133.575 197.991 132.267C198.685 131.876 199.388 131.502 200.126 131.111C200.547 130.888 200.978 130.657 201.417 130.417C201.61 130.31 201.698 130.079 201.619 129.874C200.811 127.793 199.485 125.978 197.798 124.626C197.649 124.511 197.438 124.502 197.28 124.617C196.287 125.329 195.259 126.067 194.021 126.859C192.932 126.023 191.632 125.276 190.051 124.599C190.112 124.279 190.182 123.968 190.253 123.648C190.463 122.634 190.683 121.584 190.841 120.454C190.867 120.241 190.736 120.027 190.525 119.974C188.18 119.334 185.527 119.512 182.637 120.508C182.426 120.579 182.303 120.81 182.356 121.024L182.373 121.104C182.725 122.509 183.085 123.95 183.454 125.462C182.136 126.085 180.906 126.85 179.633 127.659C178.702 126.957 177.604 126.165 176.33 125.462C176.154 125.364 175.943 125.4 175.812 125.551C174.415 127.099 173.194 129.056 172.193 131.36C172.105 131.564 172.184 131.804 172.377 131.911C173.633 132.623 174.942 133.263 176.277 133.824C176.049 135.291 175.996 136.786 176.119 138.271C174.854 138.929 173.554 139.623 172.193 140.495C171.999 140.62 171.938 140.86 172.043 141.064C172.913 142.754 173.976 144.347 175.188 145.805C175.522 146.197 175.864 146.588 176.198 146.962C176.365 147.148 176.567 147.38 176.866 147.451C176.98 147.478 177.112 147.451 177.208 147.389C177.7 147.06 178.183 146.713 178.684 146.366C179.369 145.885 180.072 145.396 180.845 144.88C181.934 145.316 183.05 145.77 184.156 146.179C184.271 147.415 184.508 148.999 185.202 150.689C185.263 150.84 185.413 150.947 185.571 150.956C187.74 151.089 189.726 150.795 191.632 150.075C191.807 150.013 191.913 149.835 191.913 149.648L191.895 149.168C191.851 148.065 191.807 146.917 191.895 145.699C193.011 145.236 194.126 144.533 195.382 143.51C196.516 144.16 197.701 144.818 199.089 145.405C199.291 145.485 199.52 145.405 199.625 145.209C200.82 142.994 201.549 140.708 201.795 138.431C201.795 138.414 201.795 138.405 201.795 138.387L201.83 138.405ZM197.148 136.554C197.148 136.697 197.218 136.839 197.341 136.919C198.545 137.702 199.757 138.218 200.934 138.689C200.688 140.628 200.064 142.568 199.089 144.471C197.789 143.902 196.665 143.261 195.576 142.63C195.418 142.541 195.224 142.559 195.093 142.674C193.722 143.813 192.536 144.56 191.368 145.005C191.219 145.067 191.105 145.209 191.096 145.369C190.964 146.748 191.017 148.002 191.061 149.221V149.381C189.444 149.959 187.749 150.199 185.922 150.119C185.298 148.501 185.114 146.988 185.017 145.841C185 145.672 184.894 145.53 184.736 145.467C183.48 145.014 182.215 144.507 180.985 144.009C180.854 143.955 180.713 143.973 180.59 144.044C179.729 144.604 178.965 145.147 178.218 145.663C177.797 145.957 177.393 146.241 176.98 146.526C176.936 146.481 176.892 146.428 176.857 146.392C176.523 146.019 176.189 145.636 175.864 145.254C174.775 143.946 173.809 142.523 173.01 141.029C174.318 140.219 175.574 139.561 176.795 138.921C176.954 138.84 177.041 138.671 177.024 138.494C176.857 136.875 176.918 135.247 177.2 133.646C177.235 133.441 177.129 133.245 176.936 133.165C175.645 132.641 174.38 132.036 173.159 131.36C174.037 129.421 175.074 127.757 176.242 126.405C177.445 127.099 178.482 127.864 179.378 128.54C179.518 128.647 179.712 128.656 179.861 128.558C181.31 127.642 182.681 126.77 184.156 126.112C184.35 126.023 184.446 125.818 184.402 125.614C184.033 124.092 183.673 122.634 183.313 121.219C185.738 120.445 187.969 120.285 189.954 120.739C189.805 121.691 189.62 122.598 189.427 123.479C189.33 123.915 189.242 124.35 189.155 124.795C189.111 125 189.225 125.204 189.409 125.284C191.184 126.023 192.598 126.832 193.731 127.748C193.872 127.864 194.074 127.873 194.223 127.775C195.497 126.983 196.533 126.245 197.517 125.533C198.87 126.681 199.95 128.166 200.67 129.856C200.345 130.025 200.029 130.194 199.722 130.363C198.887 130.808 198.097 131.226 197.315 131.671C197.166 131.76 197.078 131.92 197.095 132.098C197.245 133.521 197.35 135.042 197.13 136.51C197.13 136.528 197.13 136.554 197.13 136.572L197.148 136.554Z" fill="#334A52"/>
<path d="M189.7 134.571C189.7 133.993 189.586 133.406 189.349 132.863C189.147 132.4 188.892 132.071 188.576 131.849C188.154 131.546 187.636 131.475 187.24 131.44C185.835 131.333 184.553 131.671 183.63 132.4C182.515 133.281 182.014 134.749 182.427 135.967C182.453 136.047 182.497 136.11 182.559 136.163V136.199C182.998 137.488 184.28 138.44 185.677 138.52C187.03 138.6 188.374 137.889 189.103 136.706C189.498 136.074 189.7 135.327 189.7 134.571ZM183.138 135.087C183.138 134.366 183.516 133.592 184.148 133.085C184.904 132.489 185.976 132.214 187.17 132.311C187.46 132.338 187.829 132.383 188.084 132.56C188.268 132.694 188.426 132.907 188.558 133.219C188.988 134.206 188.927 135.371 188.374 136.243C187.811 137.141 186.749 137.711 185.721 137.648C184.676 137.586 183.692 136.866 183.375 135.923C183.367 135.887 183.349 135.852 183.34 135.816C183.314 135.727 183.27 135.576 183.173 135.469C183.147 135.345 183.138 135.22 183.138 135.087Z" fill="#334A52"/>
<path d="M218.916 126.441C218.591 125.355 218.037 124.315 217.168 123.603C215.955 122.607 214.251 122.367 212.74 122.776C211.238 123.185 209.93 124.172 208.928 125.373C207.259 124.306 205.687 123.158 204.167 121.949C205.239 120.481 206.258 119.075 206.337 117.448C206.416 115.873 205.564 114.352 204.352 113.374C203.14 112.395 201.594 111.915 200.056 111.719C199.907 111.666 199.881 111.586 199.872 111.523C199.749 109.878 199.626 108.232 199.512 106.578C201.031 106.284 202.384 105.582 203.368 104.505C204.352 103.429 204.94 101.97 204.896 100.503C204.879 99.8976 204.756 99.3106 204.633 98.7235C204.422 97.7628 204.167 96.7399 203.465 96.0639C204.343 94.7563 205.283 93.5821 206.258 92.4436C206.653 93.0218 207.189 93.2708 207.716 93.4754C208.84 93.9113 210.07 94.2493 211.247 93.9735C212.459 93.6889 213.47 92.7638 214.067 91.6519C214.664 90.54 214.901 89.268 214.98 88.0049C216.755 87.658 218.661 87.489 220.567 87.4268C220.945 88.5031 221.27 89.5171 221.797 90.4333C222.324 91.3495 223.079 92.1678 224.046 92.577C225.135 93.0395 226.408 92.9239 227.489 92.4436C228.569 91.9632 229.474 91.1449 230.212 90.2109C232.013 91.3317 233.682 92.4169 235.333 93.5199C234.226 95.2366 233.875 97.3981 234.472 99.275C234.622 99.7464 234.832 100.2 235.131 100.583C235.509 101.063 236.027 101.419 236.563 101.694C237.863 102.362 239.365 102.611 240.805 102.397C241.201 104.399 241.456 106.338 241.605 108.277C239.611 108.161 237.599 109.033 236.51 110.634C235.421 112.235 235.342 114.512 236.422 116.122C236.932 116.887 237.661 117.465 238.381 118.035C237.16 119.787 235.913 121.522 234.534 123.149C233.137 122.242 231.74 121.317 230.177 121.281C228.543 121.246 226.979 122.242 226.092 123.63C225.205 125.017 224.942 126.752 225.108 128.397C223.211 128.958 221.349 129.438 219.478 129.838C219.381 128.629 219.276 127.499 218.951 126.414L218.916 126.441ZM223.097 116.104C224.555 115.437 225.811 114.352 226.76 113.045C227.313 112.288 227.761 111.443 228.042 110.545C229.211 106.862 227.164 102.548 223.738 100.841C221.243 99.5952 218.151 99.6486 215.701 100.983C213.25 102.317 211.502 104.897 211.142 107.69C210.826 110.198 212.161 113.365 214.568 115.17C216.974 116.976 220.356 117.341 223.088 116.096L223.097 116.104Z" fill="#FFDD98"/>
<g opacity="0.13">
<path d="M219.126 118.346C218.845 118.31 218.564 118.248 218.282 118.177C218.221 118.141 218.151 118.115 218.089 118.079C217.079 117.563 216.113 116.932 215.217 116.229C215.296 116.113 215.419 116.024 215.551 115.98C216.034 115.909 216.473 116.282 216.938 116.407C218.203 116.834 218.809 117.118 219.969 116.985C220.408 117.003 222.859 116.265 223.158 116.024C223.693 115.749 224.212 115.428 224.695 115.055C224.827 114.939 224.888 114.904 224.888 114.921C225.029 114.735 225.213 114.574 225.362 114.397C225.687 114.014 226.012 113.632 226.329 113.24C226.408 113.142 226.539 112.973 226.654 112.849C226.566 112.911 226.724 112.742 226.856 112.582C226.908 112.493 227.172 112.111 227.268 111.915C227.734 110.563 227.998 109.166 228.041 108.419C228.129 107.432 227.883 106.462 227.708 105.697C227.558 105.155 227.023 104.683 227.137 104.096C227.198 103.847 227.383 103.678 227.611 103.616C227.673 103.669 227.725 103.731 227.787 103.785C227.945 103.98 228.112 104.185 228.27 104.381C228.735 105.101 229.201 105.822 229.658 106.551C230 107.752 230.071 109.033 229.781 110.572C229.781 110.545 229.781 110.509 229.79 110.483C229.456 112.093 229.236 112.6 228.639 113.774C228.033 114.806 227.154 115.633 226.162 116.265C226.135 116.282 226.109 116.3 226.074 116.318C225.143 117.065 224.08 117.643 222.964 118.035C221.735 118.444 220.408 118.435 219.134 118.31L219.126 118.346Z" fill="#334A52"/>
</g>
<g opacity="0.13">
<path d="M232.145 122.269C232.153 122.109 232.188 121.949 232.268 121.806C232.382 121.602 232.566 121.468 232.759 121.344C232.909 121.219 233.058 121.104 233.225 120.988C233.629 120.668 233.805 120.579 234.516 119.867C234.938 119.476 235.193 118.853 235.711 118.595C235.72 118.595 235.728 118.595 235.737 118.586C235.825 118.435 235.913 118.284 235.992 118.124C236.168 117.839 236.255 117.465 236.537 117.27C237.266 116.647 238.337 117.608 237.837 118.426C237.389 119.28 236.862 120.081 236.22 120.801C236.185 120.837 236.15 120.872 236.115 120.908C235.667 121.468 235.21 122.011 234.701 122.509C234.507 122.696 234.288 122.909 234.042 123.087C233.673 122.9 233.286 122.74 232.9 122.589C232.645 122.473 232.399 122.367 232.145 122.269Z" fill="#334A52"/>
</g>
<g opacity="0.13">
<path d="M219.354 127.819C220.583 127.499 221.804 127.125 223.016 126.734C223.579 126.547 224.141 126.369 224.712 126.183C224.975 126.396 225.125 126.77 225.019 127.117C225.019 127.134 225.002 127.152 225.002 127.17C225.415 127.464 225.362 128.246 224.791 128.389C224.527 128.46 224.264 128.575 223.991 128.673C223.965 128.736 223.93 128.789 223.886 128.842C223.631 129.198 223.148 129.296 222.762 129.429C221.971 129.625 221.163 129.732 220.346 129.767C220.302 129.767 220.249 129.767 220.197 129.767C219.924 129.118 219.643 128.469 219.354 127.828V127.819Z" fill="#334A52"/>
</g>
<path d="M241.999 108.295C241.999 108.295 241.999 108.268 241.999 108.259C241.841 106.204 241.578 104.265 241.191 102.326C241.147 102.104 240.936 101.952 240.708 101.979C239.355 102.175 237.941 101.943 236.72 101.321C236.149 101.027 235.719 100.698 235.429 100.325C235.192 100.022 234.998 99.6397 234.84 99.1593C234.287 97.4248 234.586 95.4145 235.648 93.7778C235.78 93.5821 235.727 93.3064 235.525 93.1818C233.9 92.0878 232.223 91.0026 230.396 89.864C230.211 89.7484 229.974 89.7928 229.833 89.9618C229.043 90.9581 228.182 91.6697 227.268 92.07C226.214 92.5414 225.081 92.5859 224.168 92.1945C223.166 91.7764 222.508 90.8958 222.121 90.2376C221.682 89.4726 221.383 88.6098 221.067 87.7025L220.926 87.3022C220.865 87.1243 220.698 87.0087 220.514 87.0176C218.414 87.0798 216.517 87.2755 214.857 87.5957C214.663 87.6313 214.523 87.8003 214.514 87.996C214.426 89.4192 214.145 90.5489 213.653 91.4562C213.056 92.5503 212.134 93.3242 211.115 93.5643C209.981 93.8312 208.769 93.4487 207.838 93.084C207.355 92.8972 206.898 92.6926 206.582 92.2123C206.503 92.1055 206.389 92.0344 206.257 92.0255C206.125 92.0255 205.994 92.07 205.906 92.1767C204.781 93.4843 203.877 94.6495 203.077 95.8415C202.963 96.0194 202.981 96.2506 203.139 96.4019C203.745 96.98 203.982 97.8873 204.184 98.8391C204.316 99.444 204.421 99.9866 204.439 100.547C204.474 101.863 203.964 103.215 203.025 104.238C202.129 105.217 200.872 105.893 199.397 106.178C199.186 106.222 199.037 106.418 199.054 106.64L199.414 111.586C199.432 111.844 199.599 112.057 199.871 112.155C199.906 112.164 199.933 112.173 199.968 112.182C201.654 112.395 203.025 112.92 204.052 113.747C205.247 114.708 205.941 116.122 205.879 117.456C205.8 118.978 204.781 120.374 203.798 121.726C203.657 121.913 203.692 122.18 203.877 122.331C205.589 123.683 207.162 124.813 208.673 125.782C208.857 125.898 209.094 125.862 209.226 125.693C209.955 124.813 211.176 123.674 212.819 123.229C214.277 122.838 215.823 123.123 216.859 123.977C217.571 124.564 218.133 125.471 218.467 126.601C218.774 127.641 218.88 128.727 218.976 129.936C218.985 130.061 219.047 130.176 219.143 130.248C219.24 130.319 219.372 130.354 219.486 130.328C221.33 129.936 223.184 129.456 225.152 128.878C225.354 128.815 225.477 128.629 225.459 128.415C225.283 126.716 225.608 125.124 226.381 123.923C227.233 122.589 228.691 121.744 230.097 121.771C231.529 121.806 232.82 122.642 234.19 123.541L234.234 123.567C234.419 123.683 234.656 123.647 234.796 123.487C236.219 121.806 237.502 120.018 238.67 118.346C238.802 118.159 238.767 117.892 238.582 117.75C237.941 117.243 237.203 116.665 236.711 115.935C235.754 114.512 235.789 112.413 236.799 110.936C237.774 109.513 239.628 108.659 241.516 108.766C241.639 108.766 241.762 108.73 241.85 108.633C241.929 108.553 241.973 108.446 241.973 108.33L241.999 108.295ZM240.427 102.886C240.734 104.505 240.954 106.142 241.103 107.85C239.074 107.877 237.194 108.828 236.123 110.403C234.902 112.191 234.867 114.646 236.035 116.38C236.518 117.092 237.151 117.652 237.765 118.141C236.738 119.609 235.631 121.139 234.419 122.598C233.092 121.735 231.722 120.908 230.15 120.872C228.454 120.837 226.706 121.833 225.696 123.416C224.879 124.697 224.501 126.352 224.616 128.104C222.964 128.584 221.383 128.993 219.828 129.34C219.732 128.273 219.618 127.286 219.328 126.316C218.941 125.017 218.282 123.968 217.439 123.274C216.192 122.251 214.356 121.904 212.634 122.367C211.264 122.74 209.964 123.585 208.848 124.822C207.548 123.977 206.204 123.007 204.764 121.877C205.748 120.525 206.687 119.12 206.767 117.474C206.846 115.873 206.02 114.174 204.614 113.045C203.499 112.146 202.041 111.568 200.284 111.319L199.959 106.934C201.452 106.569 202.735 105.84 203.675 104.808C204.764 103.616 205.361 102.041 205.308 100.502C205.291 99.8798 205.168 99.2661 205.027 98.6434C204.825 97.7183 204.579 96.7666 203.991 96.0372C204.641 95.0943 205.37 94.1514 206.231 93.1196C206.635 93.511 207.109 93.7244 207.54 93.8935C208.585 94.3026 209.955 94.7296 211.317 94.4094C212.573 94.1158 213.706 93.1907 214.417 91.8743C214.936 90.9225 215.243 89.7839 215.357 88.3874C216.807 88.1206 218.449 87.9516 220.241 87.8893L220.276 87.9871C220.61 88.9389 220.918 89.8373 221.401 90.6734C221.849 91.4473 222.639 92.488 223.851 92.9951C224.985 93.4754 226.364 93.422 227.629 92.8616C228.569 92.4436 229.456 91.7497 230.273 90.798C231.836 91.7764 233.303 92.7282 234.717 93.6711C233.698 95.4501 233.444 97.576 234.032 99.4262C234.217 100.004 234.454 100.476 234.761 100.867C235.139 101.348 235.648 101.748 236.342 102.095C237.598 102.735 239.03 103.011 240.427 102.886Z" fill="#334A52"/>
<path d="M224.809 108.072C224.809 106.613 224.009 105.128 222.718 104.301C221.356 103.429 219.512 103.287 217.896 103.927C216.806 104.363 215.893 105.11 215.322 106.035C214.689 107.067 214.496 108.286 214.786 109.389C215.12 110.634 215.664 111.559 216.411 112.155C217.307 112.867 218.51 113.249 219.793 113.24C220.671 113.24 221.418 113.053 222.024 112.689C222.56 112.368 222.99 111.897 223.298 111.532C224.132 110.536 224.598 109.647 224.756 108.73C224.791 108.508 224.809 108.294 224.809 108.072ZM215.515 108.375C215.515 107.734 215.699 107.076 216.051 106.498C216.525 105.724 217.289 105.101 218.212 104.736C219.573 104.194 221.128 104.309 222.261 105.03C223.465 105.795 224.141 107.263 223.913 108.579C223.781 109.335 223.377 110.091 222.648 110.963C222.367 111.301 222.015 111.684 221.594 111.933C221.119 112.217 220.513 112.36 219.793 112.368C218.704 112.368 217.693 112.048 216.947 111.461C216.35 110.99 215.91 110.216 215.629 109.157C215.559 108.899 215.524 108.632 215.524 108.366L215.515 108.375Z" fill="#334A52"/>
<path d="M228.798 108.392C228.798 105.199 226.9 101.935 223.931 100.449C221.305 99.1415 218.081 99.1949 215.499 100.6C212.925 102.006 211.089 104.701 210.72 107.636C210.378 110.385 211.888 113.703 214.322 115.526C216.869 117.439 220.383 117.821 223.281 116.496C224.766 115.82 226.083 114.717 227.111 113.294C227.726 112.449 228.174 111.568 228.455 110.67C228.692 109.931 228.798 109.157 228.798 108.383V108.392ZM211.528 108.455C211.528 108.214 211.546 107.974 211.572 107.743C211.906 105.083 213.566 102.637 215.903 101.365C218.239 100.093 221.164 100.04 223.545 101.232C226.874 102.895 228.71 107.014 227.629 110.412C227.375 111.221 226.962 112.013 226.408 112.787C225.469 114.085 224.265 115.09 222.912 115.704C220.339 116.878 217.089 116.522 214.822 114.823C212.837 113.329 211.519 110.75 211.519 108.455H211.528Z" fill="#334A52"/>
</g>
<path d="M327.909 184.186L347.193 193.233C351.281 195.151 355.99 195.203 360.12 193.375L378.367 185.301C379.652 184.734 379.601 182.878 378.293 182.377L353.636 172.986C353.299 172.858 352.93 172.849 352.589 172.967L328.068 181.257C327.4 181.484 327.035 182.065 327.002 182.665C326.97 183.265 327.264 183.884 327.904 184.186H327.909Z" fill="#FFDD98" stroke="#334A52" stroke-width="1.5" stroke-miterlimit="10"/>
<g style="mix-blend-mode:screen" opacity="0.5">
<path d="M331.396 183.658L331.32 183.623C331.062 183.468 330.942 183.199 330.958 182.926C330.976 182.622 331.153 182.349 331.473 182.242L331.474 182.241L351.123 175.599L351.123 175.599L351.128 175.598C351.286 175.542 351.459 175.545 351.62 175.607L351.621 175.607L371.377 183.132C371.377 183.132 371.378 183.132 371.378 183.132C372.012 183.375 372.033 184.278 371.415 184.551L371.414 184.551L356.792 191.018L356.792 191.018C353.617 192.424 349.994 192.383 346.85 190.909C346.85 190.909 346.85 190.909 346.849 190.909L331.396 183.658Z" fill="#FFDD98"/>
<path d="M331.396 183.658L331.32 183.623C331.062 183.468 330.942 183.199 330.958 182.926C330.976 182.622 331.153 182.349 331.473 182.242L331.474 182.241L351.123 175.599L351.123 175.599L351.128 175.598C351.286 175.542 351.459 175.545 351.62 175.607L351.621 175.607L371.377 183.132C371.377 183.132 371.378 183.132 371.378 183.132C372.012 183.375 372.033 184.278 371.415 184.551L371.414 184.551L356.792 191.018L356.792 191.018C353.617 192.424 349.994 192.383 346.85 190.909C346.85 190.909 346.85 190.909 346.849 190.909L331.396 183.658Z" stroke="#334A52"/>
</g>
<path d="M349.768 143.739C347.736 150.589 340.916 173.571 338.627 181.3C338.145 182.93 338.776 184.687 340.187 185.608C344.387 188.357 353.216 191.428 365.717 186.388C367.287 185.755 368.184 183.87 367.731 182.226L357.056 143.81C356.645 142.331 355.402 141.24 353.894 141.042C353.847 141.037 353.8 141.028 353.753 141.023C351.959 140.82 350.287 141.991 349.768 143.739Z" fill="#FFDD98" stroke="#334A52" stroke-width="1.5" stroke-miterlimit="10"/>
<path d="M366.139 176.51C351.928 183.487 340.043 176.51 340.043 176.51L342.673 167.652C352.68 172.802 363.677 167.652 363.677 167.652L366.139 176.51Z" fill="#D7F4FF" stroke="#334A52" stroke-width="1.5" stroke-miterlimit="10"/>
<path d="M348.003 149.677C354.524 151.118 358.682 149.677 358.682 149.677L361.298 159.097C353.581 161.039 345.209 159.097 345.209 159.097L348.003 149.677Z" fill="#D7F4FF" stroke="#334A52" stroke-width="1.5" stroke-miterlimit="10"/>
<path d="M294.735 164.93L310.333 172.246C313.639 173.798 317.447 173.84 320.788 172.361L335.546 165.831C336.585 165.373 336.544 163.871 335.486 163.466L315.543 155.87C315.271 155.767 314.972 155.76 314.697 155.855L294.863 162.561C294.323 162.744 294.028 163.214 294.002 163.699C293.976 164.185 294.214 164.685 294.731 164.93H294.735Z" fill="#FFDD98" stroke="#334A52" stroke-width="1.5" stroke-miterlimit="10"/>
<g style="mix-blend-mode:screen" opacity="0.5">
<path d="M297.597 164.416L297.54 164.389C297.367 164.283 297.287 164.103 297.298 163.915C297.31 163.704 297.431 163.52 297.649 163.447L297.65 163.447L313.542 158.075L313.542 158.075L313.547 158.073C313.654 158.036 313.77 158.037 313.88 158.079L313.881 158.08L329.859 164.166C329.859 164.166 329.86 164.166 329.86 164.166C330.293 164.332 330.307 164.95 329.885 165.137L329.885 165.137L318.058 170.368L318.058 170.368C315.515 171.493 312.614 171.461 310.096 170.28L297.597 164.416Z" fill="#FFDD98"/>
<path d="M297.597 164.416L297.54 164.389C297.367 164.283 297.287 164.103 297.298 163.915C297.31 163.704 297.431 163.52 297.649 163.447L297.65 163.447L313.542 158.075L313.542 158.075L313.547 158.073C313.654 158.036 313.77 158.037 313.88 158.079L313.881 158.08L329.859 164.166C329.859 164.166 329.86 164.166 329.86 164.166C330.293 164.332 330.307 164.95 329.885 165.137L329.885 165.137L318.058 170.368L318.058 170.368C315.515 171.493 312.614 171.461 310.096 170.28L297.597 164.416Z" stroke="#334A52"/>
</g>
<path d="M312.416 132.215C310.773 137.756 305.256 156.344 303.405 162.595C303.015 163.913 303.525 165.334 304.667 166.079C308.063 168.303 315.205 170.787 325.316 166.71C326.585 166.198 327.311 164.673 326.944 163.344L318.311 132.273C317.978 131.077 316.973 130.194 315.753 130.034C315.715 130.03 315.677 130.022 315.639 130.018C314.188 129.854 312.836 130.802 312.416 132.215Z" fill="#FFDD98" stroke="#334A52" stroke-width="1.5" stroke-miterlimit="10"/>
<path d="M325.657 158.721C314.163 164.364 304.551 158.721 304.551 158.721L306.678 151.557C314.772 155.721 323.666 151.557 323.666 151.557L325.657 158.721Z" fill="#D7F4FF" stroke="#334A52" stroke-width="1.5" stroke-miterlimit="10"/>
<path d="M310.988 137.018C316.263 138.183 319.626 137.018 319.626 137.018L321.742 144.637C315.5 146.207 308.729 144.637 308.729 144.637L310.988 137.018Z" fill="#D7F4FF" stroke="#334A52" stroke-width="1.5" stroke-miterlimit="10"/>
<defs>
<clipPath id="clip0_703_1030">
<rect width="162" height="196" fill="white" transform="matrix(-1 0 0 1 162 0)"/>
</clipPath>
<clipPath id="clip1_703_1030">
<rect width="64" height="70" fill="white" transform="matrix(0 1 1 0 172 87)"/>
</clipPath>
</defs>
</svg>
