<svg viewBox="0 0 104 93" fill="none" xmlns="http://www.w3.org/2000/svg">
  <path
    d="M90.8553 16.3363C97.7742 27.2843 103.199 70.1239 94.158 79.5262C80.2292 94.0098 22.3669 83.0333 8.57694 61.8032C1.52007 50.9384 70.093 -16.5327 90.8553 16.3363Z"
    fill="#B3EAFE" />
  <path
    d="M96.0041 76.8227H15.3464C15.219 76.8227 15.1152 76.7188 15.1152 76.5914V14.8709C15.1152 14.7435 15.219 14.6396 15.3464 14.6396H96.0041C96.1315 14.6396 96.2352 14.7435 96.2352 14.8709V76.5914C96.2352 76.7188 96.1315 76.8227 96.0041 76.8227ZM15.5776 76.3601H95.7729V15.1022H15.5776V76.3601Z"
    fill="#334A52" />
  <g opacity="0.13">
    <path d="M96.0034 20.4873H15.3457V22.3422H96.0034V20.4873Z" fill="#334A52" />
  </g>
  <path d="M15.3521 20.3835L96.0098 20.3835V14.8709L15.3521 14.8709V20.3835Z" fill="#FDB932" />
  <path
    d="M96.0041 20.6149H15.3464C15.219 20.6149 15.1152 20.511 15.1152 20.3836V14.8709C15.1152 14.7435 15.219 14.6396 15.3464 14.6396H96.0041C96.1315 14.6396 96.2352 14.7435 96.2352 14.8709V20.3836C96.2352 20.511 96.1315 20.6149 96.0041 20.6149ZM15.5776 20.1523H95.7729V15.1022H15.5776V20.1523Z"
    fill="#334A52" />
  <path
    d="M76.3034 17.8584C76.1761 17.8584 76.0723 17.7546 76.0723 17.6272V10.2313C76.0723 10.1038 76.1761 10 76.3034 10C76.4308 10 76.5346 10.1038 76.5346 10.2313V17.6272C76.5346 17.7546 76.4308 17.8584 76.3034 17.8584Z"
    fill="#334A52" />
  <path
    d="M36.8405 17.8584C36.7132 17.8584 36.6094 17.7546 36.6094 17.6272V10.2313C36.6094 10.1038 36.7132 10 36.8405 10C36.9679 10 37.0717 10.1038 37.0717 10.2313V17.6272C37.0717 17.7546 36.9679 17.8584 36.8405 17.8584Z"
    fill="#334A52" />
  <path
    d="M31.9375 37.5588H23.8562C23.7288 37.5588 23.625 37.455 23.625 37.3276V30.8143C23.625 30.6868 23.7288 30.583 23.8562 30.583H31.9375C32.0649 30.583 32.1687 30.6868 32.1687 30.8143V37.3276C32.1687 37.455 32.0649 37.5588 31.9375 37.5588ZM24.0873 37.0963H31.7063V31.0455H24.0873V37.0963Z"
    fill="#334A52" />
  <path
    d="M45.7148 37.5588H37.6335C37.5061 37.5588 37.4023 37.455 37.4023 37.3276V30.8143C37.4023 30.6868 37.5061 30.583 37.6335 30.583H45.7148C45.8422 30.583 45.946 30.6868 45.946 30.8143V37.3276C45.946 37.455 45.8422 37.5588 45.7148 37.5588ZM37.8647 37.0963H45.4837V31.0455H37.8647V37.0963Z"
    fill="#334A52" />
  <path
    d="M59.4902 37.5588H51.4089C51.2815 37.5588 51.1777 37.455 51.1777 37.3276V30.8143C51.1777 30.6868 51.2815 30.583 51.4089 30.583H59.4902C59.6176 30.583 59.7214 30.6868 59.7214 30.8143V37.3276C59.7214 37.455 59.6176 37.5588 59.4902 37.5588ZM51.6401 37.0963H59.2591V31.0455H51.6401V37.0963Z"
    fill="#334A52" />
  <path
    d="M73.7227 37.5588H65.6413C65.5139 37.5588 65.4102 37.455 65.4102 37.3276V30.8143C65.4102 30.6868 65.5139 30.583 65.6413 30.583H73.7227C73.85 30.583 73.9538 30.6868 73.9538 30.8143V37.3276C73.9538 37.455 73.85 37.5588 73.7227 37.5588ZM65.8725 37.0963H73.4915V31.0455H65.8725V37.0963Z"
    fill="#334A52" />
  <path
    d="M87.498 37.5588H79.4167C79.2893 37.5588 79.1855 37.455 79.1855 37.3276V30.8143C79.1855 30.6868 79.2893 30.583 79.4167 30.583H87.498C87.6254 30.583 87.7292 30.6868 87.7292 30.8143V37.3276C87.7292 37.455 87.6254 37.5588 87.498 37.5588ZM79.6479 37.0963H87.2669V31.0455H79.6479V37.0963Z"
    fill="#334A52" />
  <path
    d="M31.9375 51.4915H23.8562C23.7288 51.4915 23.625 51.3876 23.625 51.2602V44.7469C23.625 44.6195 23.7288 44.5156 23.8562 44.5156H31.9375C32.0649 44.5156 32.1687 44.6195 32.1687 44.7469V51.2602C32.1687 51.3876 32.0649 51.4915 31.9375 51.4915ZM24.0873 51.0289H31.7063V44.9782H24.0873V51.0289Z"
    fill="#334A52" />
  <path
    d="M45.7148 51.4915H37.6335C37.5061 51.4915 37.4023 51.3876 37.4023 51.2602V44.7469C37.4023 44.6195 37.5061 44.5156 37.6335 44.5156H45.7148C45.8422 44.5156 45.946 44.6195 45.946 44.7469V51.2602C45.946 51.3876 45.8422 51.4915 45.7148 51.4915ZM37.8647 51.0289H45.4837V44.9782H37.8647V51.0289Z"
    fill="#334A52" />
  <path
    d="M59.4902 51.4915H51.4089C51.2815 51.4915 51.1777 51.3876 51.1777 51.2602V44.7469C51.1777 44.6195 51.2815 44.5156 51.4089 44.5156H59.4902C59.6176 44.5156 59.7214 44.6195 59.7214 44.7469V51.2602C59.7214 51.3876 59.6176 51.4915 59.4902 51.4915ZM51.6401 51.0289H59.2591V44.9782H51.6401V51.0289Z"
    fill="#334A52" />
  <path
    d="M73.7227 51.4915H65.6413C65.5139 51.4915 65.4102 51.3876 65.4102 51.2602V44.7469C65.4102 44.6195 65.5139 44.5156 65.6413 44.5156H73.7227C73.85 44.5156 73.9538 44.6195 73.9538 44.7469V51.2602C73.9538 51.3876 73.85 51.4915 73.7227 51.4915ZM65.8725 51.0289H73.4915V44.9782H65.8725V51.0289Z"
    fill="#334A52" />
  <path
    d="M87.498 51.4915H79.4167C79.2893 51.4915 79.1855 51.3876 79.1855 51.2602V44.7469C79.1855 44.6195 79.2893 44.5156 79.4167 44.5156H87.498C87.6254 44.5156 87.7292 44.6195 87.7292 44.7469V51.2602C87.7292 51.3876 87.6254 51.4915 87.498 51.4915ZM79.6479 51.0289H87.2669V44.9782H79.6479V51.0289Z"
    fill="#334A52" />
  <path
    d="M31.9375 65.4197H23.8562C23.7288 65.4197 23.625 65.3158 23.625 65.1884V58.6751C23.625 58.5477 23.7288 58.4438 23.8562 58.4438H31.9375C32.0649 58.4438 32.1687 58.5477 32.1687 58.6751V65.1884C32.1687 65.3158 32.0649 65.4197 31.9375 65.4197ZM24.0873 64.9571H31.7063V58.9064H24.0873V64.9571Z"
    fill="#334A52" />
  <path
    d="M45.7148 65.4197H37.6335C37.5061 65.4197 37.4023 65.3158 37.4023 65.1884V58.6751C37.4023 58.5477 37.5061 58.4438 37.6335 58.4438H45.7148C45.8422 58.4438 45.946 58.5477 45.946 58.6751V65.1884C45.946 65.3158 45.8422 65.4197 45.7148 65.4197ZM37.8647 64.9571H45.4837V58.9064H37.8647V64.9571Z"
    fill="#334A52" />
  <path
    d="M59.4902 65.4197H51.4089C51.2815 65.4197 51.1777 65.3158 51.1777 65.1884V58.6751C51.1777 58.5477 51.2815 58.4438 51.4089 58.4438H59.4902C59.6176 58.4438 59.7214 58.5477 59.7214 58.6751V65.1884C59.7214 65.3158 59.6176 65.4197 59.4902 65.4197ZM51.6401 64.9571H59.2591V58.9064H51.6401V64.9571Z"
    fill="#334A52" />
  <path
    d="M73.7227 65.4197H65.6413C65.5139 65.4197 65.4102 65.3158 65.4102 65.1884V58.6751C65.4102 58.5477 65.5139 58.4438 65.6413 58.4438H73.7227C73.85 58.4438 73.9538 58.5477 73.9538 58.6751V65.1884C73.9538 65.3158 73.85 65.4197 73.7227 65.4197ZM65.8725 64.9571H73.4915V58.9064H65.8725V64.9571Z"
    fill="#334A52" />
  <path
    d="M87.498 65.4197H79.4167C79.2893 65.4197 79.1855 65.3158 79.1855 65.1884V58.6751C79.1855 58.5477 79.2893 58.4438 79.4167 58.4438H87.498C87.6254 58.4438 87.7292 58.5477 87.7292 58.6751V65.1884C87.7292 65.3158 87.6254 65.4197 87.498 65.4197ZM79.6479 64.9571H87.2669V58.9064H79.6479V64.9571Z"
    fill="#334A52" />
  <path
    d="M41.411 36.1712C41.3402 36.1712 41.2742 36.1381 41.2317 36.0815C40.4203 35.029 39.6702 33.9151 38.9956 32.7682C38.9295 32.6596 38.9673 32.518 39.0758 32.452C39.1843 32.3859 39.3258 32.4237 39.3919 32.5322C40.0051 33.5753 40.6892 34.5947 41.4157 35.5623L44.0576 32.2726C44.1378 32.1735 44.2841 32.1546 44.3831 32.2349C44.4822 32.3151 44.5011 32.4614 44.4209 32.5605L41.595 36.0815C41.5525 36.1381 41.4865 36.1664 41.4157 36.1664L41.411 36.1712Z"
    fill="#334A52" />
  <path
    d="M69.6988 49.6461C69.6186 49.6461 69.5431 49.6036 69.5007 49.5328C68.9157 48.5558 68.2741 47.5977 67.5947 46.6821C67.5193 46.5782 67.5381 46.4366 67.6419 46.3564C67.7457 46.2809 67.8872 46.2998 67.9674 46.4036C68.576 47.2248 69.1516 48.0791 69.6894 48.9475C70.2932 47.8526 71.0245 46.8331 71.8642 45.908C71.9491 45.8136 72.0954 45.8089 72.1897 45.8939C72.2841 45.9788 72.2888 46.1251 72.2039 46.2195C71.2981 47.2154 70.5244 48.3245 69.9017 49.5234C69.8639 49.5989 69.7884 49.6461 69.7035 49.6461H69.6941H69.6988Z"
    fill="#334A52" />
  <path
    d="M54.9975 64.0415C54.9079 64.0415 54.8277 63.9896 54.7899 63.9141L53.2095 60.7046C53.1529 60.5914 53.2001 60.4498 53.3133 60.3931C53.4265 60.3365 53.5681 60.3837 53.6247 60.497L54.9834 63.258C55.5212 62.0781 56.2194 60.9878 57.0639 59.9967C57.1488 59.8976 57.2903 59.8881 57.3894 59.9731C57.4884 60.058 57.4979 60.1996 57.413 60.2987C56.493 61.3748 55.7523 62.5878 55.2098 63.8952C55.1768 63.9802 55.0966 64.0368 55.0022 64.0368H54.9928L54.9975 64.0415Z"
    fill="#334A52" />
  <path
    d="M27.2902 81.5092C39.4735 81.5092 49.3499 71.7868 49.3499 59.7936C49.3499 47.8003 39.4735 38.0779 27.2902 38.0779C15.1069 38.0779 5.23047 47.8003 5.23047 59.7936C5.23047 71.7868 15.1069 81.5092 27.2902 81.5092Z"
    fill="#FDB932" />
  <path
    d="M27.2909 81.7406C15.0014 81.7406 5 71.8951 5 59.7936C5 47.6921 15.0014 37.8467 27.2909 37.8467C39.5804 37.8467 49.5818 47.6921 49.5818 59.7936C49.5818 71.8951 39.5804 81.7406 27.2909 81.7406ZM27.2909 38.3092C15.2562 38.3045 5.46233 47.947 5.46233 59.7936C5.46233 71.6403 15.2562 81.278 27.2909 81.278C39.3256 81.278 49.1195 71.6403 49.1195 59.7936C49.1195 47.947 39.3256 38.3092 27.2909 38.3092Z"
    fill="#334A52" />
  <path
    d="M27.2907 78.6399C37.8638 78.6399 46.4349 70.2022 46.4349 59.7938C46.4349 49.3854 37.8638 40.9478 27.2907 40.9478C16.7176 40.9478 8.14648 49.3854 8.14648 59.7938C8.14648 70.2022 16.7176 78.6399 27.2907 78.6399Z"
    fill="#B3EAFE" />
  <path
    d="M27.2914 78.8663C16.6106 78.8663 7.91602 70.3094 7.91602 59.789C7.91602 49.2686 16.6059 40.7117 27.2914 40.7117C37.9769 40.7117 46.6668 49.2686 46.6668 59.789C46.6668 70.3094 37.9769 78.8663 27.2914 78.8663ZM27.2914 41.1789C16.8654 41.1789 8.37835 49.5282 8.37835 59.7937C8.37835 70.0592 16.8607 78.4085 27.2914 78.4085C37.7221 78.4085 46.2045 70.0592 46.2045 59.7937C46.2045 49.5282 37.7221 41.1789 27.2914 41.1789Z"
    fill="#334A52" />
  <path d="M27.8025 61.5775L35.4687 54.2005L37.4029 50.9438L33.992 52.8648L26.6797 60.5014L27.8025 61.5775Z"
    fill="#FDB932" />
  <path
    d="M27.8018 61.8089C27.7452 61.8089 27.6886 61.7853 27.6414 61.7428L26.5186 60.6667C26.4243 60.577 26.4243 60.4307 26.5139 60.341L33.8263 52.7044C33.8263 52.7044 33.8593 52.6761 33.8782 52.6619L37.289 50.741C37.3787 50.6891 37.4966 50.7079 37.5674 50.7787C37.6429 50.8543 37.6523 50.9675 37.6004 51.0572L35.6614 54.3139C35.6614 54.3139 35.6379 54.3469 35.6237 54.3611L27.9622 61.7428C27.9198 61.7853 27.8584 61.8089 27.8018 61.8089ZM27.0045 60.492L27.8018 61.2566L35.2793 54.0543L36.7559 51.5717L34.1329 53.049L27.0045 60.4968V60.492Z"
    fill="#334A52" />
  <g opacity="0.13">
    <path
      d="M28.5469 58.6089C28.5469 58.7788 28.6554 58.9346 28.8111 58.9912C28.8158 59.0007 28.8205 59.0101 28.8252 59.0148C28.9762 59.2414 28.9337 59.3924 29.113 59.7558C29.3489 60.1145 29.9339 59.8408 29.8254 59.4255C29.7216 59.062 29.6225 58.675 29.3583 58.3965C29.08 58.1134 28.5799 58.1511 28.5469 58.6042V58.6089Z"
      fill="#334A52" />
  </g>
  <path
    d="M27.3716 60.9641C27.3103 60.9641 27.2489 60.9405 27.2018 60.8933L16.0351 49.1127C15.9454 49.0183 15.9502 48.872 16.0445 48.7871C16.1389 48.6974 16.2851 48.7021 16.37 48.7965L27.5367 60.5771C27.6264 60.6715 27.6216 60.8178 27.5273 60.9027C27.4848 60.9452 27.4235 60.9641 27.3669 60.9641H27.3716Z"
    fill="#334A52" />
  <path
    d="M27.2818 63.0596C27.1922 63.0596 27.0978 63.0549 27.0082 63.0407C26.3807 62.9558 25.7957 62.5829 25.4042 62.0118C25.0126 61.4407 24.8711 60.7564 25.0173 60.1381C25.2485 59.1753 26.1307 58.4106 27.1167 58.3163C27.7394 58.2596 28.3857 58.5003 28.8952 58.9723C29.4142 59.4584 29.7067 60.1098 29.6925 60.7517C29.6784 61.3841 29.367 62.0071 28.8386 62.4602C28.3857 62.8472 27.8338 63.0596 27.2912 63.0596H27.2818ZM27.2912 58.7694C27.244 58.7694 27.1969 58.7694 27.1497 58.7741C26.3571 58.8449 25.6448 59.4632 25.4608 60.2419C25.3428 60.7328 25.4608 61.2803 25.7816 61.7475C26.1024 62.2101 26.5694 62.5168 27.0695 62.5829C27.5696 62.649 28.1027 62.4791 28.532 62.1109C28.9613 61.7428 29.2113 61.2472 29.2207 60.7422C29.2302 60.2372 28.9896 59.6991 28.5697 59.3121C28.197 58.9629 27.7394 58.7694 27.2912 58.7694Z"
    fill="#334A52" />
  <path
    d="M27.5515 45.4833C27.4241 45.4833 27.3203 45.3795 27.3203 45.252V42.5665C27.3203 42.439 27.4241 42.3352 27.5515 42.3352C27.6789 42.3352 27.7826 42.439 27.7826 42.5665V45.252C27.7826 45.3795 27.6789 45.4833 27.5515 45.4833Z"
    fill="#334A52" />
  <path
    d="M27.5515 76.6337C27.4241 76.6337 27.3203 76.5298 27.3203 76.4024V73.7169C27.3203 73.5894 27.4241 73.4856 27.5515 73.4856C27.6789 73.4856 27.7826 73.5894 27.7826 73.7169V76.4024C27.7826 76.5298 27.6789 76.6337 27.5515 76.6337Z"
    fill="#334A52" />
  <path
    d="M44.4643 59.7135H41.78C41.6526 59.7135 41.5488 59.6097 41.5488 59.4822C41.5488 59.3548 41.6526 59.251 41.78 59.251H44.4643C44.5917 59.251 44.6955 59.3548 44.6955 59.4822C44.6955 59.6097 44.5917 59.7135 44.4643 59.7135Z"
    fill="#334A52" />
  <path
    d="M13.3276 59.7135H10.6433C10.5159 59.7135 10.4121 59.6097 10.4121 59.4822C10.4121 59.3548 10.5159 59.251 10.6433 59.251H13.3276C13.455 59.251 13.5588 59.3548 13.5588 59.4822C13.5588 59.6097 13.455 59.7135 13.3276 59.7135Z"
    fill="#334A52" />
  <g opacity="0.13">
    <path
      d="M42.344 71.6166C42.3958 71.5552 42.4477 71.4891 42.4949 71.4278C42.8393 70.9511 43.1648 70.4555 43.4573 69.9316C43.7734 69.37 44.047 68.7894 44.3348 68.2136C44.448 67.9871 44.5612 67.7558 44.665 67.5198C44.3065 68.0579 44.4386 67.9068 43.9149 68.426C43.5092 68.7941 43.061 69.1151 42.6742 69.5068C42.2543 69.9646 41.8439 70.4272 41.3816 70.8472C40.8013 71.4042 40.1455 71.8714 39.5558 72.4189C39.0416 72.9051 38.8246 73.1646 38.5745 73.3204C37.6027 74.0567 36.5318 74.6514 35.442 75.1942C34.0362 75.921 32.8709 76.3222 30.9791 76.7422C29.3563 77.0821 28.8373 77.2284 27.205 77.1576C26.6625 77.134 26.1152 77.1198 25.5774 77.0679C25.4595 77.0585 25.3368 77.0396 25.2189 77.0254C25.1859 77.0254 25.1576 77.016 25.1245 77.0113C24.0064 76.7989 22.8978 76.5063 21.8269 76.1287C20.8598 75.8077 20.7182 75.6614 19.6002 75.1706C18.9774 74.8827 18.3264 74.6467 17.7603 74.2502C17.331 73.9576 17.2744 73.849 16.5761 73.2921C15.4581 72.4472 15.0759 72.1829 14.123 71.4183C13.3115 70.8048 13.2738 70.8472 12.5237 70.1912C11.7264 69.4832 11.0518 68.6903 10.7121 68.1853C10.4385 67.7888 10.1884 67.3735 9.8818 67.0006C9.76858 66.8685 9.66951 66.6986 9.49023 66.6514C9.8016 67.3688 10.1413 68.0767 10.5234 68.7611C10.948 69.5257 11.415 70.2667 11.8491 71.0219C12.401 71.6826 12.9719 72.3198 13.5663 72.9428C14.1513 73.4054 15.2033 74.2266 15.5194 74.5239C16.1091 75.0998 16.7224 75.6661 17.4489 76.0626C17.8358 76.2703 18.2509 76.426 18.6519 76.6006C20.1663 77.2425 20.0436 77.2331 21.624 77.8467C23.1856 78.3847 24.8084 78.8142 26.4691 78.8331C28.3278 78.9181 29.0496 78.8473 30.847 78.4508C31.6207 78.2667 32.4086 78.1299 33.1728 77.9033C33.8475 77.7051 34.8051 77.2709 34.8618 77.252C36.7771 76.4166 38.6689 75.2602 39.8247 74.203C40.2399 73.8065 40.6456 73.4006 41.0796 73.0231C41.5184 72.57 41.9429 72.1027 42.3487 71.6213L42.344 71.6166Z"
      fill="#334A52" />
  </g>
</svg>