<svg viewBox="0 0 104 93" fill="none" xmlns="http://www.w3.org/2000/svg">
  <path
    d="M77.3621 79.3646C65.438 85.3955 42.9543 94.355 31.3349 87.5727C19.7218 80.784 1.09006 41.7988 12.6333 35.0487C24.1766 28.2985 68.922 -3.85304 80.5351 2.93565C92.1482 9.72435 105.284 65.2349 77.3621 79.3646Z"
    fill="#B3EAFE" />
  <path
    d="M44.6733 80.9124C41.1423 80.9124 37.4512 80.8247 33.3328 80.5907C33.1844 80.5848 33.0657 80.4619 33.0598 80.3157C32.7097 71.7216 33.1666 60.9161 39.8605 53.5739C40.5786 52.7841 41.3916 52.0236 42.1749 51.2923C44.335 49.2681 46.5723 47.1737 47.1657 44.2485C47.6048 42.0839 45.6109 40.089 43.6822 38.1584C42.8514 37.3276 42.0681 36.5437 41.4925 35.7597C41.1364 35.2742 40.721 34.771 40.2759 34.2445C37.5283 30.9332 33.3743 25.9371 32.8105 11.165C32.8105 11.089 32.8343 11.0129 32.8877 10.9603C32.9411 10.9018 33.0123 10.8725 33.0895 10.8725C43.7712 10.6034 67.651 10.8082 68.642 11.0948C68.7726 11.1299 68.8556 11.2528 68.8497 11.3815C68.5174 18.4428 67.6866 26.4577 64.0488 32.3549C62.9925 34.0631 61.2597 35.9703 59.7346 37.6552C59.4497 37.9712 59.1649 38.2812 58.9038 38.5796C57.3905 40.2645 55.6814 42.1775 56.1503 44.4123C56.5775 46.4424 58.346 48.3204 60.3874 50.5025C62.9925 53.2814 66.2327 56.7389 68.0783 61.934C70.5766 68.9719 70.4223 72.3417 69.7873 79.953C69.7755 80.0992 69.6508 80.2104 69.5025 80.2162C65.841 80.304 62.5356 80.4327 59.337 80.5497C54.2869 80.7369 49.6403 80.9124 44.6673 80.9124H44.6733ZM33.6295 80.0349C43.3915 80.5731 50.7797 80.2981 59.3192 79.9764C62.4406 79.8594 65.6689 79.7365 69.2295 79.6488C69.8348 72.3008 69.9594 68.9661 67.5323 62.1212C65.7283 57.0432 62.5356 53.6324 59.966 50.8945C57.8653 48.6538 56.0494 46.7174 55.5865 44.5293C55.0524 42.0137 56.8683 39.9895 58.4706 38.1993C58.7376 37.9009 59.0165 37.5909 59.3073 37.275C60.8146 35.6076 62.5297 33.7238 63.5563 32.0565C67.0813 26.3407 67.924 18.5423 68.2622 11.6155C65.7105 11.3873 44.1332 11.1826 33.404 11.4342C34.0033 25.785 38.0446 30.6524 40.7269 33.8759C41.172 34.4142 41.5934 34.9173 41.9613 35.4204C42.5132 36.1693 43.2787 36.9415 44.0976 37.7547C46.0382 39.697 48.2398 41.8967 47.7354 44.3597C47.1063 47.4662 44.8038 49.625 42.5725 51.7077C41.7951 52.4331 40.994 53.1878 40.2878 53.96C33.8016 61.0682 33.2972 71.587 33.6235 80.0349H33.6295Z"
    fill="#334A52" />
  <path d="M73.7094 78.6716H29.291V83.5917H73.7094V78.6716Z" fill="#FDB932" />
  <path
    d="M73.7092 83.8784H29.2908C29.1306 83.8784 29 83.7497 29 83.5918V78.6717C29 78.5137 29.1306 78.385 29.2908 78.385H73.7092C73.8694 78.385 74 78.5137 74 78.6717V83.5918C74 83.7497 73.8694 83.8784 73.7092 83.8784ZM29.5816 83.3051H73.4184V78.9583H29.5816V83.3051Z"
    fill="#334A52" />
  <path d="M72.6175 8.57324H29.291V13.4934H72.6175V8.57324Z" fill="#FDB932" />
  <path
    d="M72.6173 13.7801H29.2908C29.1306 13.7801 29 13.6514 29 13.4934V8.57329C29 8.41533 29.1306 8.28662 29.2908 8.28662H72.6173C72.7775 8.28662 72.9081 8.41533 72.9081 8.57329V13.4934C72.9081 13.6514 72.7775 13.7801 72.6173 13.7801ZM29.5816 13.2067H72.3265V8.85995H29.5816V13.2067Z"
    fill="#334A52" />
  <path
    d="M52.1914 37.8542C52.1558 37.8542 52.1262 37.8542 52.0905 37.8367C46.7971 35.9587 42.8567 32.2262 40.7026 27.0487C40.667 26.9668 40.6729 26.8674 40.7204 26.7913C40.7679 26.7152 40.8509 26.6626 40.94 26.6509C42.4829 26.4988 44.0377 26.6158 45.5509 26.9902C45.818 27.0546 46.085 27.1306 46.3521 27.2067C47.0582 27.4056 47.7229 27.5928 48.4053 27.6279C49.6931 27.7039 50.9215 27.2652 52.227 26.7972C52.6424 26.6509 53.0697 26.4988 53.497 26.3642C55.9419 25.6037 58.553 25.4516 61.0514 25.9196C61.1404 25.9372 61.2175 25.9957 61.2591 26.0776C61.3006 26.1595 61.3006 26.2531 61.2591 26.335C59.0159 30.7169 55.9479 34.6717 52.3873 37.7782C52.3339 37.825 52.2626 37.8484 52.1974 37.8484L52.1914 37.8542ZM41.3969 27.195C43.4976 31.9805 47.1947 35.4498 52.1262 37.24C55.485 34.2797 58.3928 30.5472 60.5588 26.4227C58.2682 26.0542 55.8945 26.2238 53.6691 26.9142C53.2537 27.0429 52.8323 27.195 52.4229 27.3412C51.1233 27.8034 49.7762 28.289 48.3697 28.2012C47.622 28.1603 46.8921 27.9555 46.1918 27.7566C45.9307 27.6864 45.6696 27.6103 45.4085 27.546C44.0911 27.2184 42.7381 27.1014 41.3969 27.1891V27.195Z"
    fill="#334A52" />
  <path
    d="M36.5782 75.2492C36.4832 75.2492 36.4001 75.2083 36.3408 75.1322C36.2814 75.0561 36.2696 74.9508 36.3052 74.8631C37.9965 70.4344 40.7322 67.5619 43.1831 65.3329C43.8893 64.6952 44.6192 64.0634 45.3313 63.4491C47.349 61.7057 49.4438 59.9038 51.4199 57.5111C51.4733 57.4409 51.5564 57.4058 51.6514 57.4058C51.7404 57.4058 51.8234 57.4467 51.8769 57.5169C53.4495 59.5411 55.5324 61.0271 57.5501 62.4663C58.4343 63.0981 59.3541 63.7533 60.2205 64.4495C64.0066 67.48 65.7572 70.8849 65.4249 74.5706C65.4131 74.7285 65.2706 74.8455 65.1104 74.8338C57.5026 74.2664 49.7464 74.6349 42.2514 74.9859L36.59 75.2492H36.5782ZM51.6454 58.1488C49.7049 60.4421 47.6813 62.1855 45.717 63.8821C44.9752 64.5197 44.2809 65.1223 43.5807 65.7542C41.2544 67.8661 38.673 70.5631 37.0114 74.6525L42.2276 74.4068C49.6456 74.0616 57.3186 73.6989 64.8671 74.2371C65.0689 70.8556 63.3835 67.714 59.8526 64.8883C58.9981 64.2038 58.0901 63.5544 57.2059 62.9285C55.2535 61.5302 53.2358 60.0911 51.6395 58.1488H51.6454Z"
    fill="#334A52" />
  <path
    d="M51.7157 45.5532C51.5614 45.5532 51.4309 45.4303 51.425 45.2724L51.3359 42.3882C51.3359 42.2302 51.4546 42.0957 51.6149 42.0957C51.7751 42.0898 51.9116 42.2127 51.9116 42.3706L52.0006 45.2548C52.0006 45.4128 51.8819 45.5473 51.7217 45.5473H51.7098L51.7157 45.5532Z"
    fill="#334A52" />
  <path
    d="M51.722 51.8189C51.5677 51.8189 51.4372 51.696 51.4312 51.5439L51.3244 48.8118C51.3185 48.6538 51.4431 48.5193 51.6033 48.5134C51.7636 48.5017 51.9001 48.6304 51.906 48.7884L52.0128 51.5205C52.0187 51.6785 51.8941 51.813 51.7339 51.8189H51.722Z"
    fill="#334A52" />
  <path
    d="M43.005 72.9736C42.9693 72.9736 42.9337 72.956 42.9159 72.9209L41.3493 69.9022C41.3255 69.8554 41.3493 69.7969 41.3908 69.7735C41.4383 69.7501 41.4976 69.7735 41.5214 69.8144L43.088 72.8332C43.1118 72.88 43.088 72.9385 43.0465 72.9619C43.0346 72.9677 43.0168 72.9736 43.005 72.9736Z"
    fill="#334A52" />
  <path
    d="M46.4829 72.5407C46.4473 72.5407 46.4177 72.5232 46.3999 72.4939C45.5216 70.9728 44.7264 69.3698 44.0321 67.7435C44.0143 67.6966 44.0321 67.6381 44.0855 67.6206C44.133 67.603 44.1923 67.6206 44.2101 67.6732C44.8985 69.2938 45.6937 70.8851 46.566 72.4061C46.5898 72.4529 46.5779 72.5114 46.5304 72.5349C46.5126 72.5407 46.5007 72.5466 46.4829 72.5466V72.5407Z"
    fill="#334A52" />
  <path
    d="M49.5683 72.4761C49.5327 72.4761 49.5031 72.4586 49.4852 72.4293C48.2153 70.2355 47.0403 67.948 45.9781 65.6254C45.9543 65.5786 45.9781 65.5201 46.0255 65.4967C46.073 65.4733 46.1324 65.4967 46.1561 65.5435C47.2124 67.8603 48.3874 70.1419 49.6514 72.3299C49.6751 72.3767 49.6633 72.4352 49.6158 72.4586C49.598 72.4644 49.5861 72.4703 49.5683 72.4703V72.4761Z"
    fill="#334A52" />
  <path
    d="M52.4519 72.2364C52.4163 72.2364 52.3807 72.2188 52.3689 72.1837C50.9328 69.475 49.5263 66.6961 48.1792 63.9348C48.1555 63.888 48.1792 63.8295 48.2267 63.8061C48.2742 63.7827 48.3335 63.8061 48.3573 63.8529C49.7044 66.6142 51.1108 69.3872 52.5469 72.0959C52.5706 72.1427 52.5528 72.2012 52.5054 72.2246C52.4935 72.2305 52.4757 72.2364 52.4579 72.2364H52.4519Z"
    fill="#334A52" />
  <path
    d="M55.7819 72.4237C55.7463 72.4237 55.7107 72.4061 55.6929 72.371L50.2926 61.899C50.2689 61.8522 50.2926 61.7937 50.3342 61.7703C50.3816 61.7469 50.441 61.7703 50.4647 61.8112L55.865 72.2833C55.8887 72.3301 55.865 72.3886 55.8234 72.412C55.8116 72.4178 55.7938 72.4237 55.7819 72.4237Z"
    fill="#334A52" />
  <path
    d="M58.8441 72.529C58.8085 72.529 58.7729 72.5115 58.761 72.4764C56.8917 68.9896 55.0342 65.4326 53.2243 61.9107C53.2005 61.8639 53.2243 61.8054 53.2658 61.782C53.3133 61.7586 53.3726 61.782 53.3964 61.823C55.2004 65.3448 57.0638 68.9018 58.9272 72.3886C58.9509 72.4354 58.9331 72.4939 58.8856 72.5173C58.8738 72.5232 58.8559 72.529 58.8381 72.529H58.8441Z"
    fill="#334A52" />
  <path
    d="M62.0358 72.8683C62.0002 72.8683 61.9646 72.8507 61.9468 72.8156L58.1726 65.6431C58.1488 65.5963 58.1666 65.5378 58.2141 65.5144C58.2616 65.491 58.3209 65.5144 58.3447 65.5554L62.1189 72.7279C62.1426 72.7747 62.1248 72.8332 62.0774 72.8566C62.0655 72.8624 62.0477 72.8683 62.0358 72.8683Z"
    fill="#334A52" />
  <path
    d="M62.8671 70.9668C62.8315 70.9668 62.7899 70.9434 62.7781 70.9083C62.4517 70.1185 62.0719 69.3404 61.6505 68.6033C61.6268 68.5565 61.6387 68.498 61.6861 68.4746C61.7336 68.4512 61.793 68.4629 61.8167 68.5097C62.244 69.2527 62.6297 70.0366 62.9561 70.8323C62.9739 70.8791 62.9561 70.9376 62.9027 70.9551C62.8908 70.9551 62.8789 70.961 62.8671 70.961V70.9668Z"
    fill="#334A52" />
  <path
    d="M45.2774 31.2725C45.2418 31.2725 45.2062 31.2491 45.1884 31.214L43.9897 28.4293C43.9659 28.3825 43.9897 28.324 44.0431 28.3064C44.0906 28.283 44.1499 28.3064 44.1677 28.3591L45.3664 31.1438C45.3902 31.1906 45.3664 31.2491 45.313 31.2667C45.3012 31.2667 45.2893 31.2725 45.2774 31.2725Z"
    fill="#334A52" />
  <path
    d="M48.6063 34.4725C48.5707 34.4725 48.5351 34.455 48.5172 34.4199C47.6093 32.6824 46.82 30.8629 46.1732 28.9967C46.1554 28.944 46.1851 28.8914 46.2325 28.8738C46.2859 28.8562 46.3394 28.8855 46.3572 28.9323C47.004 30.7869 47.7873 32.6004 48.6953 34.3321C48.719 34.3789 48.6953 34.4374 48.6537 34.4608C48.6419 34.4667 48.6241 34.4725 48.6122 34.4725H48.6063Z"
    fill="#334A52" />
  <path
    d="M51.3548 35.982C51.3192 35.982 51.2836 35.9645 51.2658 35.9294C50.2273 33.8759 49.3194 31.7171 48.5716 29.5233C48.5538 29.4706 48.5835 29.418 48.631 29.4004C48.6844 29.3829 48.7378 29.4121 48.7556 29.4589C49.4974 31.6469 50.4053 33.794 51.4379 35.8416C51.4616 35.8884 51.4379 35.9469 51.3964 35.9703C51.3845 35.9762 51.3667 35.982 51.3548 35.982Z"
    fill="#334A52" />
  <path
    d="M52.8979 34.7594C52.8623 34.7594 52.8267 34.7418 52.8089 34.7067C51.99 32.9926 51.2244 31.2258 50.5301 29.4473C50.5123 29.4005 50.5301 29.342 50.5835 29.3245C50.631 29.3069 50.6903 29.3245 50.7081 29.3771C51.3965 31.1497 52.1621 32.9107 52.981 34.619C53.0047 34.6658 52.981 34.7243 52.9335 34.7477C52.9216 34.7535 52.9038 34.7594 52.892 34.7594H52.8979Z"
    fill="#334A52" />
  <path
    d="M54.5408 32.7877C54.5052 32.7877 54.4755 32.7701 54.4577 32.7409C53.6981 31.4597 53.0216 30.1082 52.4578 28.7217C52.44 28.6749 52.4578 28.6164 52.5113 28.5989C52.5587 28.5813 52.6181 28.5989 52.6359 28.6515C53.1996 30.0322 53.8643 31.3778 54.6239 32.6473C54.6535 32.6941 54.6357 32.7526 54.5883 32.776C54.5705 32.7877 54.5586 32.7877 54.5408 32.7877Z"
    fill="#334A52" />
  <path
    d="M56.108 30.8863C56.0724 30.8863 56.0368 30.8687 56.0249 30.8336C55.5501 29.9385 55.1169 29.0083 54.7371 28.0664C54.7193 28.0196 54.7371 27.9611 54.7906 27.9436C54.838 27.926 54.8974 27.9436 54.9152 27.9962C55.295 28.9323 55.7222 29.8566 56.197 30.7459C56.2207 30.7927 56.2029 30.8512 56.1554 30.8746C56.1436 30.8804 56.1258 30.8863 56.108 30.8863Z"
    fill="#334A52" />
  <path
    d="M57.6324 29.1137C57.5968 29.1137 57.5612 29.0903 57.5434 29.0552L56.855 27.5283C56.8313 27.4815 56.855 27.423 56.9025 27.3996C56.95 27.3762 57.0093 27.3996 57.033 27.4464L57.7214 28.9733C57.7452 29.0201 57.7214 29.0786 57.674 29.102C57.6621 29.102 57.6502 29.1079 57.6324 29.1079V29.1137Z"
    fill="#334A52" />
  <g opacity="0.13">
    <path
      d="M58.8193 25.937C57.7927 27.4756 56.6414 29.0435 55.0332 30.9039C54.511 31.524 54.0422 32.191 53.5259 32.8111C53.0274 33.4137 52.4874 33.9812 51.9652 34.5545C51.7753 34.7827 51.5023 34.964 51.4192 35.2682C51.0632 36.0171 51.6863 36.9707 52.4518 36.9473C53.0512 36.9473 53.4191 36.4149 53.8226 36.0171C54.7543 35.1161 55.5911 34.1157 56.41 33.0978C57.5613 31.7931 58.5642 30.354 59.5196 28.8797C59.846 28.3883 60.1664 27.8968 60.4691 27.3937C60.6056 27.1656 60.7836 26.9432 60.7836 26.6624C60.9794 25.4514 59.3831 24.8722 58.8193 25.937Z"
      fill="#334A52" />
  </g>
  <g opacity="0.13">
    <path
      d="M64.3754 71.4291C64.1261 70.8031 63.871 70.183 63.6039 69.5629C62.2331 66.3218 59.6338 63.9875 56.9693 61.9809C55.5332 60.9103 55.3137 60.7874 54.2514 59.7987C53.7589 59.4009 53.3909 58.7808 52.8272 58.4941C51.6403 57.9091 50.5662 59.6232 51.4979 60.6002C54.827 64.3386 56.7201 64.672 59.8712 68.6795C60.4647 69.5453 60.9631 70.4931 61.3667 71.4759C61.4676 71.7099 61.7999 72.529 61.8948 72.7513V72.7689C62.0313 73.1959 62.2271 73.6171 62.6069 73.8395C63.2419 74.2548 64.1439 73.9974 64.5059 73.3071C64.8561 72.6869 64.6365 72.02 64.3635 71.4233L64.3754 71.4291Z"
      fill="#334A52" />
  </g>
  <g opacity="0.13">
    <path
      d="M66.9203 72.371C66.9796 74.1729 66.8313 75.9807 66.8431 77.7826C66.8253 78.0985 66.8609 78.3617 66.9262 78.584C67.4128 78.584 67.9054 78.584 68.392 78.5489C68.659 78.5314 68.9261 78.4904 69.1991 78.4904C69.2703 78.4904 69.3355 78.4904 69.4068 78.4904C69.5254 77.7123 69.4542 76.9226 69.4542 76.1328C69.472 74.1495 69.5907 72.1546 69.4542 70.1772C69.11 67.3105 68.3801 64.397 67.3238 61.741C66.7304 60.4364 66.1429 59.1201 65.4367 57.874C64.4516 56.1891 63.2469 54.6621 61.9829 53.2054C60.0424 50.8594 58.5885 49.7947 57.4254 47.1503L57.4016 47.0977C57.188 46.5419 56.9862 45.9803 56.8201 45.4069C56.6124 44.8687 56.642 44.2193 56.3512 43.7279C56.2919 43.6343 56.2207 43.5641 56.1435 43.5114C56.1554 43.412 56.191 43.2131 56.2207 43.0902C56.5352 41.9202 56.5708 41.809 56.915 41.1421C57.817 39.5215 58.4045 39.0652 59.6685 37.4505C61.5616 35.0578 62.8612 33.5016 64.5525 30.5764C65.496 28.716 66.1607 26.7094 66.7779 24.7027C67.1933 22.9769 67.484 21.2218 67.757 19.4608C67.9588 18.0802 68.1427 16.6936 68.303 15.3071C68.303 14.9561 68.4039 15.0848 68.3742 14.4354C68.3682 14.2892 68.3267 14.1488 68.2496 14.02C67.8223 13.1835 66.5464 13.3531 66.3387 14.2892C65.947 17.3664 65.4723 20.432 64.7068 23.4332C64.3566 24.9367 63.2054 27.78 63.0748 28.1895C62.3034 30.085 61.1343 31.7582 60.0187 33.4314C59.9415 33.5718 58.2384 35.8651 57.093 37.2575C55.562 39.0945 54.1733 41.2883 54.0606 43.8215C54.0369 44.6698 54.2268 45.4947 54.5294 46.2728C54.7134 46.7233 54.8024 47.2322 55.0635 47.6359C55.1644 47.788 55.289 47.8875 55.4255 47.9518C55.7341 48.6071 56.102 49.2272 56.5233 49.8064C57.6509 51.9125 59.6507 54.2 60.0365 54.7908C61.2471 56.4816 61.7811 57.1544 63.0096 59.2956C63.7217 60.5592 64.321 61.8873 64.9204 63.2094C64.9441 63.2621 64.9619 63.3147 64.9857 63.3674L65.0094 63.4376C65.7571 65.532 66.2438 67.7317 66.671 69.9197C66.8787 71.3472 66.855 70.3936 66.9262 72.371H66.9203Z"
      fill="#334A52" />
  </g>
  <g opacity="0.13">
    <path
      d="M73.4901 79.2217C73.2705 78.584 72.6118 78.467 72.143 78.7244C72.1015 78.6249 72.0421 78.5372 71.965 78.4553C71.4072 77.8176 70.3212 78.2973 70.3509 79.169C70.3034 80.0056 70.2678 80.8422 70.1966 81.6788C70.2084 82.0766 70.1194 82.5095 70.2737 82.8781C70.4933 83.469 71.057 83.6094 71.5021 83.4222C71.514 83.4456 71.5199 83.469 71.5318 83.4865C71.9353 84.2822 73.1519 84.1184 73.3477 83.235C73.4842 82.3633 73.5079 81.474 73.5376 80.5848C73.5257 80.1343 73.6681 79.6429 73.4961 79.2217H73.4901Z"
      fill="#334A52" />
  </g>
  <g opacity="0.13">
    <path
      d="M71.6858 8.26915C71.1695 7.78943 70.1963 7.94153 69.9886 8.80153C69.7749 9.70833 69.7334 10.6502 69.6978 11.5804C69.7096 12.0426 69.591 12.5516 69.769 12.9845C69.8936 13.3706 70.2556 13.6105 70.6295 13.6456C70.7303 13.7977 70.8668 13.9264 71.0686 14.0083C71.5196 14.2482 72.1012 14.0083 72.3504 13.5578C72.5403 13.2185 72.481 12.8148 72.5462 12.4404C72.5581 12.2415 72.6353 11.5336 72.6412 11.4283C72.6709 11.2002 72.7065 10.9661 72.7599 10.7438C72.7896 10.621 72.8311 10.4981 72.8726 10.3753C72.926 10.2524 73.0091 10.071 73.0744 9.98329C73.1931 9.77268 73.3474 9.56792 73.3474 9.31636C73.5135 8.2867 72.3623 7.72507 71.6917 8.26915H71.6858Z"
      fill="#334A52" />
  </g>
</svg>