<svg viewBox="0 0 104 93" fill="none" xmlns="http://www.w3.org/2000/svg">
  <path
    d="M91.7645 44.0448C90.3236 42.6796 88.6639 41.5858 86.8685 40.7411C94.3219 32.3007 94.1635 18.8746 87.1325 10.0646C80.5618 1.83547 66.3263 0.0478367 53.4941 4.0455C28.8782 11.724 27.8598 13.6776 23.092 25.8441C20.9269 31.3805 19.9462 39.7077 20.4064 45.6061C15.8574 47.4541 4.51129 56.9882 9.05274 70.9046C12.7191 82.1207 25.7701 86.9631 36.8446 89.5352C48.4321 92.228 60.8721 91.1871 71.8485 86.586C82.4402 82.1508 93.8919 73.5974 96.487 61.7627C97.86 55.5023 96.5398 48.5629 91.7645 44.0448Z"
    fill="#B3EAFE" />
  <path
    d="M42.3364 41.8997C42.3364 41.8997 40.8704 40.9246 35.7818 41.3127C30.6933 41.7009 30.3055 41.3127 29.4258 43.6607C28.5462 46.0086 27.1748 65.7959 29.038 69.7155C30.9013 73.635 33.247 74.1273 35.9804 73.9285C38.7234 73.7297 43.4147 71.1829 43.4147 71.1829C43.4147 71.1829 42.8283 68.5415 42.3364 62.3686C41.8446 56.1958 41.75 50.3259 42.0432 47.8738C42.3364 45.4217 42.3364 41.8997 42.3364 41.8997Z"
    fill="#FDB932" />
  <path
    d="M92.4196 56.5084C92.4669 55.4101 92.0602 54.3782 91.2373 53.6492C90.632 53.1095 89.9226 52.8634 89.2038 52.6172C91.0009 51.3012 92.6088 49.4645 92.4575 47.1544C92.2967 44.7402 90.3483 43.0455 88.0972 42.7804C89.2133 41.8999 90.4712 41.1614 91.1806 39.9023C91.8238 38.7662 92.2305 37.3555 92.0697 36.049C91.8048 33.9093 90.0078 32.669 88.0972 32.0442C85.7799 31.2773 83.2356 31.2489 80.8143 31.3814C78.8659 31.4951 76.9175 31.7507 75.0163 32.1862C73.2666 32.5838 71.5641 33.1613 69.8143 33.5211C70.8169 31.3814 71.129 28.8441 71.3749 26.553C71.6681 23.7884 71.7059 20.9576 71.4695 18.1836C71.2898 16.1102 70.8358 14.0841 69.9845 12.1812C69.3981 10.8746 68.4617 9.26516 66.9011 9.02848C63.6947 8.5551 63.515 14.1126 62.9475 16.1292C61.491 21.2985 59.3156 26.0891 56.147 30.4347C54.4067 32.811 52.4299 35.017 50.2545 37.0052C48.8641 38.2738 47.3792 39.3531 45.8658 40.4135C45.7334 39.9022 45.4875 39.4099 45.1659 39.0502C45.147 38.8892 45.0619 38.7377 44.8916 38.6904C44.7781 38.662 44.6646 38.6431 44.5606 38.6147C44.466 38.5863 44.3809 38.5579 44.2768 38.5579C42.0636 38.0466 39.7558 37.8194 37.4952 37.8005C35.4806 37.7815 33.2201 37.7247 31.5081 38.965C31.4797 38.9839 31.4703 39.0028 31.4419 39.0218C31.423 39.0218 31.4135 39.0028 31.3946 39.0028C30.1367 38.6525 28.8314 38.6809 27.5356 38.6147C26.2398 38.5484 24.9535 38.5295 23.6577 38.5011C22.3714 38.4726 21.0851 38.4348 19.8082 38.4442C19.1556 38.4442 18.4935 38.4537 17.8409 38.52C17.2544 38.5768 16.6113 38.5579 16.1951 39.0312C15.9586 39.2963 15.9303 39.7129 16.1951 39.9685C16.6586 40.4135 17.245 40.3756 17.8409 40.404C18.4935 40.4419 19.1556 40.4419 19.8082 40.4419C21.0945 40.4514 22.3808 40.4608 23.6577 40.4892C24.9535 40.5177 26.2398 40.565 27.5356 40.5555C28.368 40.5555 29.1908 40.565 30.0137 40.4987C28.4625 42.6289 27.8288 45.6207 27.5262 48.0444C27.3086 49.7959 27.2802 51.5568 27.1762 53.3178C27.0154 56.2812 26.6371 59.2351 26.7411 62.2079C26.8168 64.4138 27.1478 66.6576 27.7342 68.7878C27.9612 69.6304 28.2545 70.4825 28.699 71.2494C28.7557 71.4198 28.822 71.5997 28.8976 71.7701C28.576 71.7322 28.2544 71.7038 27.9423 71.6849C26.7127 71.6186 25.4643 71.666 24.2252 71.6565C23.0051 71.6565 21.7755 71.6471 20.5554 71.6755C19.3163 71.7039 17.8787 71.6186 16.6869 71.9689C15.5992 72.2908 15.8924 73.7678 16.9423 73.8625C17.6422 73.9287 18.38 73.8625 19.1177 73.8057C21.0188 73.8909 22.9389 73.853 24.8305 73.9003C26.0318 73.9287 27.233 73.9571 28.4342 73.9855C29.049 73.995 29.6732 73.9855 30.288 73.9855H30.392C31.9243 75.2258 34.1754 75.1027 36.0481 74.7903C38.914 74.298 41.7231 73.1808 44.4565 72.2246C45.3929 71.9027 46.3671 71.505 47.0197 70.7287C47.2846 70.4163 47.5305 69.9618 47.6629 69.4884C48.5804 69.5168 49.4978 69.5452 50.4058 69.621C52.7609 69.8103 55.0499 70.3594 57.3861 70.6435C61.8504 71.1926 66.3431 71.2494 70.8263 71.5808C74.865 71.8743 78.9321 72.3098 82.9613 71.7228C85.988 71.2778 89.2133 70.3594 90.7739 67.5097C92.0035 65.2659 91.994 62.009 89.6294 60.7404C91.0198 59.6327 92.3345 58.4114 92.4102 56.5084H92.4196ZM43.6337 40.9531C43.7661 40.4608 43.9552 39.5141 44.5795 40.1958C44.7497 40.3851 44.8443 40.7449 44.9295 41.0668C44.4187 41.4265 43.8985 41.7863 43.3878 42.165C43.454 41.7579 43.5296 41.3413 43.6337 40.9531ZM29.0489 55.3155C29.1624 53.4977 29.1719 51.6704 29.2854 49.8527C29.4746 47.0029 29.6827 43.0834 31.6122 40.8111C33.1066 39.0407 35.5846 39.1922 37.6938 39.2111C39.3963 39.2206 41.1083 39.5519 42.8108 39.5898C42.4041 40.2904 42.2338 41.1993 42.1014 41.9472C41.8082 43.4999 41.5528 45.0621 41.392 46.6432C40.9853 50.8184 41.0705 55.0977 41.1745 59.2918C41.2218 61.3652 41.3448 63.4386 41.6096 65.5026C41.7987 67.0079 41.9595 68.6458 42.4703 70.0849C42.5649 70.3405 42.6784 70.6056 42.8297 70.8423C41.3448 71.1358 39.8693 71.7796 38.4789 72.2056C36.5021 72.8116 33.8065 73.711 31.9432 72.3666C30.742 71.4956 30.0988 69.9902 29.7394 68.589C29.257 66.686 28.9165 64.6884 28.822 62.7286C28.699 60.2575 28.8976 57.7865 29.0489 55.3249V55.3155ZM44.797 70.0944C44.2485 70.3784 44.0404 69.8103 43.9363 69.3086C44.3903 69.3464 44.8443 69.3938 45.3078 69.4127C45.1848 69.7157 45.024 69.9807 44.797 70.0944ZM87.0662 60.8256C86.8298 61.2232 87.0284 61.9238 87.5391 61.9996C90.2253 62.3878 89.7146 65.6541 88.0877 66.9133C86.4704 68.163 84.2287 68.6837 82.2614 69.0529C79.4334 69.5831 76.5108 69.7819 73.6071 69.7535C73.5219 69.7535 73.4368 69.744 73.3422 69.7346C71.5357 69.602 69.7197 69.4979 67.9132 69.4032C63.5718 68.9204 59.325 67.8979 54.9742 67.4624C51.2476 67.0931 47.2184 66.3073 43.4634 66.9322C43.3121 66.0422 43.1797 65.1523 43.0851 64.2623C42.7162 60.8635 42.6973 57.4362 42.6973 54.0184C42.6973 50.6574 42.6311 47.268 43.1135 43.9354C43.1418 43.7271 43.1797 43.5094 43.208 43.2916C43.2837 43.3106 43.3783 43.3201 43.4823 43.2727C47.4359 41.6348 51.0017 38.2928 53.8676 35.1874C56.951 31.8453 59.675 28.011 61.5383 23.8452C62.4746 21.7529 63.2313 19.5659 63.9217 17.3789C64.423 15.7789 64.6784 14.1504 65.104 12.5409C65.2743 11.8877 65.4824 10.9788 66.0215 10.5243C66.7592 9.89948 67.5348 10.6948 67.951 11.3102C68.9536 12.7966 69.3414 14.7848 69.5021 16.5457C69.7575 19.3197 69.6629 22.16 69.4738 24.934C69.3697 26.3825 69.1995 27.8311 68.9157 29.2607C68.6131 30.766 68.0929 32.2146 67.7807 33.7199C67.5821 34.6572 68.8401 35.2631 69.3603 34.3827C69.3603 34.3732 69.3697 34.3637 69.3792 34.3542C72.4248 34.0797 75.3852 33.1519 78.4402 32.9341C80.8805 32.7542 83.4532 32.7258 85.865 33.2087C87.4067 33.5211 89.6956 34.1081 90.178 35.8596C90.4712 36.9105 89.9889 38.0277 89.5065 38.9366C88.712 40.4608 87.9553 41.7958 86.6122 42.894C86.2907 43.1591 86.5839 43.6325 86.9244 43.6609C89.27 43.8029 91.3225 45.9236 90.5942 48.3663C90.0551 50.1746 87.9364 50.79 87.1513 52.4373C86.9527 52.8444 87.1797 53.5356 87.7378 53.4693C89.9889 53.2042 92.0129 55.5332 90.5847 57.5782C89.6483 58.9226 87.908 59.4339 87.0473 60.8445L87.0662 60.8256Z"
    fill="#334A52" fill-opacity="0.8" />
</svg>