<svg viewBox="0 0 104 93" fill="none" xmlns="http://www.w3.org/2000/svg">
  <path
    d="M101.954 35.7337C100.282 24.1413 95.3181 11.6532 84.4783 5.89918C72.3553 -0.547652 55.7663 -1.89109 42.7568 2.76448C27.5777 8.1974 15.7333 17.3903 9.76463 28.3068C4.3194 38.277 3.50051 50.2919 7.51901 60.7437C11.5459 71.2125 19.8531 79.5435 29.7136 84.6638C39.2618 89.6235 51.7985 93.1891 60.992 85.6861C63.4994 83.6414 65.4242 81.2249 66.8932 78.5718C76.7452 78.8929 86.3018 76.4172 93.2582 68.6945C101.321 59.7467 103.634 47.4107 101.954 35.7337Z"
    fill="#B3EAFE" />
  <path
    d="M26.0597 35.3664C26.2823 35.2116 33.188 33.5374 37.4951 31.2438C41.8022 28.9575 45.1474 27.276 46.777 27.7333C48.4137 28.1905 49.0813 28.4929 49.0813 28.4929C49.0813 28.4929 43.439 32.4607 42.5488 36.045C41.6587 39.6292 41.5869 41.001 43.963 41.1559C46.3391 41.3107 48.8659 40.5437 50.3519 39.172C51.8378 37.8002 53.5463 36.3473 54.659 36.5022C55.7717 36.6571 62.0816 39.0982 62.0816 39.0982C62.0816 39.0982 64.3859 40.5511 65.7929 45.0499C67.2071 49.5487 66.6112 52.3733 66.3887 53.2141C66.1662 54.0548 63.6393 56.9532 62.8999 58.0964C62.1606 59.2395 61.1197 60.6924 60.007 60.6924C58.8943 60.6924 56.8915 59.623 56.8915 59.623C56.8915 59.623 55.0323 61.452 53.8478 61.3045C52.6562 61.1496 49.9858 58.1775 49.9858 58.1775C49.9858 58.1775 53.252 55.0505 53.1012 54.0548C52.9505 53.0592 51.4645 52.6831 50.4308 52.9117C49.3899 53.1403 48.4998 53.2952 48.4998 53.2952C48.4998 53.2952 48.6506 51.3113 46.8631 51.0827C45.0828 50.8541 42.4052 52.6093 42.4052 52.6093C42.4052 52.6093 42.4052 50.2419 40.9911 50.1682C39.5769 50.0944 37.5741 51.9234 37.5741 51.9234C37.5741 51.9234 36.9065 49.4086 34.6022 50.7803C32.2979 52.1521 31.4077 56.2747 31.4077 56.2747L25.9879 55.434C25.9879 55.434 24.2077 50.9352 24.2795 46.3553C24.3512 41.7754 26.0597 35.3664 26.0597 35.3664Z"
    fill="white" fill-opacity="0.5" />
  <path
    d="M17.7898 30.4105C17.7898 30.4105 23.7336 31.325 25.1191 32.1362C26.5046 32.9475 26.3107 33.4563 26.3107 33.4563C26.3107 33.4563 24.1356 41.0822 24.43 45.6621C24.7243 50.242 26.6051 56.2379 26.6051 56.2379C26.6051 56.2379 23.9346 58.679 21.5585 58.3767C19.1825 58.0743 17.0074 57.8678 15.5214 54.7113C14.0354 51.5547 13.8416 45.4556 14.2364 40.6765C14.6313 35.8975 17.8042 30.4031 17.8042 30.4031L17.7898 30.4105Z"
    fill="#FDB932" />
  <path
    d="M86.9041 29.2894C86.9041 29.2894 85.5186 29.1861 82.7477 30.1006C79.9768 31.0152 77.7945 32.1362 77.9955 32.645C78.1965 33.1539 80.0773 39.5628 80.1706 42.9185C80.2711 46.2741 80.0701 50.7508 79.381 52.4839C78.6846 54.2097 77.7012 55.9428 77.7012 55.9428C77.7012 55.9428 79.6824 57.4695 83.0492 57.5727C86.4159 57.676 88.0957 56.3485 89.1868 54.0106C90.278 51.6727 90.7733 45.5661 90.5723 42.6161C90.3713 39.6661 88.792 33.0507 88.4905 32.1362C88.1962 31.2217 86.9041 29.2894 86.9041 29.2894Z"
    fill="#FDB932" />
  <path
    d="M101.197 54.5417C100.924 54.5638 100.651 54.5638 100.386 54.5785C99.5602 54.4532 98.6701 54.49 97.8804 54.4679C96.617 54.431 95.3464 54.3499 94.083 54.3425C93.1498 54.3425 92.2166 54.4237 91.2834 54.4532C90.8024 54.4679 90.3214 54.4679 89.8476 54.431C89.6969 54.4163 89.5462 54.3942 89.3954 54.3647C90.264 52.7495 90.745 50.8468 90.9962 49.1431C91.5633 45.2712 91.0895 41.3256 90.5296 37.4832C90.2568 35.6025 89.8692 33.8178 89.0436 32.0994C88.6201 31.2144 88.0674 30.1819 87.4285 29.3042C87.7084 29.2674 87.9812 29.2379 88.2253 29.2231C89.6897 29.1199 91.1541 29.0018 92.6186 28.8838C95.2244 28.6773 97.823 28.375 100.429 28.2275C101.075 28.1906 101.082 27.2245 100.429 27.1876C97.823 27.0548 95.21 27.2835 92.6186 27.4605C91.1254 27.5637 89.6395 27.667 88.1463 27.7555C87.4644 27.7997 86.6747 27.7555 85.9425 27.8366C84.7581 27.195 83.3583 27.6301 82.0877 28.0505C80.2787 28.6552 78.0749 29.437 76.6607 30.8014C76.632 30.8014 76.6104 30.794 76.5817 30.794C76.4166 30.794 76.2874 30.9341 76.2802 31.1037C76.2659 31.6716 76.2587 32.21 76.5458 32.6894C74.5717 32.8885 72.4971 32.6451 70.7456 31.6642C68.3049 30.2925 66.1226 28.4635 63.6604 27.1065C61.435 25.8896 58.6713 24.7907 56.1086 25.0341C54.9456 25.1447 53.8545 25.4323 52.8208 25.8675C51.9522 26.1403 51.1123 26.4943 50.3227 26.9958H50.3155C49.5689 26.5238 48.8511 25.9707 48.0255 25.661C47.1426 25.3217 46.1806 25.3291 45.2618 25.4618C43.0149 25.779 40.9116 26.723 38.8801 27.7186C36.7409 28.7658 34.6735 29.9311 32.5558 31.03C31.4575 31.5979 30.3376 32.1289 29.2106 32.623C28.9235 32.7484 28.6148 32.8369 28.3133 32.918C28.3851 32.5788 28.3851 32.2174 28.3779 31.8412C28.3779 31.679 28.2415 31.5315 28.0764 31.5315C28.0477 31.5315 28.0261 31.5315 27.9974 31.5389C26.7699 30.3589 24.9825 29.6951 23.4319 29.0977C22.1182 28.5962 20.2949 27.7923 18.9094 28.4413C18.8305 28.4782 18.7658 28.5298 18.6869 28.5667C17.9618 28.4856 17.1794 28.5298 16.5046 28.4856C15.0115 28.3971 13.5255 28.2938 12.0324 28.1906C9.43376 28.0136 6.82077 27.785 4.22214 27.9177C3.5689 27.9546 3.57608 28.9207 4.22214 28.9576C6.82795 29.1125 9.43376 29.4149 12.0324 29.614C13.4968 29.732 14.9612 29.8426 16.4256 29.9532C16.6841 29.968 16.964 30.0049 17.2512 30.0417C16.9138 30.5432 16.6195 31.0742 16.3251 31.5389C15.3345 33.1024 14.6741 34.9093 14.351 36.7383C13.6547 40.6692 13.102 44.8656 13.5327 48.8555C13.7552 50.9353 14.2434 53.1699 15.2627 55.0505C14.6669 55.1095 14.0783 55.1907 13.4681 55.1759C12.5062 55.1538 11.5371 55.0579 10.5751 55.0653C9.34761 55.0727 8.12009 55.1538 6.89974 55.1907C5.7081 55.2275 4.28675 55.1169 3.1669 55.5963C2.94437 55.6922 2.94437 56.1052 3.1669 56.201H3.18126C3.08076 56.3707 3.15254 56.6214 3.41097 56.6509C6.1747 56.9091 9.01022 56.6952 11.7811 56.7173C12.4775 56.7173 13.1809 56.7321 13.8773 56.7468C14.5449 56.7616 15.3417 56.6583 15.9878 56.8574C16.9425 57.1524 17.6245 58.2513 18.4931 58.7528C20.4815 59.896 22.8935 59.5788 24.9322 58.7307C25.9085 58.3251 26.7053 57.7646 27.5452 57.1303C28.2343 56.6067 28.5933 56.5698 29.4475 56.7689C29.9213 56.8869 30.4022 57.0271 30.8832 57.0861C31.3929 57.9342 32.4194 58.4947 33.3813 58.3914C33.7618 58.3472 34.1279 58.2366 34.494 58.4062C34.8314 58.5684 35.1042 58.8487 35.42 59.0552C36.0948 59.4903 36.7983 59.5641 37.5377 59.3944C38.0976 60.3753 38.9232 61.2898 40.043 61.5111C40.5311 61.607 41.3136 61.6217 41.8951 61.3636C42.0745 62.0347 42.3617 62.6395 42.9072 63.1041C43.5246 63.6425 44.2927 63.8932 45.0895 63.9744C46.8195 64.144 48.7003 63.4507 50.1576 62.5288C50.5667 62.2707 50.9616 61.9757 51.3348 61.6512C51.4712 61.5258 51.6507 61.3783 51.8086 61.2161C52.2465 61.5258 52.7203 61.7618 53.23 61.8725C54.479 62.1453 56.0942 61.7692 57.0131 60.7736C58.5134 62.4477 61.3345 61.4963 62.2964 59.66C64.6725 60.4565 67.0774 58.2218 68.7141 56.6731C70.0349 55.4193 71.6931 54.5122 73.416 53.9812C74.2128 53.7304 75.0671 53.605 75.9213 53.4575C75.9715 55.257 76.6248 56.9754 78.3118 57.8162C79.4101 58.3619 80.695 58.5906 81.8867 58.7602C83.0855 58.9224 84.3274 59.0036 85.5118 58.6643C86.6245 58.3472 87.6295 57.7646 88.4694 56.9607C89.0078 56.4444 89.3452 56.0904 90.1276 56.024C90.7952 55.965 91.4915 56.0019 92.1591 56.0167C95.1669 56.0683 98.2035 56.4297 101.211 56.2305C102.259 56.1642 102.267 54.4753 101.211 54.549L101.197 54.5417ZM49.7771 57.8309C49.6192 57.9121 49.5043 58.0669 49.4971 58.2513C49.49 58.7823 49.8273 59.2027 50.2078 59.542C50.3227 59.7116 50.4375 59.8738 50.5667 60.0361C50.0786 60.2868 49.6551 60.6777 49.1885 60.9653C48.6429 61.3046 48.083 61.6143 47.4943 61.8577C46.5468 62.256 45.4987 62.5805 44.5081 62.1601C43.6323 61.784 43.0149 60.9285 43.0867 59.9328C43.1657 58.8708 43.9122 57.9194 44.6014 57.1819C45.9438 55.7364 47.6451 54.2983 49.4971 53.6198C50.4088 53.2879 51.5358 53.0593 52.4188 53.5977C52.9141 53.9 52.7418 54.2762 52.4619 54.7113C52.0024 55.4119 51.3492 55.9429 50.7749 56.5403C50.4232 56.9091 50.0068 57.3442 49.7771 57.8309ZM48.1619 53.015C46.5468 53.8115 45.0967 55.0874 43.9122 56.3707C43.0795 57.2704 42.2684 58.3619 42.132 59.6378C42.132 59.66 42.132 59.6894 42.132 59.7116C41.2921 60.3237 39.4257 60.5966 38.9519 59.4166C38.5642 58.4431 39.1026 57.4548 39.6267 56.6509C40.2655 55.6774 41.1198 54.844 41.9956 54.0992C42.9503 53.2879 44.0486 52.4176 45.2044 51.9309C45.8935 51.6433 46.9129 51.3704 47.6164 51.7318C47.9322 51.894 48.1906 52.1226 48.2409 52.5061C48.2624 52.6979 48.2265 52.8601 48.1619 53.015ZM41.8161 52.5061L41.773 52.5356C40.6101 53.4354 39.5333 54.4679 38.6647 55.6774C38.2268 56.2896 37.8248 57.0639 37.6884 57.8531C37.631 57.8752 37.5664 57.8899 37.5018 57.9121C37.2434 57.9932 36.9706 58.0448 36.6978 58.0669C36.2312 58.1038 35.6785 58.0669 35.42 57.6097C35.0252 56.9091 35.4846 55.9724 35.8866 55.2792C36.4107 54.3647 37.0998 53.5608 37.8392 52.8159C38.5355 52.1153 39.3252 51.4146 40.2081 50.9869C40.7321 50.7288 41.5146 50.6476 41.8305 51.2893C42.0171 51.6728 41.9238 52.0931 41.8161 52.5061ZM36.9132 52.0341C36.1594 52.7717 35.4631 53.5903 34.9104 54.4827C34.4366 55.2423 34.0202 56.2232 34.1423 57.1377C33.5105 57.1598 32.8142 57.1008 32.3189 56.7026C31.6154 56.1494 32.0677 55.0063 32.3907 54.372C32.8071 53.5534 33.3742 52.8307 33.9915 52.1743C34.573 51.5548 35.3052 50.7878 36.181 50.6845C36.985 50.5886 37.028 51.3851 36.906 52.0415L36.9132 52.0341ZM77.3498 54.8735C77.3498 54.8735 77.3068 54.903 77.2924 54.9178C77.2637 54.7777 77.2421 54.6449 77.2278 54.4974C77.1991 54.1877 77.2063 53.8779 77.2493 53.5755C77.2637 53.4428 77.2924 53.31 77.3139 53.1773C77.7375 53.074 78.1466 52.9413 78.5415 52.7717C78.3835 53.2142 78.2041 53.6419 77.9744 54.0549C77.8021 54.3647 77.6154 54.6375 77.3498 54.8735ZM81.1903 29.4517C81.9441 29.1789 82.7194 28.9428 83.4947 28.7363C84.234 28.5372 84.9662 28.3307 85.6267 28.8617C86.5455 29.5992 87.2418 31.1259 87.7515 32.1731C88.4837 33.6776 88.9144 35.3296 89.1513 36.9817C89.6682 40.5291 90.1204 44.1871 89.783 47.7714C89.5462 50.3379 88.8498 53.2584 87.0839 55.1833C85.8923 56.4813 84.4422 57.0271 82.7122 56.9754C81.1186 56.9312 79.8336 56.1494 78.441 55.5225C78.7568 55.1759 79.0152 54.7555 79.2019 54.4163C80.0131 52.8897 80.2787 51.0975 80.5156 49.4013C80.7524 47.7492 80.896 46.0456 80.853 44.3788C80.774 41.1412 80.2643 37.8593 79.2234 34.7986C78.9004 33.8546 78.3835 31.8707 77.4073 31.1037C78.685 30.6022 79.8982 29.909 81.1903 29.4444V29.4517ZM77.5795 32.5493C77.3714 32.5861 77.1632 32.6156 76.9478 32.6451C76.876 32.2542 76.8545 31.8929 76.8617 31.5241C77.156 31.7159 77.4001 32.1362 77.5795 32.5493ZM54.7159 26.0002C54.7159 26.0002 54.7446 25.9855 54.759 25.9781C55.5773 25.8896 56.3813 25.9633 57.2787 26.0813C60.2793 26.487 62.921 27.8735 65.4335 29.5329C67.5798 30.9489 69.7837 32.9918 72.332 33.567C73.3298 33.7883 74.3707 33.921 75.3829 33.9653C76.2228 34.0021 77.2063 34.0169 77.9385 33.5449C78.1179 34.1054 78.2471 34.6806 78.3907 35.2485C78.9937 37.6528 79.3311 40.1456 79.5321 42.6162C79.7475 45.2417 79.69 47.8746 79.166 50.4706C79.1301 50.655 79.087 50.8468 79.044 51.0311C76.0433 50.8394 72.6694 51.9678 70.2431 53.6567C67.9531 55.2497 66.2087 57.6908 63.5312 58.5242C63.7896 58.1849 64.0193 57.8088 64.2131 57.4327C64.2777 57.3516 64.3352 57.2704 64.3854 57.2041C64.773 56.7173 65.1535 56.2158 65.5196 55.7069C66.2016 54.7703 66.8476 53.7968 67.1922 52.6831C67.6373 51.2376 67.8742 49.711 67.8813 48.1917C67.8885 45.1385 66.8548 41.9967 64.7371 39.8284C65.9719 40.0202 67.3501 40.1161 68.2762 39.4081C68.5561 39.1942 68.5202 38.5894 68.0752 38.6337C66.6395 38.7812 65.333 38.8107 63.8901 38.6042C62.2318 38.3682 60.5521 38.0805 58.9441 37.6012C57.6017 37.2029 56.367 36.3548 54.9528 36.2294C53.7396 36.1262 52.469 36.6129 51.4999 37.343C49.4397 38.8992 46.7908 41.7386 43.9912 40.7429C42.0889 40.0644 42.1894 37.9847 43.0508 36.4359C43.8405 35.0051 45.0249 33.8768 46.116 32.6894C47.4154 31.2807 48.6572 29.8426 49.8848 28.3676C51.1051 26.9 52.9787 26.4796 54.7159 25.9928V26.0002ZM29.1747 33.4416C30.151 33.0803 31.1057 32.623 32.0533 32.1805C34.0776 31.2365 36.0159 30.0934 38.0546 29.1789C40.043 28.2865 42.0458 27.3793 44.1707 26.9C45.1828 26.6713 46.3386 26.4648 47.3651 26.7377C48.0901 26.9295 48.7362 27.2982 49.3966 27.6522C48.1332 28.611 47.0349 29.7099 45.915 30.8677C44.6588 32.1657 43.5605 33.5301 42.5914 35.0789C41.73 36.458 41.0408 38.2428 41.6797 39.8579C42.7852 42.6531 46.4534 42.0483 48.4275 40.8241C49.7484 40.0054 50.9903 39.0319 52.1891 38.0437C52.95 37.4168 53.5817 36.9005 54.6154 37.0112C55.642 37.1144 56.5536 37.6675 57.4725 38.0879C59.3461 38.9508 61.4781 39.2974 63.4953 39.6219C63.6173 39.6441 63.7537 39.6662 63.8901 39.6883C65.9431 42.2843 66.941 45.3818 66.7759 48.7227C66.7041 50.1314 66.4672 51.7023 65.8714 52.9855C65.6488 53.4723 65.3689 53.9369 65.0817 54.4015C65.2181 52.9339 65.0387 51.4073 64.5649 50.0355C63.9044 48.0959 62.519 46.525 61.1479 45.0721C60.3654 44.2461 59.5543 43.457 58.7431 42.6678C57.9463 41.8934 57.2069 41.0822 56.2808 40.4627C56.0152 40.2857 55.7137 40.6323 55.8573 40.8978C56.7259 42.4834 58.2765 43.7003 59.5184 44.9762C60.8392 46.3259 62.2965 47.7787 63.1363 49.5045C63.9116 51.0975 64.1485 53.0593 63.9044 54.8145C63.7824 55.6774 63.524 56.5108 63.0574 57.2409C62.842 57.5802 62.5477 57.8604 62.2462 58.1407C62.3754 57.3294 62.2893 56.4592 62.0739 55.6479C60.7674 50.6624 55.8788 48.1254 53.3161 43.9511C53.1223 43.634 52.6772 43.9068 52.8351 44.2387C53.7468 46.1562 55.2758 47.587 56.6613 49.1357C58.0252 50.6698 59.2815 52.3586 60.1644 54.2319C60.7818 55.5373 61.5068 57.2262 60.9612 58.6864C60.6597 59.4903 59.9132 60.2131 59.0446 60.2352C58.5564 60.25 58.0755 60.0951 57.6591 59.8369C57.4294 59.6968 57.2499 59.4977 57.0561 59.3133C57.1853 58.5758 57.0202 57.7941 56.8049 57.0934C56.3239 55.5373 55.5845 54.1655 54.5293 52.9413C53.3664 51.599 52.0168 50.4264 50.9113 49.0399C50.7462 48.8334 50.4303 49.0989 50.5596 49.3201C51.4138 50.7435 52.5121 51.9309 53.5171 53.2437C54.5652 54.6154 55.3979 56.0535 55.8286 57.7572C56.0009 58.4431 56.3024 59.7189 55.7281 60.3016C55.24 60.7957 54.3642 60.7662 53.7325 60.7072C53.0074 60.6408 52.3685 60.2278 51.7871 59.7853C51.4425 59.5198 51.1554 59.2396 50.9041 58.8782C50.7103 58.5979 50.5596 58.2956 50.3514 58.0227C50.7821 57.6171 51.2774 57.2778 51.7081 56.8869C52.3398 56.3117 53.0218 55.7069 53.4453 54.9547C53.8186 54.2909 53.8545 53.5092 53.2659 52.9634C52.4044 52.1521 51.0692 52.13 49.9925 52.366C49.5976 52.4545 49.2172 52.5799 48.8367 52.7348C48.8367 51.7834 47.9968 50.7288 47.078 50.5075C45.5059 50.1314 43.9481 50.9648 42.6416 51.9014C42.7134 50.9205 42.2971 49.9396 41.2059 49.7553C39.8707 49.5266 38.6073 50.5149 37.6238 51.3778C37.6023 50.9058 37.4228 50.4485 37.0711 50.1461C36.0661 49.2759 34.7883 50.0355 33.9341 50.7583C33.0511 51.5105 32.2471 52.4914 31.6657 53.5092C31.3498 54.0549 31.0555 54.7187 30.955 55.3898C30.8401 55.3529 30.7253 55.316 30.6032 55.2865C30.1151 55.1612 29.6126 55.0432 29.1101 54.9694C28.6363 54.903 28.1338 54.8293 27.6529 54.8367C27.4375 54.8367 27.215 54.8735 26.9996 54.8957C26.9135 54.9104 26.8273 54.9252 26.7484 54.9473V54.9325C26.0808 53.8558 25.7577 52.6168 25.4993 51.3851C24.9466 48.7375 24.882 46.053 25.0973 43.3611C25.2911 40.9126 25.6357 38.4345 26.2243 36.0524C26.3823 35.4181 26.5187 34.7618 26.7268 34.1423C26.7412 34.098 26.7627 34.039 26.7771 33.9874C27.5811 33.8178 28.3851 33.7366 29.1675 33.449L29.1747 33.4416ZM27.7749 32.2542C27.7749 32.5198 27.7605 32.7853 27.7247 33.0508C27.5021 33.1024 27.2868 33.1614 27.0714 33.2278C27.2509 32.8295 27.4878 32.4312 27.7749 32.2469V32.2542ZM14.9756 49.5045C14.4659 46.0751 14.8464 42.4982 15.2986 39.0835C15.7221 35.8828 16.5549 32.9623 18.3997 30.2999C18.8807 29.6066 19.4406 29.1494 20.3164 29.2747C21.1204 29.3927 21.9388 29.6877 22.714 29.9385C24.2718 30.4474 25.7075 31.2586 27.2293 31.8412C26.2459 32.6009 25.7362 34.5921 25.4132 35.5361C24.3723 38.5894 23.8626 41.8787 23.7836 45.1163C23.7406 46.7831 23.8913 48.4867 24.121 50.1388C24.3651 51.8424 24.6235 53.6345 25.4347 55.1538C25.6213 55.5004 25.8798 55.9282 26.2028 56.2674C25.0327 56.8132 23.9129 57.5212 22.6207 57.6687C21.063 57.8531 19.4334 57.6244 18.2059 56.5624C16.2031 54.8293 15.3489 52.0784 14.9684 49.5045H14.9756Z"
    fill="#334A52" fill-opacity="0.8" />
</svg>