<svg viewBox="0 0 104 93" fill="none" xmlns="http://www.w3.org/2000/svg">
  <path
    d="M3.15102 51.6011C-3.01034 41.3342 17.2122 10.1742 24.8098 5.61364C35.1377 -0.583011 95.201 12.3462 101.186 22.7157C107.17 33.0853 78.6035 91.1069 66.6057 89.9839C48.3666 88.2737 15.1204 71.5536 3.15102 51.6011Z"
    fill="#B3EAFE" />
  <path
    d="M65.3494 84.9404C61.807 84.9404 58.372 84.8927 56.082 84.7906C54.6364 84.7293 53.1479 84.6612 51.7167 84.2526C48.2316 83.2516 45.87 79.8537 45.0685 76.9256C44.2741 74.0043 44.7393 70.9876 45.369 68.1617C45.9487 65.5468 47.838 61.9718 50.0206 57.8316C54.2142 49.8917 59.9535 39.0101 60.4545 27.3113C60.5475 25.2004 61.1558 23.927 62.3223 23.4027C64.4548 22.4493 67.7682 24.5194 71.0315 26.9028C71.1531 26.9913 71.2318 27.1207 71.2533 27.2569C73.1139 40.0996 77.7154 50.9744 81.0717 58.9075C82.3169 61.8425 83.3832 64.3756 84.1418 66.5615C85.1293 69.401 85.9666 74.944 85.5802 77.838C85.1436 81.0658 82.7606 83.6806 79.5117 84.5046C78.4096 84.7838 71.697 84.9404 65.3494 84.9404ZM61.027 27.3318L61.5995 27.3522C61.0842 39.2893 55.2805 50.2867 51.044 58.3151C48.8971 62.3872 47.0365 65.9077 46.4854 68.3864C45.8915 71.083 45.4334 73.9498 46.1777 76.6532C46.8718 79.1999 49.0044 82.3391 52.0458 83.2176C53.3411 83.5921 54.7581 83.6534 56.1321 83.7078C62.6586 83.9938 77.7584 83.8304 79.2182 83.4559C82.0235 82.7477 84.0774 80.4869 84.4495 77.7019C84.8145 74.9917 83.9843 69.5781 83.0612 66.9019C82.3169 64.7501 81.2506 62.2306 80.0126 59.3093C76.6491 51.3694 72.0476 40.5082 70.1512 27.6246C68.3478 26.3103 64.5407 23.607 62.8089 24.3832C62.0718 24.7101 61.6639 25.7111 61.5923 27.3522L61.0198 27.3318H61.027Z"
    fill="#334A52" />
  <path
    d="M80.1135 58.0976C70.0517 58.2678 60.5267 57.6277 50.4793 58.1725C48.54 61.8632 46.436 65.9626 45.9208 68.2778C45.2982 71.0902 44.8545 74.0046 45.613 76.7965C46.3716 79.5816 48.6545 82.8162 51.8676 83.7422C53.2202 84.1304 54.6657 84.1985 56.097 84.2598C62.5663 84.539 77.7591 84.396 79.3549 83.9942C82.5824 83.1771 84.6291 80.6031 85.0084 77.7839C85.3876 74.9648 84.536 69.4695 83.5914 66.7457C82.7541 64.3215 81.509 61.4274 80.0992 58.1044L80.1135 58.0976Z"
    fill="#FDB932" />
  <path
    d="M65.3494 84.9407C61.807 84.9407 58.372 84.893 56.082 84.7909C54.6364 84.7296 53.1479 84.6615 51.7167 84.2529C48.2316 83.2519 45.87 79.854 45.0685 76.9259C44.2741 74.0046 44.7393 70.988 45.369 68.162C45.8986 65.7855 48.024 61.6317 49.9705 57.9205C50.0636 57.7434 50.2425 57.6345 50.45 57.6209C56.4255 57.3008 62.3223 57.3962 68.033 57.4847C71.9618 57.546 76.0194 57.6141 80.1056 57.546C80.3346 57.5323 80.5565 57.6753 80.6423 57.8864L81.0646 58.8806C82.3097 61.8223 83.3903 64.3623 84.1489 66.5618C85.1365 69.4014 85.9738 74.9443 85.5873 77.8384C85.1508 81.0661 82.7678 83.6809 79.5188 84.5049C78.4168 84.7841 71.7042 84.9407 65.3565 84.9407H65.3494ZM50.8436 58.69C48.9687 62.265 46.9721 66.1941 46.4854 68.3867C45.8915 71.0833 45.4334 73.9501 46.1777 76.6535C46.8718 79.2003 49.0044 82.3394 52.0458 83.2179C53.3411 83.5924 54.7581 83.6537 56.1321 83.7082C62.6586 83.9942 77.7584 83.8307 79.2182 83.4562C82.0235 82.748 84.0774 80.4873 84.4495 77.7022C84.8145 74.992 83.9843 69.5784 83.0612 66.9023C82.3098 64.7436 81.2435 62.2173 80.0054 59.2892L79.7335 58.6423C75.7618 58.7036 71.8258 58.6423 68.0115 58.5742C62.4368 58.4857 56.6688 58.3903 50.8436 58.69Z"
    fill="#334A52" />
  <path
    d="M43.2323 35.8031C43.0534 35.8031 42.8816 35.7214 42.7671 35.5784C42.6097 35.3741 42.624 35.0949 42.8029 34.9042C46.9536 30.3623 50.1882 24.8125 52.149 18.8473C52.6214 17.4242 54.0884 15.1498 56.042 15.1157C56.6432 15.1157 57.2515 15.3336 57.7452 15.7626C58.9117 16.7772 59.3125 18.7588 58.7686 20.8153C58.2748 22.6811 57.1298 24.3358 56.1852 25.5752C52.5641 30.3214 48.0413 33.9373 43.447 35.7554C43.3754 35.7826 43.3039 35.7963 43.2252 35.7963L43.2323 35.8031ZM56.0778 16.2052H56.0564C54.847 16.2257 53.6447 17.9417 53.2368 19.1742C51.4978 24.4584 48.7856 29.4225 45.3291 33.6785C48.9215 31.7514 52.378 28.7212 55.262 24.9419C56.1995 23.7162 57.2157 22.2317 57.6594 20.5565C58.0959 18.9086 57.824 17.3016 56.9724 16.573C56.7791 16.4027 56.4643 16.2052 56.0707 16.2052H56.0778Z"
    fill="#334A52" />
  <path
    d="M53.3867 17.8733C51.8338 17.8733 49.9946 17.6418 47.8692 17.3762L47.633 17.349C47.0176 17.2741 46.5382 16.8723 46.1088 16.457C45.6579 16.0143 45.5506 15.3811 45.479 14.7682L45.4361 14.4277C45.2858 13.2224 45.0783 11.5745 45.8082 10.6689C46.3306 10.022 47.0892 9.77682 47.6402 9.59977C48.5204 9.31377 49.4579 9.20482 50.3667 9.09586C51.1611 9.00053 51.9125 8.91201 52.6138 8.71453C52.757 8.67367 52.9144 8.68729 53.0504 8.7622C53.1863 8.83029 53.2794 8.95287 53.3223 9.08906C53.9163 11.0979 54.2812 17.1107 53.8447 17.6622C53.7374 17.7984 53.5584 17.887 53.3795 17.887L53.3867 17.8733ZM52.3634 9.89258C51.7551 10.022 51.1253 10.0969 50.517 10.1718C49.6296 10.2807 48.7852 10.3761 48.0195 10.628C47.4613 10.8119 47.0105 10.9753 46.7242 11.3362C46.2734 11.8878 46.4666 13.3995 46.5811 14.2983L46.624 14.6524C46.6598 14.9657 46.7242 15.49 46.9389 15.7079C47.2037 15.9735 47.5185 16.2459 47.7905 16.2799L48.0267 16.3072C49.8873 16.5387 51.5189 16.743 52.9001 16.7838C52.9502 15.5649 52.8428 11.9831 52.3705 9.89258H52.3634Z"
    fill="#334A52" />
  <path
    d="M60.9834 24.1925C60.7187 24.1925 60.4897 24.0223 60.4324 23.7772C59.6023 20.6039 56.1315 18.5202 53.4121 17.6962C53.1903 17.6282 53.0328 17.4443 53.0185 17.2264L52.9827 16.8246C52.9255 16.2254 52.8682 15.6262 52.8181 15.0337C52.675 13.3245 52.539 11.6085 52.4102 9.89934L52.3744 9.39543C52.353 9.10262 52.582 8.84386 52.8897 8.81662C54.7861 8.63958 56.6682 8.50339 58.4358 8.38762C61.0979 8.21058 63.8531 8.01991 66.5868 8.34677C68.8339 8.61234 71.0738 9.51801 73.0633 10.9548C73.5642 11.3225 74.0437 11.663 74.5017 11.9831C77.8651 14.38 80.0907 15.9666 78.7596 18.0163C78.1299 18.9833 76.5985 19.0922 75.1171 19.2012C74.151 19.2692 73.1491 19.3442 72.6911 19.6506C71.5819 20.386 71.2169 22.102 71.4316 23.4231C71.4602 23.5797 71.4102 23.7363 71.3028 23.8589C71.1955 23.9814 71.038 24.0495 70.8734 24.0495L61.0049 24.1857H60.9978L60.9834 24.1925ZM54.1206 16.7838C57.0547 17.7507 60.3537 19.8685 61.42 23.103L70.2222 22.9804C70.1363 21.4415 70.6373 19.6778 72.0256 18.7653C72.7412 18.2955 73.8433 18.2138 75.0169 18.1252C76.1619 18.0435 77.4501 17.9482 77.7721 17.4511C78.5235 16.2935 77.0994 15.204 73.8003 12.8547C73.3423 12.5278 72.8629 12.1873 72.3548 11.8196C70.5299 10.4986 68.4832 9.66781 66.4294 9.42267C63.8102 9.10943 61.1123 9.29329 58.5002 9.47034C56.9187 9.57929 55.237 9.69505 53.5409 9.84486C53.6769 11.5472 53.8057 13.2496 53.9488 14.9452C53.9989 15.5376 54.0562 16.1369 54.1063 16.7293V16.777L54.1206 16.7838Z"
    fill="#334A52" />
  <path
    d="M61.589 31.8531C61.0237 31.8531 60.2794 31.8395 59.6425 31.5127C59.435 31.4037 59.2418 31.2675 59.0485 31.0905C58.5118 30.6002 58.1326 29.9329 57.9608 29.1566C57.8248 28.5846 57.8105 28.0126 57.7962 27.461C57.7676 26.3442 57.7318 25.0777 58.3401 23.9268C58.4761 23.6613 58.7122 23.2867 59.1631 23.0825C59.5066 22.9258 59.8858 22.919 60.1578 22.9122C61.8323 22.885 63.5642 22.8578 64.9095 22.8101H69.1818C70.3769 22.8033 71.572 22.919 72.2805 23.7226C72.8172 24.3354 72.8387 25.1049 72.853 25.6633L72.9246 28.5369C72.9389 29.0817 72.9532 29.7558 72.667 30.3823C72.4809 30.784 71.8798 31.6829 70.3125 31.5399C67.45 31.7442 64.5446 31.8463 61.6749 31.8531H61.5962H61.589ZM69.1818 23.886H64.9239C63.5856 23.9405 61.8467 23.9677 60.1721 23.9949C59.986 23.9949 59.7713 23.9949 59.6568 24.0562C59.5566 24.1039 59.4636 24.2128 59.3634 24.4035C58.884 25.316 58.9126 26.4396 58.9412 27.4269C58.9555 27.9513 58.9698 28.4484 59.0772 28.9182C59.1702 29.3132 59.3777 29.8716 59.8429 30.3006C59.9574 30.4095 60.0719 30.4912 60.1864 30.5457C60.5657 30.7432 61.0809 30.7568 61.6678 30.7568C64.5231 30.7568 67.4214 30.6479 70.2696 30.4436C70.3054 30.4436 70.3412 30.4436 70.3769 30.4436C71.0138 30.5117 71.4289 30.3414 71.615 29.9329C71.801 29.5311 71.7867 29.034 71.7796 28.5573L71.708 25.6837C71.6937 25.1458 71.6651 24.7031 71.4003 24.4103C70.9924 23.9473 70.0979 23.8792 69.1818 23.8792V23.886Z"
    fill="#334A52" />
  <path
    d="M62.0073 29.5721C61.8999 29.5721 61.8212 29.4836 61.8212 29.3815C61.8785 27.9787 61.8212 26.5555 61.6423 25.1664C61.628 25.0642 61.7067 24.9757 61.8069 24.9689C61.8999 24.9553 62.0073 25.0302 62.0144 25.1255C62.1933 26.5351 62.2506 27.9787 62.2005 29.4019C62.2005 29.4972 62.1146 29.5789 62.0073 29.5789V29.5721Z"
    fill="#334A52" />
  <path
    d="M65.5523 29.4907C65.4592 29.4907 65.3805 29.4294 65.3662 29.3409C65.1301 27.9313 65.0442 26.4877 65.1086 25.0577C65.1086 24.9555 65.2016 24.8875 65.309 24.8875C65.4163 24.8875 65.495 24.976 65.4879 25.0781C65.4235 26.4809 65.5094 27.9041 65.7455 29.2932C65.7598 29.3954 65.6883 29.4839 65.5881 29.4975C65.5809 29.4975 65.5666 29.4975 65.5594 29.4975L65.5523 29.4907Z"
    fill="#334A52" />
  <path
    d="M69.0385 29.4905C68.9383 29.4905 68.8524 29.4156 68.8453 29.3134C68.788 27.9311 68.6306 26.5419 68.373 25.18C68.3515 25.0847 68.423 24.9894 68.5232 24.9689C68.6234 24.9553 68.7236 25.0166 68.7451 25.1119C69.0099 26.4875 69.1673 27.897 69.2246 29.293C69.2246 29.3951 69.1458 29.4768 69.0385 29.4836H69.0313L69.0385 29.4905Z"
    fill="#334A52" />
  <path
    d="M51.6834 61.7134C51.5833 61.7134 51.4974 61.6385 51.4902 61.5363C51.4902 61.4342 51.569 61.3525 51.6763 61.3525L59.677 61.1482C59.7772 61.1482 59.8631 61.2231 59.8702 61.3252C59.8702 61.4274 59.7915 61.5091 59.6842 61.5091L51.6834 61.7134Z"
    fill="#334A52" />
  <path
    d="M50.467 64.1172C50.374 64.1172 50.2881 64.0491 50.281 63.9537C50.2667 63.8516 50.3454 63.763 50.4527 63.7562C51.3759 63.6609 52.3205 63.6269 53.258 63.6541C53.3653 63.6541 53.4441 63.7426 53.4441 63.838C53.4441 63.9401 53.3725 64.015 53.2508 64.015C52.3348 63.9878 51.4045 64.015 50.5028 64.1172H50.4814H50.467Z"
    fill="#334A52" />
  <path
    d="M38.9443 14.1621H38.93C34.6863 14.0804 30.3925 13.9647 26.1488 13.8217C25.834 13.8081 25.5907 13.5561 25.5978 13.2565C25.6121 12.9569 25.8697 12.7117 26.1918 12.7321C30.4283 12.8751 34.7149 12.9909 38.9514 13.0726C39.2663 13.0726 39.5168 13.3246 39.5096 13.6242C39.5096 13.9238 39.252 14.1553 38.9371 14.1553L38.9443 14.1621Z"
    fill="#334A52" />
  <path
    d="M39.2733 10.4646C39.2089 10.4646 39.1445 10.4578 39.0872 10.4374C35.7453 9.32741 32.7396 7.41393 30.378 4.90803C30.1705 4.68331 30.1848 4.34284 30.421 4.13855C30.6571 3.94108 31.0149 3.95469 31.2296 4.17941C33.4552 6.54912 36.3034 8.36046 39.4594 9.40913C39.7599 9.51127 39.9102 9.8177 39.81 10.1037C39.7241 10.3284 39.5094 10.4646 39.2733 10.4646Z"
    fill="#334A52" />
  <path
    d="M32.0869 22.3338C31.9295 22.3338 31.7649 22.2726 31.6504 22.1432C31.4428 21.9185 31.4715 21.5712 31.7148 21.3805C33.7686 19.7054 36.0586 18.2958 38.5061 17.1995C38.7923 17.0701 39.1287 17.1858 39.2647 17.4582C39.4006 17.7306 39.279 18.0506 38.9927 18.18C36.6312 19.2355 34.4342 20.5838 32.459 22.2045C32.3517 22.293 32.2229 22.3338 32.0869 22.3338Z"
    fill="#334A52" />
  <path
    d="M25.5564 59.5262C21.7779 59.5262 18.0065 57.9737 15.6235 55.1886C13.2333 52.4035 12.2171 48.6378 12.6822 45.0696C13.7771 36.5849 22.2001 30.7696 25.7639 22.9182C28.4046 26.8745 31.0453 30.8377 33.6859 34.794C35.8686 38.0694 38.087 41.4197 39.0102 45.199C39.9262 48.9783 38.6023 59.5262 25.5564 59.5262Z"
    fill="#FDB932" />
  <path
    d="M25.5569 60.071C21.4922 60.071 17.6135 58.3754 15.1803 55.5358C12.7329 52.6826 11.6165 48.842 12.1175 45.0083C12.7901 39.8262 16.1321 35.5839 19.3739 31.4777C21.5566 28.7063 23.818 25.8395 25.2421 22.7139C25.3279 22.53 25.5069 22.4075 25.7215 22.387C25.9362 22.3734 26.1366 22.4687 26.2511 22.639L34.1731 34.5148C36.3558 37.7902 38.6172 41.1813 39.569 45.0832C40.1271 47.3712 39.891 52.0493 36.9641 55.5562C34.4594 58.5592 30.6236 60.0778 25.5641 60.0778L25.5569 60.071ZM25.8432 24.0554C24.3762 26.9426 22.3008 29.5711 20.2828 32.1247C16.9909 36.2989 13.8779 40.2416 13.2481 45.1377C12.7973 48.6309 13.8493 52.2604 16.0677 54.848C18.2862 57.4425 21.8357 58.9882 25.5569 58.9882C30.2515 58.9882 33.7795 57.6059 36.0624 54.8753C38.7388 51.668 38.9607 47.4052 38.4526 45.3283C37.5437 41.6035 35.3396 38.2941 33.207 35.0936L25.8432 24.0622V24.0554Z"
    fill="#334A52" />
  <path
    d="M25.1949 71.2594H25.1734C24.8585 71.2458 24.6152 70.9938 24.6295 70.6942C25.109 59.6832 25.3094 48.502 25.2235 37.4705C25.2235 37.1709 25.4739 36.9258 25.7888 36.9258C26.1037 36.9258 26.3542 37.1641 26.3613 37.4637C26.4472 48.5088 26.2468 59.7105 25.7674 70.7419C25.753 71.0347 25.5026 71.2594 25.1949 71.2594Z"
    fill="#334A52" />
  <path
    d="M25.9002 52.8732C25.9002 52.8732 25.8501 52.8732 25.8286 52.8596C25.7356 52.8187 25.6855 52.7166 25.7284 52.6213C27.174 49.3459 29.9506 46.6085 33.3356 45.1035C33.4286 45.0627 33.5431 45.1035 33.586 45.1921C33.629 45.2806 33.586 45.3895 33.493 45.4304C30.1939 46.8945 27.4889 49.5638 26.0719 52.7575C26.0433 52.8256 25.9717 52.8664 25.893 52.8664L25.9002 52.8732Z"
    fill="#334A52" />
  <path
    d="M25.7934 47.065C25.729 47.065 25.6646 47.0377 25.6288 46.9764C24.7271 45.5941 23.7968 44.1573 22.3584 43.1222C21.7286 42.666 20.9987 42.2983 20.2973 41.9374L18.4725 41.0045C18.3795 40.9568 18.3437 40.8479 18.3938 40.7593C18.4439 40.6708 18.5584 40.6368 18.6514 40.6844L20.4762 41.6173C21.1919 41.985 21.9361 42.3596 22.5874 42.8362C24.0902 43.9121 25.0777 45.4443 25.958 46.7858C26.0152 46.8675 25.9866 46.9832 25.8936 47.0377C25.8649 47.0581 25.8292 47.065 25.7934 47.065Z"
    fill="#334A52" />
</svg>