<svg viewBox="0 0 104 93" fill="none" xmlns="http://www.w3.org/2000/svg">
  <path
    d="M98.8409 46.9008C98.4262 41.6043 96.856 36.5991 93.3008 32.5265C89.7679 28.4757 78.1841 20.0172 73.4884 17.4454C52.8537 6.11633 39.0109 1.27873 23.6424 11.9229C14.9397 17.9481 9.29593 27.1279 7.08137 37.0362C5.74079 43.0177 5.27416 49.1667 5.05196 55.2719C4.84458 60.8964 5.17788 66.4844 7.53316 71.6863C17.0283 92.7197 44.077 95.459 64.2746 91.4229C74.3475 89.412 84.4352 85.15 90.8715 76.9537C97.4411 68.5899 99.6483 57.2682 98.8409 46.8936V46.9008Z"
    fill="#B3EAFE" />
  <path
    d="M26.0181 52.3954C25.9698 52.3954 25.9284 52.3817 25.8801 52.368C25.7836 52.3405 25.7009 52.2924 25.6319 52.2238C24.8596 51.4341 24.5217 50.9259 24.1907 50.4384C23.8321 49.9096 23.5011 49.4083 22.5357 48.5088C22.4253 48.4058 22.3633 48.2616 22.3633 48.1036C22.3633 47.9457 22.4322 47.8084 22.5426 47.7054C29.2246 41.635 33.7551 37.4325 38.1478 33.3742C43.6437 28.2859 48.8431 23.479 57.4491 15.7332C57.6697 15.5341 58.0214 15.5478 58.2214 15.7675C58.6696 16.2551 59.0765 16.6671 59.4695 17.0654C60.2695 17.8688 61.0211 18.631 62.0141 19.922C62.1934 20.1555 62.1589 20.492 61.9244 20.6774C50.3671 30.0918 33.8862 45.3294 28.4661 50.3354C26.5628 52.1002 26.2387 52.3886 26.0112 52.3886L26.0181 52.3954ZM23.7149 48.1242C24.4527 48.8659 24.7837 49.3534 25.1009 49.8341C25.3561 50.2118 25.5974 50.5757 26.0525 51.077C26.4111 50.7474 27.0042 50.2049 27.7213 49.5388C33.0794 44.5878 49.25 29.6386 60.8142 20.1761C60.0143 19.1872 59.3661 18.528 58.6834 17.8413C58.3938 17.5461 58.0973 17.2508 57.7801 16.9143C49.4155 24.4404 44.2988 29.1717 38.8925 34.1845C34.5964 38.1604 30.1624 42.2668 23.7149 48.1311V48.1242Z"
    fill="#334A52" />
  <path
    d="M42.3069 79.8012C39.852 79.8012 37.4247 78.0982 36.2662 75.4956C35.6387 74.0948 34.2389 70.4966 34.7354 67.276C35.6318 61.446 39.0246 56.3439 42.2242 52.1345C45.279 48.1037 49.2027 44.8007 53.0023 41.6076C54.9331 39.9802 56.9329 38.2978 58.7879 36.5399C62.022 33.4773 65.1872 30.0026 67.2973 27.661C71.2348 23.2731 71.9864 19.9152 71.3796 18.2328C71.1176 17.5049 70.5797 17.0448 69.8763 16.935C68.5316 16.729 65.3596 17.2783 61.9806 20.6499C61.7807 20.8491 61.4703 20.8628 61.2497 20.6911C60.1877 19.8534 59.5671 19.0706 58.9051 18.2397C58.4776 17.6972 58.0294 17.1341 57.4363 16.5298C57.3191 16.4131 57.2639 16.2483 57.2777 16.0835C57.2984 15.9187 57.388 15.7676 57.5328 15.6852C57.9121 15.4517 58.3397 15.1702 58.8017 14.868C62.7461 12.3136 69.3453 8.0355 73.6276 11.0157C78.1789 14.1813 79.3649 19.462 76.8066 25.1409C75.4274 28.1966 70.5659 33.6215 67.3456 37.2128C66.7663 37.8583 66.256 38.4283 65.8492 38.8884C63.0909 42.0334 59.9119 44.8557 56.8433 47.5887C53.2092 50.823 49.451 54.1671 46.4168 58.0195C43.0241 62.3318 39.9762 69.8579 43.8447 73.0991C44.5964 73.7308 45.5618 75.7222 45.7755 76.5188C45.941 77.13 45.8238 77.7548 45.4307 78.3179C44.8929 79.1007 43.8792 79.6707 42.8517 79.7806C42.6724 79.8012 42.4931 79.808 42.3139 79.808L42.3069 79.8012ZM69.2971 15.7951C69.566 15.7951 69.8074 15.8157 70.0349 15.85C71.1451 16.0217 72.0071 16.7496 72.4071 17.862C73.3311 20.4165 71.7244 24.3512 68.1041 28.3889C65.9871 30.7511 62.7943 34.2463 59.5326 37.3364C57.657 39.115 55.6434 40.8042 53.6988 42.4454C49.9475 45.6041 46.0721 48.8659 43.0931 52.8006C39.9762 56.907 36.6731 61.858 35.8111 67.4477C35.3629 70.3798 36.6731 73.7446 37.2592 75.0562C38.1488 77.0475 40.3072 78.9359 42.7207 78.6887C43.4172 78.6132 44.155 78.208 44.5067 77.693C44.7136 77.3978 44.7756 77.0956 44.6929 76.8003C44.486 76.0313 43.5896 74.3283 43.1206 73.9369C38.4453 70.0159 42.1208 61.6795 45.5342 57.3465C48.6304 53.4186 52.4231 50.0401 56.0916 46.7784C59.1396 44.066 62.291 41.2643 65.001 38.1742C65.4078 37.7072 65.925 37.1373 66.5043 36.485C69.4833 33.1614 74.4758 27.5992 75.7791 24.6945C78.1375 19.4551 77.1169 14.7994 72.9725 11.9153C69.304 9.3608 63.0909 13.3848 59.3809 15.7882C59.1258 15.953 58.8844 16.1109 58.6569 16.2551C59.0706 16.7084 59.4154 17.141 59.7464 17.5667C60.2774 18.2397 60.7877 18.8851 61.5324 19.5306C64.4562 16.7633 67.3594 15.8019 69.2764 15.8019L69.2971 15.7951Z"
    fill="#334A52" />
  <path
    d="M86.3071 83.578C77.5633 83.578 55.807 83.3719 48.1182 83.1453C46.746 83.1041 44.8703 83.0492 43.505 81.9711C41.0018 80.0072 41.6638 76.1892 43.105 73.2708C49.9318 59.5096 66.4473 51.4135 81.5215 54.435C85.4383 55.2178 88.2104 56.6118 90.0033 58.6924C91.8927 60.883 92.603 63.767 93.0167 66.0331C93.8787 70.7713 93.9339 75.578 93.1753 80.3299C93.0512 81.1127 92.865 82.0054 92.2375 82.6372C91.4307 83.4612 90.2653 83.5436 89.1413 83.5574C88.5 83.5642 87.5277 83.5711 86.2934 83.5711L86.3071 83.578ZM75.0808 54.9019C62.3787 54.9019 49.7732 62.3044 44.0911 73.7583C42.8361 76.2922 42.2017 79.554 44.1808 81.1196C45.1806 81.9093 46.5667 82.0123 48.1458 82.0535C56.9104 82.3076 83.9626 82.5411 89.1275 82.4724C90.024 82.4587 90.9342 82.4037 91.4514 81.8818C91.8513 81.4767 91.9824 80.8106 92.0858 80.172C92.8237 75.5437 92.7685 70.8536 91.9272 66.2391C91.541 64.1104 90.8722 61.4048 89.162 59.4134C87.5346 57.525 84.9624 56.2547 81.3008 55.5199C79.2458 55.1079 77.1564 54.9088 75.0808 54.9088V54.9019Z"
    fill="#334A52" />
  <path
    d="M37.3145 72.8518C37.2317 72.8518 37.1559 72.7969 37.1352 72.7145C37.1145 72.6183 37.1697 72.5153 37.2731 72.4947L40.4038 71.7462C40.5003 71.7256 40.6037 71.7806 40.6244 71.8836C40.6451 71.9797 40.59 72.0827 40.4865 72.1033L37.3558 72.8518C37.3558 72.8518 37.3283 72.8518 37.3145 72.8518Z"
    fill="#334A52" />
  <path
    d="M39.9551 67.4065C39.9551 67.4065 39.9068 67.4064 39.8861 67.3927C38.9 66.9738 37.8657 66.6648 36.8106 66.4726C36.7141 66.452 36.6451 66.3558 36.6658 66.2597C36.6865 66.1635 36.7761 66.0949 36.8796 66.1155C37.9622 66.3146 39.0173 66.6305 40.0309 67.0562C40.1206 67.0974 40.1688 67.2004 40.1275 67.2966C40.0999 67.3653 40.0309 67.4065 39.962 67.4065H39.9551Z"
    fill="#334A52" />
  <path
    d="M41.7625 62.3114C41.7625 62.3114 41.7004 62.3045 41.6728 62.2839L39.0455 60.7526C38.9559 60.7045 38.9283 60.5878 38.9835 60.5054C39.0318 60.4161 39.149 60.3886 39.2317 60.4436L41.859 61.9749C41.9487 62.023 41.9763 62.1397 41.9211 62.2221C41.8866 62.277 41.8245 62.3114 41.7625 62.3114Z"
    fill="#334A52" />
  <path
    d="M44.7675 56.9344C44.7675 56.9344 44.7055 56.9275 44.6779 56.9138L42.1471 55.4924C42.0575 55.4443 42.0299 55.3344 42.0782 55.2451C42.1265 55.1559 42.2437 55.1284 42.3264 55.1765L44.8572 56.5979C44.9468 56.646 44.9744 56.7559 44.9261 56.8451C44.8917 56.9069 44.8296 56.9413 44.7675 56.9413V56.9344Z"
    fill="#334A52" />
  <path
    d="M48.3258 52.9791C48.2844 52.9791 48.2499 52.9654 48.2155 52.9379L45.7606 51.0358C45.6778 50.974 45.664 50.8573 45.7261 50.7817C45.7881 50.6993 45.9054 50.6856 45.9812 50.7474L48.4361 52.6495C48.5189 52.7113 48.5327 52.8281 48.4706 52.9036C48.4361 52.9517 48.381 52.9723 48.3258 52.9723V52.9791Z"
    fill="#334A52" />
  <path
    d="M52.1399 49.381C52.0985 49.381 52.0502 49.3672 52.0158 49.3329L49.6298 47.163C49.554 47.0943 49.5471 46.9776 49.616 46.902C49.685 46.8265 49.8022 46.8196 49.8781 46.8883L52.264 49.0582C52.3399 49.1269 52.3468 49.2437 52.2778 49.3192C52.2433 49.3604 52.1951 49.381 52.1399 49.381Z"
    fill="#334A52" />
  <path
    d="M55.7593 45.8789C55.711 45.8789 55.6696 45.8652 55.6283 45.824L53.525 43.7845C53.4561 43.7158 53.4492 43.5991 53.525 43.5236C53.594 43.4549 53.7112 43.4481 53.7871 43.5236L55.8903 45.5631C55.9662 45.6317 55.9662 45.7484 55.8903 45.824C55.8558 45.8583 55.8076 45.8789 55.7593 45.8789Z"
    fill="#334A52" />
  <path
    d="M76.1309 88.7144C71.821 88.7144 68.8214 85.9401 67.6284 82.7402C66.5803 79.9316 66.8285 76.5051 68.249 74.0055C69.4765 71.8562 71.4763 70.4691 74.0415 69.9884C78.2824 69.2056 83.7714 70.4485 85.2885 76.5325C86.116 79.8561 85.8471 86.5993 78.8961 88.3573C77.9238 88.6045 76.9998 88.7144 76.1309 88.7144ZM74.2415 71.0665C72.0072 71.4785 70.2626 72.6802 69.2076 74.5411C67.9387 76.7729 67.725 79.8424 68.6628 82.3556C69.9247 85.741 73.4967 88.5839 78.6341 87.2929C84.7507 85.7547 84.9644 79.7531 84.2266 76.8003C82.4682 69.7618 75.0828 70.9154 74.2484 71.0665H74.2415Z"
    fill="#334A52" />
  <path
    d="M76.2012 84.7315C73.5739 84.7315 71.7396 83.1315 71.0156 81.2775C70.3949 79.6981 70.519 77.7548 71.3258 76.3196C72.0637 75.008 73.305 74.1703 74.9186 73.8888C75.4909 73.7858 80.5662 73.0372 81.7868 77.6724C82.0971 78.8398 82.1316 80.735 81.2282 82.2457C80.5386 83.3994 79.4146 84.1616 77.8907 84.5255C77.2976 84.6697 76.7322 84.7315 76.2012 84.7315ZM74.9806 74.2527C73.4773 74.5136 72.3258 75.2965 71.6431 76.505C70.8845 77.8509 70.7742 79.6706 71.3534 81.147C72.174 83.2208 74.4841 84.965 77.801 84.1685C79.2215 83.832 80.2697 83.1178 80.911 82.0535C81.7592 80.6457 81.7178 78.8604 81.4282 77.7617C80.2904 73.4493 75.5185 74.1497 74.9737 74.2458L74.9806 74.2527Z"
    fill="#334A52" />
  <path
    d="M59.5039 42.878C59.4487 42.878 59.4004 42.8574 59.366 42.8094C58.766 42.0884 58.0903 41.4223 57.3662 40.818C57.2903 40.7562 57.2765 40.6395 57.3455 40.5639C57.4076 40.4884 57.5248 40.4746 57.6006 40.5433C58.3385 41.1545 59.0281 41.8411 59.6487 42.5828C59.7108 42.6583 59.7039 42.775 59.628 42.8369C59.5935 42.8643 59.5522 42.878 59.5108 42.878H59.5039Z"
    fill="#334A52" />
  <path
    d="M62.9117 39.3827C62.8634 39.3827 62.822 39.3621 62.7806 39.3277L60.8981 37.4874C60.8291 37.4187 60.8222 37.302 60.8981 37.2265C60.967 37.1578 61.0843 37.1509 61.1601 37.2265L63.0427 39.0668C63.1116 39.1355 63.1185 39.2522 63.0427 39.3277C63.0082 39.3621 62.9599 39.3827 62.9117 39.3827Z"
    fill="#334A52" />
  <path
    d="M66.1718 35.5235C66.1373 35.5235 66.096 35.5097 66.0684 35.4891C65.3926 35.0084 64.7857 34.4454 64.2548 33.8136C64.1927 33.7381 64.1996 33.6213 64.2755 33.5595C64.3513 33.4977 64.4686 33.5046 64.5306 33.5801C65.0409 34.1913 65.6271 34.7338 66.2753 35.1939C66.358 35.2557 66.3787 35.3655 66.3166 35.4479C66.2822 35.496 66.227 35.5235 66.1649 35.5235H66.1718Z"
    fill="#334A52" />
  <path
    d="M10.5586 42.5138C12.0067 40.9619 14.572 40.8452 16.6959 41.6761C18.8198 42.5001 19.5093 42.8709 21.1919 44.4709C23.9157 47.0528 26.7361 50.1429 29.06 53.0957C32.0873 56.9411 33.9009 60.2715 30.6116 64.4397L10.5586 42.5207V42.5138Z"
    fill="#FDB932" />
  <path
    d="M30.6046 64.9756C30.4529 64.9756 30.3012 64.9138 30.1978 64.797L10.1448 42.878C9.95173 42.6651 9.95173 42.3424 10.1448 42.1363C11.8481 40.3166 14.7581 40.3304 16.8889 41.1613C19.0611 42.0059 19.8058 42.3973 21.5642 44.0659C24.3157 46.6753 27.1222 49.7586 29.4806 52.7457C32.3837 56.4332 34.6938 60.1276 31.0321 64.7627C30.9356 64.8863 30.7839 64.9687 30.6184 64.9687H30.5977L30.6046 64.9756ZM11.324 42.5415L30.5563 63.5679C32.9285 60.155 31.6941 57.3259 28.6186 53.4255C26.2947 50.4727 23.5157 47.4307 20.8057 44.8625C19.1783 43.3174 18.537 42.9741 16.4889 42.1844C14.8615 41.5527 12.71 41.4565 11.324 42.5484V42.5415Z"
    fill="#334A52" />
  <path
    d="M69.6356 31.8704C69.6011 31.8704 69.5667 31.8635 69.5322 31.836C68.8426 31.3691 68.2013 30.8266 67.622 30.2292C67.5531 30.1537 67.5531 30.0438 67.622 29.9682C67.6979 29.8996 67.8082 29.8996 67.8841 29.9682C68.4426 30.5519 69.0632 31.0738 69.7321 31.527C69.8149 31.582 69.8356 31.6987 69.7804 31.7811C69.7459 31.836 69.6839 31.8635 69.6287 31.8635L69.6356 31.8704Z"
    fill="#334A52" />
  <path
    d="M72.6972 27.9426C72.6972 27.9426 72.6351 27.9358 72.6075 27.9152C71.9248 27.5169 71.2835 27.0431 70.7043 26.5075C70.6284 26.4388 70.6284 26.322 70.6974 26.2465C70.7663 26.171 70.8835 26.171 70.9594 26.2396C71.5249 26.7615 72.1386 27.2147 72.8006 27.5993C72.8902 27.6474 72.9178 27.7641 72.8626 27.8465C72.8282 27.9014 72.7661 27.9358 72.704 27.9358L72.6972 27.9426Z"
    fill="#334A52" />
  <path
    d="M75.8277 22.7857H75.807C74.8347 22.6689 73.883 22.408 72.9866 22.0097C72.8969 21.9685 72.8556 21.8586 72.897 21.7694C72.9383 21.6801 73.0487 21.6389 73.1383 21.6801C74.0003 22.0646 74.9105 22.3187 75.8552 22.4286C75.9587 22.4423 76.0276 22.5316 76.0139 22.6346C76.0001 22.7307 75.9242 22.7925 75.8346 22.7925L75.8277 22.7857Z"
    fill="#334A52" />
  <path
    d="M72.9315 17.5255C72.8557 17.5255 72.7867 17.4774 72.7592 17.4019C72.7247 17.3058 72.7729 17.2028 72.8695 17.1684C73.8142 16.8388 74.7176 16.4062 75.5657 15.8775C75.6485 15.8225 75.7657 15.85 75.8209 15.9324C75.8761 16.0148 75.8485 16.1315 75.7657 16.1865C74.8968 16.7289 73.9659 17.1753 73.0005 17.5118C72.9798 17.5186 72.9591 17.5186 72.9385 17.5186L72.9315 17.5255Z"
    fill="#334A52" />
  <path
    d="M70.2198 15.2388C70.2198 15.2388 70.1853 15.2388 70.1646 15.2319C70.0681 15.1976 70.013 15.1015 70.0474 15.0053C70.3715 14.0096 70.6267 12.9865 70.8198 11.9633C70.8404 11.8672 70.9301 11.7985 71.0335 11.8191C71.1301 11.8397 71.199 11.9358 71.1783 12.032C70.9852 13.0757 70.7232 14.1126 70.3922 15.1221C70.3646 15.1976 70.2957 15.2457 70.2198 15.2457V15.2388Z"
    fill="#334A52" />
  <path
    d="M65.9534 16.1107C65.8845 16.1107 65.8155 16.0695 65.781 16.0009C65.4362 15.1631 64.988 14.3666 64.4501 13.6318C64.3881 13.5494 64.4088 13.4395 64.4915 13.3777C64.5743 13.3159 64.6846 13.3365 64.7467 13.4189C65.2983 14.1743 65.7603 14.9983 66.1189 15.8635C66.1603 15.9597 66.1189 16.0627 66.0224 16.1039C66.0017 16.1107 65.9741 16.1176 65.9534 16.1176V16.1107Z"
    fill="#334A52" />
  <path
    d="M54.562 79.1557C51.3555 79.0595 48.1007 79.0595 44.901 79.1557C44.8045 79.1557 44.7148 79.0801 44.7148 78.9771C44.7148 78.8741 44.7907 78.7917 44.8941 78.7917C48.1076 78.6956 51.3693 78.7024 54.5827 78.7917C54.6862 78.7917 54.762 78.881 54.762 78.9771C54.762 79.0733 54.6793 79.1557 54.5758 79.1557H54.562Z"
    fill="#334A52" />
  <path
    d="M45.8776 76.2578C45.781 76.2578 45.6983 76.1754 45.6914 76.0793C45.6914 75.9763 45.7673 75.8939 45.8707 75.8939L49.8289 75.8252C49.9254 75.8389 50.0151 75.9007 50.0151 76.0037C50.0151 76.1067 49.9392 76.1891 49.8358 76.1891L45.8776 76.2578Z"
    fill="#334A52" />
</svg>