<svg width="32" height="33" fill="none" xmlns="http://www.w3.org/2000/svg"><g clip-path="url(#clip0_164_7690)"><path d="M16 31.717L32 9.636l-6.111-8.353H6.11L0 9.636l16 22.081z" fill="#FFDE9D"/><path d="M6.112 1.283l4.554 8.353H0l6.112-8.353zm19.777 0l-4.556 8.353L16 1.283h9.889zm-4.557 8.353L16 31.716l-5.333-22.08h10.666z" fill="#FEEEB3"/><path d="M25.888 1.283l6.11 8.353H21.332l4.556-8.353zm-9.888 0l5.332 8.353H10.666l5.333-8.353zm-5.334 8.353L16 31.716 0 9.637h10.666z" fill="#FDB932"/></g><defs><clipPath id="clip0_164_7690"><path fill="#fff" transform="translate(0 .5)" d="M0 0h32v32H0z"/></clipPath></defs></svg>