<svg width="43" height="45" fill="none" xmlns="http://www.w3.org/2000/svg"><path d="M1.622 40.541c-.117-12.852-.234-25.703-.35-39.112C14.207 7.557 27.163 13.666 40.1 19.794 27.222 27.132 14.344 34.47 1.62 40.54z" fill="#B3EAFE"/><path d="M1.623 41.271a.707.707 0 01-.39-.115.732.732 0 01-.35-.615C.767 27.671.65 14.838.533 1.43c0-.25.117-.48.33-.615a.704.704 0 01.701-.038l38.83 18.365a.67.67 0 01.408.615.748.748 0 01-.37.653C27.75 27.65 14.656 35.105 1.914 41.175a.926.926 0 01-.31.077l.019.02zm.389-38.67c.116 12.583.233 24.704.33 36.807 11.964-5.763 24.259-12.736 36.184-19.537L2.012 2.601z" fill="#334A52"/><path d="M41.504 19.775c-1.245-1.095-2.763-.807-3.58.211-.039.039-.136.135-.272.288-.33.23-.642.442-.973.673-4.902 2.958-10.135 5.398-14.96 8.51-3.404 2.132-7.08 3.765-10.427 5.993-1.673.807-3.248 1.768-4.94 2.517-1.285.538-2.471 1.268-3.658 1.979-.525.346-1.187.538-1.556 1.076-1.42 1.69.758 4.13 2.665 2.996 3.93-2.497 8.268-4.264 12.197-6.723 5.408-2.747 10.563-5.975 15.816-8.99a100.063 100.063 0 016.808-4.016c.195-.115.681-.346.993-.5.797.058 1.614-.249 2.081-.921.778-.865.623-2.286-.194-3.093z" fill="#334A52" opacity=".13"/></svg>