<svg viewBox="0 0 104 93" fill="none" xmlns="http://www.w3.org/2000/svg"><path d="M90.855 16.336c6.92 10.948 12.344 53.788 3.303 63.19C80.229 94.01 22.367 83.033 8.577 61.803 1.52 50.938 70.093-16.533 90.855 16.336z" fill="#B3EAFE"/><path d="M96.004 76.823H15.346a.232.232 0 01-.23-.232v-61.72a.23.23 0 01.23-.231h80.658a.23.23 0 01.231.23v61.721a.232.232 0 01-.23.232zm-80.426-.463h80.195V15.102H15.578V76.36z" fill="#334A52"/><path d="M96.003 20.487H15.346v1.855h80.657v-1.855z" fill="#334A52" opacity=".13"/><path d="M15.352 20.384H96.01V14.87H15.352v5.513z" fill="#FDB932"/><path d="M96.004 20.615H15.346a.232.232 0 01-.23-.231V14.87a.23.23 0 01.23-.231h80.658a.23.23 0 01.231.23v5.514a.232.232 0 01-.23.23zm-80.426-.463h80.195v-5.05H15.578v5.05z" fill="#334A52"/><path d="M76.303 17.858a.232.232 0 01-.23-.23V10.23a.232.232 0 01.462 0v7.396a.232.232 0 01-.232.231zm-39.463 0a.232.232 0 01-.23-.23V10.23a.232.232 0 01.462 0v7.396a.232.232 0 01-.232.231zm-4.902 19.701h-8.082a.232.232 0 01-.231-.231v-6.514c0-.127.104-.231.231-.231h8.081c.128 0 .232.104.232.231v6.514a.232.232 0 01-.231.23zm-7.85-.463h7.618v-6.05h-7.619v6.05zm21.627.463h-8.082a.232.232 0 01-.23-.231v-6.514a.23.23 0 01.23-.231h8.082c.127 0 .231.104.231.231v6.514a.232.232 0 01-.231.23zm-7.85-.463h7.619v-6.05h-7.62v6.05zm21.625.463h-8.08a.232.232 0 01-.231-.231v-6.514c0-.127.104-.231.23-.231h8.082c.128 0 .231.104.231.231v6.514a.232.232 0 01-.23.23zm-7.85-.463h7.62v-6.05h-7.62v6.05zm22.083.463H65.64a.231.231 0 01-.23-.231v-6.514a.23.23 0 01.23-.231h8.082a.23.23 0 01.23.231v6.514a.232.232 0 01-.23.23zm-7.85-.463h7.618v-6.05h-7.618v6.05zm21.625.463h-8.081a.232.232 0 01-.231-.231v-6.514a.23.23 0 01.23-.231h8.082c.127 0 .231.104.231.231v6.514a.232.232 0 01-.231.23zm-7.85-.463h7.619v-6.05h-7.62v6.05zm-47.71 14.396h-8.082a.232.232 0 01-.231-.232v-6.513c0-.127.104-.231.231-.231h8.081c.128 0 .232.104.232.23v6.514a.232.232 0 01-.231.232zm-7.85-.463h7.618v-6.05h-7.619v6.05zm21.627.463h-8.082a.232.232 0 01-.23-.232v-6.513a.23.23 0 01.23-.231h8.082c.127 0 .231.104.231.23v6.514a.232.232 0 01-.231.232zm-7.85-.463h7.619v-6.05h-7.62v6.05zm21.625.463h-8.08a.232.232 0 01-.231-.232v-6.513c0-.127.104-.231.23-.231h8.082a.23.23 0 01.231.23v6.514a.232.232 0 01-.23.232zm-7.85-.463h7.62v-6.05h-7.62v6.05zm22.083.463H65.64a.232.232 0 01-.23-.232v-6.513a.23.23 0 01.23-.231h8.082a.23.23 0 01.23.23v6.514a.232.232 0 01-.23.232zm-7.85-.463h7.618v-6.05h-7.618v6.05zm21.625.463h-8.081a.232.232 0 01-.231-.232v-6.513a.23.23 0 01.23-.231h8.082c.127 0 .231.104.231.23v6.514a.232.232 0 01-.231.232zm-7.85-.463h7.619v-6.05h-7.62v6.05zM31.938 65.42h-8.082a.232.232 0 01-.231-.232v-6.513c0-.127.104-.231.231-.231h8.081c.128 0 .232.104.232.231v6.513a.232.232 0 01-.231.232zm-7.85-.463h7.618v-6.05h-7.619v6.05zm21.627.463h-8.082a.232.232 0 01-.23-.232v-6.513a.23.23 0 01.23-.231h8.082c.127 0 .231.104.231.231v6.513a.232.232 0 01-.231.232zm-7.85-.463h7.619v-6.05h-7.62v6.05zm21.625.463h-8.08a.232.232 0 01-.231-.232v-6.513c0-.127.104-.231.23-.231h8.082c.128 0 .231.104.231.231v6.513a.232.232 0 01-.23.232zm-7.85-.463h7.62v-6.05h-7.62v6.05zm22.083.463H65.64a.232.232 0 01-.23-.232v-6.513a.23.23 0 01.23-.231h8.082a.23.23 0 01.23.231v6.513a.232.232 0 01-.23.232zm-7.85-.463h7.618v-6.05h-7.618v6.05zm21.625.463h-8.081a.232.232 0 01-.231-.232v-6.513a.23.23 0 01.23-.231h8.082c.127 0 .231.104.231.231v6.513a.232.232 0 01-.231.232zm-7.85-.463h7.619v-6.05h-7.62v6.05z" fill="#334A52"/><path d="M41.411 36.171a.224.224 0 01-.18-.09 32.077 32.077 0 01-2.235-3.313.231.231 0 01.396-.236 32.532 32.532 0 002.024 3.03l2.642-3.29a.232.232 0 01.363.288l-2.826 3.521a.22.22 0 01-.18.085l-.004.005zm28.288 13.475a.231.231 0 01-.198-.113 34.832 34.832 0 00-1.906-2.85.234.234 0 01.047-.327.233.233 0 01.325.048 36.984 36.984 0 011.722 2.543 16.074 16.074 0 012.175-3.039.23.23 0 01.34.311 15.583 15.583 0 00-2.302 3.304.22.22 0 01-.198.123h-.01.005zM54.998 64.041a.233.233 0 01-.208-.127l-1.58-3.21a.234.234 0 01.103-.31.234.234 0 01.312.103l1.358 2.761a13.92 13.92 0 012.08-3.261.227.227 0 01.326-.024.227.227 0 01.024.326 13.476 13.476 0 00-2.203 3.596.22.22 0 01-.208.142h-.01l.006.004z" fill="#334A52"/><path d="M27.29 81.51c12.184 0 22.06-9.723 22.06-21.716 0-11.994-9.877-21.716-22.06-21.716-12.183 0-22.06 9.722-22.06 21.716 0 11.993 9.877 21.715 22.06 21.715z" fill="#FDB932"/><path d="M27.29 81.74C15.002 81.74 5 71.896 5 59.795c0-12.102 10.001-21.947 22.29-21.947 12.29 0 22.292 9.845 22.292 21.947 0 12.101-10.002 21.947-22.291 21.947zm0-43.43c-12.034-.006-21.828 9.637-21.828 21.484 0 11.846 9.794 21.484 21.829 21.484S49.12 71.64 49.12 59.794c0-11.847-9.794-21.485-21.83-21.485z" fill="#334A52"/><path d="M27.29 78.64c10.574 0 19.145-8.438 19.145-18.846 0-10.409-8.571-18.846-19.144-18.846-10.573 0-19.145 8.437-19.145 18.846 0 10.408 8.572 18.846 19.145 18.846z" fill="#B3EAFE"/><path d="M27.291 78.866c-10.68 0-19.375-8.557-19.375-19.077 0-10.52 8.69-19.077 19.375-19.077 10.686 0 19.376 8.557 19.376 19.077 0 10.52-8.69 19.077-19.376 19.077zm0-37.687c-10.426 0-18.913 8.35-18.913 18.615 0 10.265 8.483 18.615 18.913 18.615 10.431 0 18.914-8.35 18.914-18.615 0-10.266-8.483-18.615-18.914-18.615z" fill="#334A52"/><path d="M27.802 61.578L35.47 54.2l1.934-3.256-3.411 1.92-7.312 7.637 1.122 1.077z" fill="#FDB932"/><path d="M27.802 61.809a.242.242 0 01-.16-.066l-1.123-1.076a.227.227 0 01-.005-.326l7.312-7.637s.033-.028.052-.042l3.411-1.921a.235.235 0 01.278.038.229.229 0 01.033.278l-1.939 3.257s-.023.033-.037.047l-7.662 7.382a.233.233 0 01-.16.066zm-.797-1.317l.797.765 7.477-7.203 1.477-2.482-2.623 1.477-7.129 7.448v-.005z" fill="#334A52"/><path d="M28.547 58.609c0 .17.108.326.264.382.005.01.01.02.014.024.151.226.109.377.288.74.236.36.82.086.712-.33-.103-.363-.203-.75-.467-1.028-.278-.284-.778-.246-.811.207v.005z" fill="#334A52" opacity=".13"/><path d="M27.372 60.964a.24.24 0 01-.17-.07L16.035 49.112a.227.227 0 01.01-.326.226.226 0 01.325.01l11.167 11.78c.09.095.085.24-.01.326a.228.228 0 01-.16.061h.005z" fill="#334A52"/><path d="M27.282 63.06c-.09 0-.184-.005-.274-.02-.627-.084-1.212-.457-1.604-1.028-.391-.571-.533-1.256-.387-1.874.232-.963 1.114-1.727 2.1-1.822.622-.056 1.269.184 1.778.656.52.486.812 1.138.797 1.78-.014.632-.325 1.255-.853 1.708-.453.387-1.005.6-1.548.6h-.01zm.01-4.29c-.048 0-.095 0-.142.004-.793.07-1.505.69-1.69 1.468-.117.49 0 1.038.322 1.506.32.462.787.769 1.288.835.5.066 1.033-.104 1.462-.472.43-.368.68-.864.689-1.369.01-.505-.231-1.043-.651-1.43-.373-.35-.83-.543-1.279-.543zm.26-13.287a.232.232 0 01-.232-.231v-2.686a.232.232 0 01.463 0v2.686a.232.232 0 01-.232.231zm0 31.151a.232.232 0 01-.232-.232v-2.685a.232.232 0 01.463 0v2.685a.232.232 0 01-.232.232zm16.912-16.92H41.78a.232.232 0 010-.463h2.684a.232.232 0 010 .463zm-31.136 0h-2.685a.232.232 0 010-.463h2.685a.232.232 0 010 .463z" fill="#334A52"/><path d="M42.344 71.617c.052-.062.104-.128.15-.19.345-.476.67-.972.963-1.495.316-.562.59-1.143.878-1.718.113-.227.226-.458.33-.694-.358.538-.226.387-.75.906-.406.368-.854.69-1.24 1.08-.42.459-.831.921-1.293 1.341-.58.557-1.236 1.024-1.826 1.572-.514.486-.731.746-.981.901-.972.737-2.043 1.331-3.133 1.874-1.406.727-2.571 1.128-4.463 1.548-1.623.34-2.142.486-3.774.416-.542-.024-1.09-.038-1.628-.09-.118-.01-.24-.028-.358-.043-.033 0-.061-.009-.095-.014a22.644 22.644 0 01-3.297-.882c-.967-.321-1.109-.468-2.227-.958-.623-.288-1.274-.524-1.84-.92-.429-.293-.486-.402-1.184-.959-1.118-.845-1.5-1.11-2.453-1.874-.811-.613-.85-.57-1.6-1.227-.797-.708-1.471-1.5-1.81-2.006-.274-.396-.525-.811-.831-1.184-.113-.133-.212-.302-.392-.35.312.718.651 1.426 1.033 2.11.425.765.892 1.506 1.326 2.26a38.648 38.648 0 001.717 1.922c.585.462 1.637 1.284 1.953 1.58.59.577 1.203 1.143 1.93 1.54.387.207.802.363 1.203.538 1.514.642 1.392.632 2.972 1.246 1.562.538 3.184.967 4.845.986 1.859.085 2.58.014 4.378-.382.774-.184 1.562-.321 2.326-.548.674-.198 1.632-.632 1.689-.651 1.915-.835 3.807-1.992 4.963-3.049.415-.397.82-.802 1.255-1.18.438-.453.863-.92 1.269-1.402l-.005-.004z" fill="#334A52" opacity=".13"/></svg>