<svg viewBox="0 0 104 93" fill="none" xmlns="http://www.w3.org/2000/svg"><path d="M77.362 79.365c-11.924 6.03-34.408 14.99-46.027 8.208C19.722 80.784 1.09 41.799 12.633 35.049c11.544-6.75 56.289-38.902 67.902-32.113 11.613 6.788 24.749 62.299-3.173 76.429z" fill="#B3EAFE"/><path d="M44.673 80.912c-3.53 0-7.222-.087-11.34-.321a.288.288 0 01-.273-.275c-.35-8.594.107-19.4 6.8-26.742.719-.79 1.532-1.55 2.315-2.282 2.16-2.024 4.397-4.118 4.99-7.044.44-2.164-1.554-4.159-3.483-6.09-.83-.83-1.614-1.614-2.19-2.398a28.759 28.759 0 00-1.216-1.515c-2.748-3.312-6.902-8.308-7.466-23.08 0-.076.024-.152.078-.205a.268.268 0 01.202-.088c10.681-.269 34.561-.064 35.552.223.13.035.214.158.208.287-.333 7.06-1.163 15.076-4.801 20.973-1.057 1.708-2.79 3.615-4.314 5.3-.285.316-.57.626-.831.925-1.514 1.684-3.223 3.598-2.754 5.832.428 2.03 2.196 3.908 4.237 6.09 2.605 2.78 5.846 6.237 7.691 11.432 2.499 7.038 2.344 10.408 1.71 18.019a.293.293 0 01-.285.263c-3.662.088-6.967.217-10.166.334-5.05.187-9.697.362-14.67.362h.006zm-11.044-.877c9.763.538 17.15.263 25.69-.059 3.122-.117 6.35-.24 9.91-.327.606-7.348.73-10.683-1.697-17.528-1.804-5.078-4.996-8.489-7.566-11.227-2.1-2.24-3.917-4.177-4.38-6.365-.534-2.515 1.282-4.54 2.885-6.33.267-.298.546-.608.836-.924 1.508-1.667 3.223-3.551 4.25-5.218 3.524-5.716 4.367-13.515 4.705-20.442-2.552-.228-24.129-.432-34.858-.18.6 14.35 4.64 19.217 7.323 22.44.445.54.866 1.042 1.234 1.545.552.75 1.318 1.521 2.137 2.335 1.94 1.942 4.142 4.142 3.637 6.605-.629 3.106-2.931 5.265-5.163 7.348-.777.725-1.578 1.48-2.284 2.252-6.486 7.108-6.99 17.627-6.664 26.075h.005z" fill="#334A52"/><path d="M73.71 78.672H29.29v4.92h44.418v-4.92z" fill="#FDB932"/><path d="M73.71 83.878H29.29a.29.29 0 01-.29-.286v-4.92a.29.29 0 01.29-.287h44.42c.16 0 .29.129.29.287v4.92a.29.29 0 01-.29.286zm-44.128-.573h43.836v-4.347H29.582v4.347z" fill="#334A52"/><path d="M72.618 8.573H29.29v4.92h43.327v-4.92z" fill="#FDB932"/><path d="M72.617 13.78H29.291a.29.29 0 01-.291-.287v-4.92a.29.29 0 01.29-.286h43.327c.16 0 .291.128.291.286v4.92a.29.29 0 01-.29.287zm-43.035-.573h42.744V8.86H29.582v4.347zm22.609 24.647c-.035 0-.065 0-.1-.017-5.294-1.878-9.234-5.61-11.388-10.788a.282.282 0 01.017-.258.31.31 0 01.22-.14 13.612 13.612 0 014.61.34c.268.064.535.14.802.216.706.199 1.37.386 2.053.42 1.288.077 2.517-.362 3.822-.83.415-.146.843-.298 1.27-.433a15.756 15.756 0 017.554-.444.3.3 0 01.208.158.282.282 0 010 .257c-2.243 4.382-5.311 8.337-8.872 11.443a.294.294 0 01-.19.07l-.006.006zM41.397 27.195c2.1 4.785 5.798 8.255 10.73 10.045 3.358-2.96 6.266-6.693 8.432-10.817a15.19 15.19 0 00-6.89.491c-.415.129-.837.281-1.246.427-1.3.462-2.647.948-4.053.86-.748-.04-1.478-.245-2.178-.444-.261-.07-.522-.147-.784-.211a13.082 13.082 0 00-4.011-.357v.006zM36.578 75.25a.294.294 0 01-.237-.118.275.275 0 01-.036-.269c1.691-4.429 4.427-7.301 6.878-9.53.706-.638 1.436-1.27 2.148-1.884 2.018-1.743 4.113-3.545 6.089-5.938a.28.28 0 01.231-.105c.09 0 .172.04.226.11 1.572 2.025 3.655 3.511 5.673 4.95.884.632 1.804 1.287 2.67 1.983 3.787 3.031 5.537 6.436 5.205 10.122a.291.291 0 01-.315.263c-7.607-.568-15.364-.2-22.859.152l-5.661.263h-.012zm15.067-17.101c-1.94 2.293-3.964 4.036-5.928 5.733a116.27 116.27 0 00-2.136 1.872c-2.327 2.112-4.908 4.81-6.57 8.898l5.217-.245c7.418-.345 15.09-.708 22.64-.17.2-3.381-1.484-6.523-5.015-9.349-.855-.684-1.763-1.334-2.647-1.96-1.953-1.398-3.97-2.837-5.567-4.78h.006zm.071-12.596a.292.292 0 01-.291-.28l-.09-2.885c0-.158.12-.292.28-.292a.281.281 0 01.297.275L52 45.255a.284.284 0 01-.28.292h-.011l.006.006zm.006 6.266a.291.291 0 01-.29-.275l-.108-2.732a.29.29 0 01.28-.299.286.286 0 01.302.275l.107 2.733a.29.29 0 01-.28.298h-.011z" fill="#334A52"/><path d="M43.005 72.974a.098.098 0 01-.09-.053l-1.566-3.019c-.023-.047 0-.105.042-.129a.104.104 0 01.13.041l1.567 3.02c.024.046 0 .105-.041.128a.113.113 0 01-.042.012zm3.478-.434a.095.095 0 01-.083-.046 44.419 44.419 0 01-2.368-4.75c-.018-.047 0-.106.054-.123.047-.018.106 0 .124.052a44.614 44.614 0 002.356 4.733c.024.047.012.105-.036.129-.017.006-.03.012-.047.012v-.006zm3.085-.064a.095.095 0 01-.083-.047 80.212 80.212 0 01-3.507-6.804c-.024-.046 0-.105.047-.128.048-.024.107 0 .131.046a79.776 79.776 0 003.495 6.787c.024.047.012.105-.035.129-.018.005-.03.011-.048.011v.006zm2.884-.24c-.036 0-.071-.017-.083-.052a276.576 276.576 0 01-4.19-8.25c-.023-.046 0-.104.048-.128a.1.1 0 01.13.047 276.254 276.254 0 004.19 8.243.095.095 0 01-.042.129.113.113 0 01-.047.011h-.006zm3.33.188a.098.098 0 01-.09-.053l-5.4-10.472c-.023-.047 0-.105.042-.129a.103.103 0 01.13.041l5.401 10.472c.024.047 0 .106-.042.129a.111.111 0 01-.041.012zm3.062.105c-.035 0-.071-.017-.083-.053a688.341 688.341 0 01-5.537-10.565.102.102 0 01.042-.129.104.104 0 01.13.041 688.494 688.494 0 005.531 10.566.095.095 0 01-.041.128.112.112 0 01-.048.012h.006zm3.192.339a.098.098 0 01-.09-.052l-3.773-7.173a.095.095 0 01.041-.129.103.103 0 01.13.041l3.775 7.173a.095.095 0 01-.042.129.112.112 0 01-.041.011zm.831-1.901c-.035 0-.077-.024-.089-.059a20.25 20.25 0 00-1.127-2.305c-.024-.046-.012-.105.035-.128.048-.024.107-.012.13.035.428.743.814 1.527 1.14 2.322.018.047 0 .106-.053.123-.012 0-.024.006-.036.006v.006zm-17.59-39.694a.104.104 0 01-.089-.059l-1.198-2.785a.088.088 0 01.053-.123.09.09 0 01.125.053l1.198 2.785a.088.088 0 01-.053.123c-.012 0-.024.006-.036.006zm3.329 3.199a.098.098 0 01-.089-.052 40.075 40.075 0 01-2.344-5.423.098.098 0 01.06-.123.1.1 0 01.124.058 40.055 40.055 0 002.338 5.4c.024.047 0 .105-.041.129a.11.11 0 01-.042.011h-.006zm2.749 1.51a.098.098 0 01-.09-.053 50.002 50.002 0 01-2.693-6.406.098.098 0 01.059-.123.1.1 0 01.125.059 49.607 49.607 0 002.682 6.383c.024.046 0 .105-.042.128a.11.11 0 01-.041.012zm1.543-1.222a.098.098 0 01-.09-.053 78.288 78.288 0 01-2.278-5.26c-.018-.046 0-.105.053-.122.048-.018.107 0 .125.052a74.91 74.91 0 002.273 5.242c.024.047 0 .105-.047.129a.113.113 0 01-.042.011h.006zm1.642-1.972a.095.095 0 01-.082-.047 30.274 30.274 0 01-2-4.02c-.018-.046 0-.105.053-.122.048-.018.107 0 .125.052a29.56 29.56 0 001.988 3.996.089.089 0 01-.036.129c-.017.012-.03.012-.047.012zm1.568-1.902c-.036 0-.071-.017-.083-.052a29.35 29.35 0 01-1.288-2.768c-.018-.046 0-.105.054-.122.047-.018.106 0 .124.052.38.936.807 1.86 1.282 2.75a.095.095 0 01-.042.129.113.113 0 01-.047.011zm1.524-1.772a.104.104 0 01-.089-.059l-.688-1.527c-.024-.046 0-.105.048-.128.047-.024.106 0 .13.046l.688 1.527c.024.047 0 .106-.047.129-.012 0-.024.006-.042.006v.006z" fill="#334A52"/><path d="M58.82 25.937a48.402 48.402 0 01-3.787 4.967c-.522.62-.99 1.287-1.507 1.907-.499.603-1.039 1.17-1.56 1.743-.19.229-.464.41-.547.714-.356.75.267 1.703 1.033 1.68.6 0 .967-.533 1.37-.93.932-.902 1.77-1.902 2.588-2.92 1.151-1.305 2.154-2.744 3.11-4.218.326-.492.646-.983.95-1.486.136-.228.314-.45.314-.732.195-1.21-1.4-1.79-1.965-.725zm5.555 45.493a72.679 72.679 0 00-.771-1.867c-1.37-3.241-3.97-5.576-6.635-7.582-1.436-1.07-1.655-1.194-2.718-2.182-.492-.398-.86-1.018-1.424-1.305-1.187-.585-2.26 1.13-1.33 2.106 3.33 3.739 5.223 4.072 8.374 8.08a15.098 15.098 0 011.496 2.796c.1.234.433 1.053.528 1.275v.018c.136.427.332.848.712 1.07.635.416 1.537.158 1.899-.532.35-.62.13-1.287-.142-1.884l.011.006z" fill="#334A52" opacity=".13"/><path d="M66.92 72.371c.06 1.802-.089 3.61-.077 5.412-.018.316.018.579.083.801.487 0 .98 0 1.466-.035.267-.018.534-.059.807-.059h.208c.118-.778.047-1.567.047-2.357.018-1.983.137-3.978 0-5.956a34.15 34.15 0 00-2.13-8.436c-.594-1.305-1.181-2.62-1.887-3.867-.985-1.685-2.19-3.212-3.454-4.669-1.94-2.346-3.394-3.41-4.558-6.055l-.023-.052a21.052 21.052 0 01-.582-1.691c-.208-.538-.178-1.188-.469-1.68a.734.734 0 00-.207-.216c.011-.099.047-.298.077-.42.314-1.17.35-1.282.694-1.949.902-1.62 1.49-2.077 2.754-3.692 1.893-2.392 3.192-3.948 4.883-6.874.944-1.86 1.609-3.867 2.226-5.873.415-1.726.706-3.481.979-5.242.202-1.38.386-2.767.546-4.154 0-.35.1-.222.071-.872a.871.871 0 00-.124-.415c-.428-.836-1.704-.667-1.911.27-.392 3.076-.867 6.142-1.632 9.143-.35 1.504-1.502 4.347-1.632 4.756-.772 1.896-1.94 3.57-3.056 5.242-.078.14-1.78 2.434-2.926 3.827-1.531 1.836-2.92 4.03-3.032 6.563-.024.849.166 1.674.468 2.452.184.45.273.96.534 1.363a.877.877 0 00.362.316 11.43 11.43 0 001.098 1.854c1.128 2.107 3.128 4.394 3.513 4.985 1.211 1.69 1.745 2.363 2.974 4.505.712 1.263 1.311 2.591 1.91 3.913.024.053.042.106.066.158l.023.07c.748 2.095 1.235 4.295 1.662 6.483.208 1.427.184.474.255 2.451h-.006zm6.57 6.851c-.22-.638-.878-.755-1.347-.498a.888.888 0 00-.178-.269c-.558-.637-1.644-.158-1.614.714-.048.837-.083 1.673-.154 2.51.011.398-.078.83.077 1.2.22.59.783.73 1.228.543.012.024.018.047.03.065.403.795 1.62.631 1.816-.252.136-.872.16-1.761.19-2.65-.012-.45.13-.942-.042-1.363h-.006zM71.686 8.27c-.517-.48-1.49-.328-1.697.532-.214.906-.256 1.848-.291 2.778.012.463-.107.972.071 1.405.125.386.487.626.86.66a.932.932 0 00.44.363c.45.24 1.032 0 1.281-.45.19-.34.131-.743.196-1.118.012-.198.09-.906.095-1.012.03-.228.066-.462.119-.684.03-.123.071-.246.113-.369.053-.123.136-.304.201-.392.12-.21.273-.415.273-.667.166-1.03-.985-1.59-1.655-1.047h-.006z" fill="#334A52" opacity=".13"/></svg>