<svg viewBox="0 0 104 93" fill="none" xmlns="http://www.w3.org/2000/svg"><path d="M91.764 44.045c-1.44-1.365-3.1-2.46-4.895-3.304 7.453-8.44 7.294-21.866.263-30.676-6.57-8.23-20.806-10.017-33.638-6.02-24.616 7.679-25.634 9.633-30.402 21.8-2.165 5.536-3.146 13.863-2.686 19.761-4.549 1.848-15.895 11.382-11.353 25.299 3.666 11.216 16.717 16.058 27.792 18.63 11.587 2.693 24.027 1.652 35.004-2.949 10.591-4.435 22.043-12.989 24.638-24.823 1.373-6.26.053-13.2-4.722-17.718z" fill="#B3EAFE"/><path d="M42.336 41.9s-1.466-.975-6.554-.587c-5.089.388-5.476 0-6.356 2.348-.88 2.348-2.251 22.135-.388 26.055 1.863 3.919 4.209 4.411 6.942 4.213 2.743-.2 7.435-2.746 7.435-2.746s-.587-2.642-1.079-8.814c-.491-6.173-.586-12.043-.293-14.495s.293-5.974.293-5.974z" fill="#FDB932"/><path d="M92.42 56.508c.047-1.098-.36-2.13-1.183-2.859-.605-.54-1.314-.786-2.033-1.032 1.797-1.316 3.405-3.152 3.254-5.463-.161-2.414-2.11-4.109-4.36-4.374 1.115-.88 2.373-1.619 3.083-2.878.643-1.136 1.05-2.547.889-3.853-.265-2.14-2.062-3.38-3.973-4.005-2.317-.767-4.861-.795-7.283-.663-1.948.114-3.896.37-5.798.805-1.75.398-3.452.975-5.202 1.335 1.003-2.14 1.315-4.677 1.56-6.968a44.16 44.16 0 00.096-8.37c-.18-2.073-.634-4.099-1.486-6.002-.586-1.306-1.522-2.916-3.083-3.153-3.206-.473-3.386 5.085-3.953 7.101-1.457 5.17-3.632 9.96-6.801 14.306a44.642 44.642 0 01-5.892 6.57c-1.39 1.269-2.876 2.348-4.39 3.408-.132-.51-.378-1.003-.7-1.363-.018-.16-.103-.312-.273-.36-.114-.028-.227-.047-.331-.075-.095-.029-.18-.057-.284-.057-2.213-.511-4.521-.739-6.782-.758-2.014-.018-4.275-.075-5.987 1.165-.028.019-.038.038-.066.057-.019 0-.029-.02-.047-.02-1.258-.35-2.564-.321-3.86-.387-1.295-.067-2.582-.086-3.877-.114-1.287-.028-2.573-.066-3.85-.057-.652 0-1.314.01-1.967.076-.587.057-1.23.038-1.646.511-.236.265-.265.682 0 .938.464.444 1.05.407 1.646.435.652.038 1.315.038 1.967.038 1.287.01 2.573.019 3.85.047 1.295.029 2.582.076 3.878.067.832 0 1.655.009 2.478-.057-1.552 2.13-2.185 5.122-2.488 7.545-.217 1.752-.246 3.513-.35 5.274-.16 2.963-.539 5.917-.435 8.89.076 2.206.407 4.45.993 6.58.227.842.52 1.695.965 2.461.057.17.123.35.199.521a16.96 16.96 0 00-.956-.085c-1.23-.066-2.478-.019-3.717-.029-1.22 0-2.45-.009-3.67.02-1.239.028-2.676-.057-3.868.293-1.088.322-.795 1.799.255 1.894.7.066 1.438 0 2.176-.057 1.9.085 3.82.047 5.713.094l3.603.085c.615.01 1.24 0 1.854 0h.104c1.532 1.24 3.783 1.118 5.656.805 2.866-.492 5.675-1.61 8.408-2.565.937-.322 1.911-.72 2.564-1.496.265-.313.51-.767.643-1.24.917.028 1.835.056 2.743.132 2.355.19 4.644.738 6.98 1.023 4.464.549 8.957.605 13.44.937 4.039.293 8.106.729 12.135.142 3.027-.445 6.252-1.364 7.813-4.213 1.23-2.244 1.22-5.501-1.145-6.77 1.39-1.107 2.706-2.329 2.781-4.232h.01zM43.634 40.953c.132-.492.321-1.439.946-.757.17.19.264.549.35.87-.511.36-1.032.72-1.542 1.099.066-.407.142-.824.246-1.212zM29.049 55.315c.113-1.817.123-3.645.236-5.462.19-2.85.398-6.77 2.327-9.042 1.495-1.77 3.973-1.619 6.082-1.6 1.702.01 3.414.34 5.117.379-.407.7-.577 1.61-.71 2.357-.293 1.553-.548 3.115-.709 4.696-.407 4.175-.322 8.455-.218 12.649.048 2.073.17 4.147.436 6.21.189 1.506.35 3.144.86 4.583.095.256.208.52.36.757-1.485.294-2.96.938-4.351 1.364-1.977.606-4.672 1.505-6.536.16-1.201-.87-1.844-2.376-2.204-3.777-.482-1.903-.823-3.9-.917-5.86-.123-2.471.076-4.943.227-7.404v-.01zm15.748 14.78c-.548.283-.757-.285-.86-.786.453.037.907.085 1.37.104-.122.303-.283.568-.51.681zm42.27-9.27c-.237.398-.039 1.099.472 1.175 2.686.388 2.176 3.654.549 4.913-1.618 1.25-3.86 1.77-5.827 2.14-2.828.53-5.75.729-8.654.7-.085 0-.17-.009-.265-.018a260.684 260.684 0 00-5.429-.332c-4.341-.483-8.588-1.505-12.939-1.94-3.726-.37-7.756-1.156-11.51-.53-.152-.89-.284-1.78-.379-2.67-.369-3.4-.388-6.827-.388-10.245 0-3.36-.066-6.75.416-10.083.029-.208.067-.426.095-.643.076.019.17.028.274-.02 3.954-1.637 7.52-4.98 10.386-8.085 3.083-3.342 5.807-7.176 7.67-11.342.937-2.092 1.693-4.28 2.384-6.466.501-1.6.756-3.229 1.182-4.838.17-.653.378-1.562.918-2.017.737-.625 1.513.17 1.929.786 1.003 1.487 1.39 3.475 1.551 5.236.255 2.774.16 5.614-.028 8.388a35.153 35.153 0 01-.558 4.327c-.303 1.505-.823 2.954-1.135 4.459-.199.937 1.06 1.543 1.58.663 0-.01.009-.02.018-.029 3.046-.274 6.006-1.202 9.061-1.42 2.44-.18 5.013-.208 7.425.275 1.542.312 3.83.9 4.313 2.65.293 1.051-.19 2.169-.671 3.078-.795 1.524-1.552 2.859-2.895 3.957-.321.265-.028.739.312.767 2.346.142 4.398 2.263 3.67 4.705-.539 1.809-2.658 2.424-3.443 4.071-.198.407.029 1.099.587 1.032 2.25-.265 4.275 2.064 2.847 4.11-.937 1.344-2.677 1.855-3.538 3.265l.02-.018z" fill="#334A52" fill-opacity=".8"/></svg>