<svg viewBox="0 0 104 93" fill="none" xmlns="http://www.w3.org/2000/svg"><path d="M101.954 35.734c-1.672-11.593-6.636-24.08-17.476-29.835C72.355-.548 55.766-1.89 42.757 2.764 27.577 8.197 15.733 17.39 9.765 28.307 4.319 38.277 3.5 50.292 7.519 60.744c4.027 10.469 12.334 18.8 22.195 23.92 9.548 4.96 22.084 8.525 31.278 1.022 2.507-2.045 4.432-4.461 5.901-7.114 9.852.32 19.409-2.155 26.365-9.877 8.063-8.948 10.376-21.284 8.696-32.961z" fill="#B3EAFE"/><path d="M26.06 35.366c.222-.154 7.128-1.829 11.435-4.122 4.307-2.287 7.652-3.968 9.282-3.51 1.637.456 2.304.759 2.304.759s-5.642 3.968-6.532 7.552c-.89 3.584-.962 4.956 1.414 5.11 2.376.156 4.903-.611 6.389-1.983 1.486-1.372 3.194-2.825 4.307-2.67 1.113.155 7.423 2.596 7.423 2.596s2.304 1.453 3.71 5.952c1.415 4.499.82 7.323.597 8.164-.223.84-2.75 3.74-3.49 4.882-.738 1.144-1.78 2.596-2.892 2.596-1.113 0-3.115-1.069-3.115-1.069s-1.86 1.829-3.044 1.681c-1.192-.154-3.862-3.127-3.862-3.127s3.266-3.127 3.115-4.122c-.15-.996-1.636-1.372-2.67-1.143-1.041.228-1.931.383-1.931.383s.15-1.984-1.637-2.212c-1.78-.229-4.458 1.526-4.458 1.526s0-2.367-1.414-2.44c-1.414-.075-3.417 1.754-3.417 1.754s-.667-2.514-2.972-1.143c-2.304 1.372-3.194 5.495-3.194 5.495l-5.42-.841s-1.78-4.499-1.709-9.079c.072-4.58 1.78-10.989 1.78-10.989z" fill="#fff" fill-opacity=".5"/><path d="M17.79 30.41s5.944.915 7.33 1.726c1.385.811 1.19 1.32 1.19 1.32s-2.174 7.626-1.88 12.206c.294 4.58 2.175 10.576 2.175 10.576s-2.67 2.441-5.047 2.139c-2.375-.303-4.55-.51-6.037-3.666-1.486-3.156-1.68-9.255-1.285-14.035.395-4.779 3.568-10.273 3.568-10.273l-.014.008zm69.114-1.12s-1.385-.104-4.156.81c-2.771.915-4.954 2.036-4.752 2.545.2.509 2.081 6.918 2.175 10.273.1 3.356-.1 7.833-.79 9.566-.696 1.726-1.68 3.459-1.68 3.459s1.981 1.526 5.348 1.63c3.367.103 5.047-1.224 6.138-3.562 1.091-2.338 1.586-8.445 1.385-11.395-.2-2.95-1.78-9.565-2.082-10.48-.294-.914-1.586-2.847-1.586-2.847z" fill="#FDB932"/><path d="M101.197 54.542c-.273.022-.546.022-.811.036-.826-.125-1.716-.088-2.506-.11-1.263-.037-2.534-.118-3.797-.126-.933 0-1.866.082-2.8.111-.48.015-.962.015-1.435-.022a4.762 4.762 0 01-.453-.066c.869-1.616 1.35-3.518 1.601-5.222.567-3.872.094-7.817-.466-11.66-.273-1.88-.66-3.665-1.486-5.384-.424-.885-.977-1.917-1.615-2.795.28-.037.552-.066.796-.08 1.465-.104 2.93-.222 4.394-.34 2.605-.207 5.204-.509 7.81-.657.646-.036.653-1.003 0-1.04-2.606-.132-5.219.096-7.81.273-1.494.104-2.98.207-4.473.296-.682.044-1.471 0-2.204.08-1.184-.641-2.584-.206-3.854.215-1.81.604-4.013 1.386-5.427 2.75-.029 0-.05-.007-.08-.007-.164 0-.294.14-.3.31-.015.568-.022 1.106.265 1.585-1.974.2-4.049-.044-5.8-1.025-2.441-1.372-4.623-3.2-7.086-4.558-2.225-1.216-4.989-2.315-7.551-2.072-1.163.11-2.255.398-3.288.834-.869.272-1.709.626-2.498 1.128h-.008c-.746-.472-1.464-1.025-2.29-1.335-.882-.34-1.844-.332-2.763-.2-2.247.318-4.35 1.262-6.382 2.258-2.14 1.047-4.207 2.212-6.324 3.311a57.96 57.96 0 01-3.345 1.593 6.393 6.393 0 01-.898.295c.072-.34.072-.7.065-1.077a.312.312 0 00-.302-.31c-.028 0-.05 0-.079.008-1.227-1.18-3.014-1.844-4.565-2.441-1.314-.502-3.137-1.306-4.523-.657-.078.037-.143.089-.222.126-.725-.081-1.508-.037-2.182-.081-1.493-.089-2.98-.192-4.473-.295-2.598-.177-5.211-.406-7.81-.273-.653.037-.646 1.003 0 1.04 2.606.155 5.212.457 7.81.656 1.465.118 2.93.229 4.394.34.258.014.538.05.825.088-.337.501-.632 1.032-.926 1.497-.99 1.563-1.65 3.37-1.974 5.2-.696 3.93-1.249 8.127-.818 12.117.222 2.08.71 4.314 1.73 6.194-.596.06-1.185.14-1.795.126-.962-.022-1.93-.118-2.893-.11-1.227.007-2.455.088-3.675.125-1.192.036-2.613-.074-3.733.405-.223.096-.223.51 0 .605h.014c-.1.17-.028.42.23.45 2.764.258 5.6.044 8.37.066.696 0 1.4.015 2.096.03.668.015 1.465-.089 2.11.11.955.295 1.638 1.394 2.506 1.896 1.989 1.143 4.4.826 6.44-.022.976-.406 1.772-.966 2.612-1.6.69-.524 1.048-.561 1.902-.362.474.118.955.258 1.436.317.51.848 1.536 1.409 2.498 1.305.38-.044.747-.154 1.113.015.337.162.61.443.926.65.675.434 1.378.508 2.118.338.56.981 1.385 1.896 2.505 2.117.488.096 1.27.11 1.852-.147.18.67.467 1.276 1.012 1.74.618.538 1.386.79 2.183.87 1.73.17 3.61-.523 5.068-1.445a9.568 9.568 0 001.177-.878c.136-.125.316-.273.474-.435.438.31.911.546 1.421.657 1.249.272 2.864-.104 3.783-1.1 1.5 1.675 4.322.723 5.283-1.113 2.377.797 4.781-1.438 6.418-2.987 1.32-1.254 2.98-2.16 4.702-2.692.797-.25 1.651-.376 2.505-.523.05 1.799.704 3.517 2.39 4.358 1.1.546 2.384.775 3.576.944 1.198.162 2.44.244 3.625-.096a7.064 7.064 0 002.957-1.703c.539-.517.876-.87 1.659-.937.667-.059 1.364-.022 2.031-.007 3.008.051 6.044.413 9.052.213 1.048-.066 1.056-1.755 0-1.681l-.014-.007zm-51.42 3.289a.5.5 0 00-.28.42c-.007.531.33.952.71 1.291.116.17.23.332.36.494-.488.25-.912.642-1.379.93-.545.339-1.105.648-1.694.892-.947.398-1.995.723-2.986.302-.876-.376-1.493-1.231-1.421-2.227.079-1.062.825-2.014 1.514-2.751 1.343-1.446 3.044-2.884 4.896-3.562.912-.332 2.039-.56 2.922-.022.495.302.323.678.043 1.113-.46.7-1.113 1.232-1.687 1.83-.352.368-.768.803-.998 1.29zm-1.615-4.816c-1.615.797-3.065 2.072-4.25 3.356-.832.9-1.644 1.99-1.78 3.267v.074c-.84.612-2.706.885-3.18-.295-.388-.974.15-1.962.675-2.766.639-.974 1.493-1.807 2.369-2.552.954-.811 2.053-1.681 3.208-2.168.69-.288 1.709-.56 2.412-.2.316.163.575.392.625.775a.99.99 0 01-.08.509zm-6.346-.509l-.043.03c-1.163.9-2.24 1.932-3.108 3.141-.438.613-.84 1.387-.977 2.176-.057.022-.122.037-.186.06a3.695 3.695 0 01-.804.154c-.467.037-1.02 0-1.278-.457-.395-.7.065-1.638.467-2.33.524-.915 1.213-1.72 1.952-2.464.697-.7 1.486-1.401 2.37-1.83.523-.257 1.306-.338 1.621.303.187.384.094.804-.014 1.217zm-4.903-.472c-.754.738-1.45 1.556-2.003 2.449-.473.76-.89 1.74-.768 2.655-.632.022-1.328-.037-1.823-.435-.704-.554-.251-1.697.072-2.331.416-.819.983-1.541 1.6-2.198.582-.62 1.314-1.386 2.19-1.49.804-.095.847.701.725 1.358l.007-.008zm40.437 2.84s-.043.029-.058.044a3.958 3.958 0 01-.043-1.342c.015-.133.043-.266.065-.399a7.757 7.757 0 001.228-.405 8.48 8.48 0 01-.568 1.283c-.172.31-.359.583-.624.819zm3.84-25.422a27.86 27.86 0 012.305-.716c.739-.199 1.471-.405 2.132.126.919.737 1.615 2.264 2.124 3.311.733 1.505 1.163 3.157 1.4 4.809.517 3.547.97 7.205.632 10.79-.237 2.566-.933 5.486-2.7 7.411-1.19 1.298-2.64 1.844-4.37 1.792-1.594-.044-2.88-.826-4.272-1.453.316-.346.574-.767.76-1.106.812-1.526 1.078-3.319 1.315-5.015.236-1.652.38-3.355.337-5.022-.079-3.238-.589-6.52-1.63-9.58-.323-.944-.84-2.928-1.816-3.695 1.278-.502 2.491-1.195 3.783-1.66v.008zm-3.61 3.097c-.209.037-.417.067-.632.096a5.48 5.48 0 01-.086-1.12c.294.19.538.611.718 1.024zM54.715 26l.043-.022c.818-.088 1.622-.015 2.52.103 3 .406 5.642 1.793 8.154 3.452 2.147 1.416 4.35 3.459 6.899 4.034a17.83 17.83 0 003.05.398c.84.037 1.824.052 2.556-.42.18.56.31 1.136.453 1.703.603 2.405.94 4.898 1.141 7.368.216 2.626.158 5.259-.366 7.855a16.01 16.01 0 01-.122.56c-3-.192-6.375.937-8.8 2.626-2.29 1.593-4.035 4.034-6.713 4.867a7.45 7.45 0 00.682-1.091c.065-.081.122-.163.172-.229.388-.487.768-.988 1.135-1.497.682-.937 1.328-1.91 1.672-3.024a15.58 15.58 0 00.69-4.491c.006-3.053-1.027-6.195-3.145-8.364 1.235.192 2.613.288 3.54-.42.28-.214.243-.819-.202-.774-1.436.147-2.742.177-4.185-.03-1.658-.236-3.338-.523-4.946-1.003-1.342-.398-2.577-1.246-3.991-1.372-1.213-.103-2.484.384-3.453 1.114-2.06 1.556-4.71 4.396-7.509 3.4-1.902-.679-1.802-2.758-.94-4.307.79-1.43 1.974-2.56 3.065-3.747 1.3-1.408 2.541-2.846 3.769-4.321 1.22-1.468 3.094-1.888 4.83-2.375V26zm-25.541 7.442c.976-.362 1.93-.819 2.878-1.261 2.025-.944 3.963-2.088 6.002-3.002 1.988-.892 3.99-1.8 6.116-2.279 1.012-.229 2.168-.435 3.194-.162.725.192 1.371.56 2.032.914-1.264.959-2.362 2.058-3.482 3.216a25.268 25.268 0 00-3.324 4.21c-.861 1.38-1.55 3.165-.911 4.78 1.105 2.795 4.773 2.19 6.748.966 1.32-.819 2.562-1.792 3.761-2.78.761-.627 1.393-1.143 2.426-1.033 1.027.103 1.939.656 2.857 1.077 1.874.863 4.006 1.21 6.023 1.534.122.022.259.044.395.066 2.053 2.596 3.051 5.694 2.886 9.035-.072 1.408-.309 2.98-.905 4.263-.222.486-.502.95-.79 1.416a10.554 10.554 0 00-.516-4.367c-.66-1.94-2.046-3.51-3.417-4.963-.783-.826-1.594-1.615-2.405-2.404-.797-.775-1.536-1.586-2.462-2.205-.266-.177-.567.17-.424.435.869 1.585 2.42 2.802 3.661 4.078 1.321 1.35 2.779 2.803 3.618 4.529.776 1.592 1.012 3.554.768 5.31-.122.862-.38 1.696-.847 2.426-.215.34-.51.62-.81.9.128-.812.042-1.682-.173-2.493-1.307-4.986-6.195-7.523-8.758-11.697-.194-.317-.639-.044-.48.288.91 1.917 2.44 3.348 3.825 4.897 1.364 1.534 2.62 3.223 3.503 5.096.618 1.305 1.343 2.994.797 4.454-.301.804-1.048 1.527-1.916 1.55a2.5 2.5 0 01-1.386-.4c-.23-.14-.41-.338-.603-.523.13-.737-.036-1.519-.251-2.22-.481-1.556-1.22-2.928-2.276-4.152-1.163-1.342-2.512-2.515-3.618-3.901-.165-.207-.48.059-.351.28.854 1.423 1.952 2.61 2.957 3.924 1.048 1.371 1.88 2.81 2.312 4.513.172.686.473 1.962-.1 2.545-.489.494-1.365.464-1.996.405-.726-.066-1.364-.48-1.946-.922a4.019 4.019 0 01-.883-.907c-.194-.28-.344-.582-.553-.855.431-.406.926-.745 1.357-1.136.632-.575 1.314-1.18 1.737-1.932.374-.664.41-1.446-.18-1.992-.86-.81-2.196-.833-3.273-.597a7.267 7.267 0 00-1.155.369c0-.952-.84-2.006-1.759-2.227-1.572-.377-3.13.457-4.436 1.393.071-.98-.345-1.961-1.436-2.146-1.335-.228-2.599.76-3.582 1.623-.022-.472-.201-.93-.553-1.232-1.005-.87-2.283-.11-3.137.612a10.626 10.626 0 00-2.268 2.751c-.316.546-.61 1.21-.711 1.88-.115-.036-.23-.073-.352-.103a14.66 14.66 0 00-1.493-.317c-.474-.066-.976-.14-1.457-.132-.215 0-.438.036-.653.059-.087.014-.173.03-.252.051v-.015c-.667-1.076-.99-2.315-1.249-3.547-.552-2.648-.617-5.332-.402-8.024.194-2.448.539-4.926 1.127-7.309.158-.634.295-1.29.503-1.91.014-.044.036-.103.05-.155.804-.17 1.608-.25 2.39-.538l.008-.007zm-1.4-1.188c0 .266-.014.531-.05.797-.223.051-.438.11-.654.177.18-.398.417-.797.704-.981v.007zm-12.8 17.25c-.51-3.429-.129-7.006.324-10.42.423-3.201 1.256-6.122 3.1-8.784.482-.693 1.042-1.15 1.917-1.025.804.118 1.623.413 2.398.664 1.558.508 2.994 1.32 4.515 1.902-.983.76-1.493 2.751-1.816 3.695-1.04 3.053-1.55 6.343-1.63 9.58-.042 1.667.108 3.37.338 5.023.244 1.703.503 3.495 1.314 5.015.186.346.445.774.768 1.113-1.17.546-2.29 1.254-3.582 1.402-1.558.184-3.188-.045-4.415-1.107-2.003-1.733-2.857-4.484-3.238-7.057h.008z" fill="#334A52" fill-opacity=".8"/></svg>