<svg viewBox="0 0 104 93" fill="none" xmlns="http://www.w3.org/2000/svg"><path d="M3.151 51.601C-3.01 41.334 17.212 10.174 24.81 5.614c10.328-6.197 70.39 6.732 76.376 17.102 5.984 10.37-22.583 68.39-34.58 67.268C48.366 88.274 15.12 71.554 3.15 51.6z" fill="#B3EAFE"/><path d="M65.35 84.94c-3.543 0-6.978-.047-9.268-.15-1.446-.06-2.934-.129-4.365-.537-3.485-1.001-5.847-4.4-6.648-7.327-.795-2.922-.33-5.938.3-8.764.58-2.615 2.469-6.19 4.652-10.33 4.193-7.94 9.932-18.822 10.434-30.52.093-2.112.7-3.385 1.867-3.91 2.133-.953 5.446 1.117 8.71 3.5.121.09.2.219.221.355 1.86 12.843 6.462 23.717 9.819 31.65 1.245 2.936 2.311 5.469 3.07 7.654.987 2.84 1.825 8.383 1.438 11.277-.436 3.228-2.82 5.843-6.068 6.667-1.102.279-7.815.435-14.163.435zm-4.323-57.608l.572.02c-.515 11.937-6.318 22.935-10.555 30.963-2.147 4.072-4.008 7.593-4.559 10.071-.593 2.697-1.052 5.564-.307 8.267.694 2.547 2.826 5.686 5.868 6.565 1.295.374 2.712.435 4.086.49 6.527.286 21.626.122 23.086-.252 2.805-.708 4.86-2.97 5.231-5.754.365-2.71-.465-8.124-1.388-10.8-.744-2.152-1.81-4.671-3.048-7.593-3.364-7.94-7.965-18.8-9.862-31.684-1.803-1.315-5.61-4.018-7.342-3.242-.737.327-1.145 1.328-1.217 2.97l-.572-.021h.007z" fill="#334A52"/><path d="M80.114 58.098c-10.062.17-19.587-.47-29.635.075-1.939 3.69-4.043 7.79-4.558 10.105-.623 2.812-1.066 5.727-.308 8.518.759 2.786 3.041 6.02 6.255 6.946 1.352.388 2.798.456 4.229.518 6.47.279 21.662.136 23.258-.266 3.227-.817 5.274-3.39 5.653-6.21.38-2.82-.472-8.315-1.417-11.038-.837-2.424-2.082-5.319-3.492-8.642l.014-.006z" fill="#FDB932"/><path d="M65.35 84.94c-3.543 0-6.978-.047-9.268-.15-1.446-.06-2.934-.129-4.365-.537-3.485-1.001-5.847-4.399-6.648-7.327-.795-2.921-.33-5.938.3-8.764.53-2.377 2.655-6.53 4.602-10.242a.572.572 0 01.479-.3c5.975-.32 11.872-.224 17.583-.135 3.929.061 7.986.13 12.073.061.229-.014.45.13.536.34l.423.995c1.245 2.941 2.325 5.481 3.084 7.68.987 2.84 1.825 8.383 1.438 11.277-.436 3.228-2.82 5.843-6.068 6.667-1.102.28-7.815.436-14.163.436h-.007zM50.843 58.69c-1.875 3.575-3.872 7.504-4.359 9.697-.593 2.696-1.052 5.563-.307 8.266.694 2.547 2.826 5.686 5.868 6.565 1.295.374 2.712.436 4.086.49 6.527.286 21.626.123 23.086-.252 2.805-.708 4.86-2.969 5.231-5.754.365-2.71-.465-8.124-1.388-10.8-.751-2.158-1.818-4.685-3.056-7.613l-.271-.647c-3.972.062-7.908 0-11.722-.068-5.575-.088-11.343-.184-17.168.116zm-7.611-22.887a.597.597 0 01-.465-.225.515.515 0 01.036-.674c4.15-4.542 7.385-10.092 9.346-16.057.472-1.423 1.94-3.697 3.893-3.731a2.6 2.6 0 011.703.647c1.167 1.014 1.568 2.996 1.024 5.052-.494 1.866-1.64 3.52-2.584 4.76-3.62 4.746-8.144 8.362-12.738 10.18a.61.61 0 01-.222.041l.007.007zm12.846-19.598h-.022c-1.209.02-2.411 1.737-2.82 2.97a45.856 45.856 0 01-7.907 14.503c3.593-1.927 7.049-4.957 9.933-8.736.938-1.226 1.954-2.71 2.397-4.386.437-1.647.165-3.254-.687-3.983-.193-.17-.508-.368-.901-.368h.007z" fill="#334A52"/><path d="M53.387 17.873c-1.553 0-3.392-.231-5.518-.497l-.236-.027c-.615-.075-1.095-.477-1.524-.892-.451-.443-.558-1.076-.63-1.689l-.043-.34c-.15-1.206-.358-2.854.372-3.76.523-.646 1.281-.891 1.832-1.068.88-.286 1.818-.395 2.727-.504.794-.095 1.546-.184 2.247-.381a.574.574 0 01.436.047.54.54 0 01.272.327c.594 2.009.96 8.022.523 8.573a.607.607 0 01-.465.225l.007-.014zm-1.024-7.98c-.608.129-1.238.204-1.846.279-.887.109-1.732.204-2.498.456-.558.184-1.008.347-1.295.708-.45.552-.257 2.063-.143 2.962l.043.354c.036.314.1.838.315 1.056.265.265.58.538.852.572l.236.027c1.86.232 3.492.436 4.873.477.05-1.22-.057-4.8-.53-6.891h-.007z" fill="#334A52"/><path d="M60.983 24.192a.555.555 0 01-.55-.415c-.83-3.173-4.301-5.257-7.02-6.08a.538.538 0 01-.394-.47l-.036-.402c-.057-.6-.115-1.199-.165-1.791a637.39 637.39 0 01-.408-5.135l-.036-.504a.553.553 0 01.516-.578c1.896-.177 3.778-.314 5.546-.43 2.662-.176 5.417-.367 8.15-.04 2.248.265 4.488 1.171 6.477 2.608.501.367.98.708 1.439 1.028 3.363 2.397 5.589 3.984 4.258 6.033-.63.967-2.162 1.076-3.643 1.185-.966.068-1.968.143-2.426.45-1.11.735-1.474 2.451-1.26 3.772a.518.518 0 01-.128.436.57.57 0 01-.43.19l-9.868.137h-.007l-.015.006zm-6.862-7.408c2.934.967 6.233 3.085 7.299 6.319l8.802-.123c-.086-1.538.415-3.302 1.804-4.215.715-.47 1.817-.551 2.99-.64 1.146-.081 2.434-.177 2.756-.674.751-1.157-.673-2.247-3.972-4.596-.458-.327-.937-.668-1.445-1.035-1.825-1.321-3.872-2.152-5.926-2.397-2.619-.314-5.317-.13-7.929.047-1.581.11-3.263.225-4.96.375.137 1.702.266 3.405.409 5.1.05.593.107 1.192.157 1.784v.048l.015.007z" fill="#334A52"/><path d="M61.589 31.853c-.565 0-1.31-.014-1.947-.34a2.79 2.79 0 01-.594-.423c-.536-.49-.915-1.157-1.087-1.933-.136-.572-.15-1.144-.165-1.696-.028-1.117-.064-2.383.544-3.534.136-.266.372-.64.823-.845.344-.156.723-.163.995-.17 1.674-.027 3.406-.054 4.751-.102h4.273c1.195-.007 2.39.109 3.099.913.536.612.558 1.382.572 1.94l.072 2.874c.014.545.028 1.219-.258 1.845-.186.402-.787 1.3-2.355 1.158a126.04 126.04 0 01-8.637.313h-.086zm7.593-7.967h-4.258c-1.338.055-3.077.082-4.752.109-.186 0-.4 0-.515.061-.1.048-.193.157-.294.348-.479.912-.45 2.036-.422 3.023.014.524.029 1.021.136 1.491.093.395.3.954.766 1.383.114.109.229.19.343.245.38.197.895.21 1.482.21 2.855 0 5.753-.108 8.602-.312h.107c.637.068 1.052-.103 1.238-.511.186-.402.172-.899.165-1.376l-.072-2.873c-.014-.538-.043-.98-.308-1.274-.408-.463-1.302-.53-2.218-.53v.006z" fill="#334A52"/><path d="M62.007 29.572a.187.187 0 01-.186-.19c.058-1.403 0-2.827-.179-4.216a.176.176 0 01.165-.197c.093-.014.2.061.207.156a26.67 26.67 0 01.186 4.277c0 .095-.085.177-.193.177v-.007zm3.545-.082a.183.183 0 01-.186-.15 20.434 20.434 0 01-.257-4.282c0-.102.093-.17.2-.17.107 0 .186.088.179.19a19.82 19.82 0 00.258 4.215.18.18 0 01-.158.204h-.029l-.007-.006zm3.486 0a.192.192 0 01-.193-.177 28.695 28.695 0 00-.472-4.133c-.022-.095.05-.19.15-.211.1-.014.2.048.222.143.265 1.376.422 2.785.48 4.181a.192.192 0 01-.186.19h-.008l.007.008zM51.683 61.713a.192.192 0 01-.193-.177c0-.102.079-.184.186-.184l8.001-.204c.1 0 .186.075.193.177a.182.182 0 01-.186.184l-8 .204zm-1.216 2.404c-.093 0-.179-.068-.186-.163-.014-.102.064-.191.172-.198.923-.095 1.867-.13 2.805-.102.107 0 .186.089.186.184 0 .102-.072.177-.193.177-.916-.027-1.846 0-2.748.102h-.036zM38.944 14.162h-.014a889.26 889.26 0 01-12.781-.34.563.563 0 01-.551-.565.555.555 0 01.594-.525c4.236.143 8.523.259 12.76.34a.55.55 0 01.558.552c0 .3-.258.531-.573.531l.007.007zm.329-3.697a.56.56 0 01-.186-.028 21.139 21.139 0 01-8.709-5.529.529.529 0 01.043-.77.596.596 0 01.809.041c2.225 2.37 5.073 4.181 8.23 5.23.3.102.45.409.35.695a.567.567 0 01-.537.36zm-7.186 11.869a.582.582 0 01-.437-.19.517.517 0 01.065-.763 30.449 30.449 0 016.791-4.181.58.58 0 01.759.258.529.529 0 01-.272.722 28.832 28.832 0 00-6.534 4.024.574.574 0 01-.372.13z" fill="#334A52"/><path d="M25.556 59.526c-3.778 0-7.55-1.552-9.933-4.337-2.39-2.785-3.406-6.551-2.94-10.12 1.094-8.484 9.517-14.3 13.08-22.15 2.642 3.956 5.282 7.919 7.923 11.875 2.183 3.275 4.401 6.626 5.324 10.405.916 3.78-.408 14.327-13.454 14.327z" fill="#FDB932"/><path d="M25.557 60.071c-4.065 0-7.944-1.696-10.377-4.535-2.447-2.853-3.563-6.694-3.063-10.528.673-5.182 4.015-9.424 7.257-13.53 2.183-2.772 4.444-5.639 5.868-8.764a.587.587 0 011.009-.075l7.922 11.876c2.183 3.275 4.444 6.666 5.396 10.568.558 2.288.322 6.966-2.605 10.473-2.505 3.003-6.34 4.522-11.4 4.522l-.007-.007zm.286-36.016c-1.467 2.888-3.542 5.516-5.56 8.07-3.292 4.174-6.405 8.117-7.035 13.013-.45 3.493.601 7.122 2.82 9.71 2.218 2.595 5.768 4.14 9.489 4.14 4.695 0 8.223-1.382 10.505-4.113 2.677-3.207 2.899-7.47 2.39-9.547-.908-3.725-3.112-7.034-5.245-10.234l-7.364-11.032v-.007z" fill="#334A52"/><path d="M25.195 71.26h-.022a.552.552 0 01-.543-.566c.479-11.01.68-22.192.594-33.224 0-.3.25-.544.565-.544a.56.56 0 01.572.538 653.145 653.145 0 01-.594 33.278.557.557 0 01-.572.517z" fill="#334A52"/><path d="M25.9 52.873s-.05 0-.071-.013c-.093-.041-.143-.143-.1-.239 1.445-3.275 4.222-6.013 7.607-7.518.093-.04.207 0 .25.09a.178.178 0 01-.093.237c-3.3 1.465-6.004 4.134-7.421 7.328a.19.19 0 01-.179.108l.007.007zm-.107-5.808a.185.185 0 01-.164-.089c-.902-1.382-1.832-2.819-3.27-3.854-.63-.456-1.36-.824-2.062-1.185l-1.825-.932a.176.176 0 01-.078-.246.195.195 0 01.257-.075l1.825.933c.716.368 1.46.743 2.111 1.22 1.503 1.075 2.49 2.607 3.371 3.949.057.081.029.197-.064.252a.17.17 0 01-.1.027z" fill="#334A52"/></svg>