<svg viewBox="0 0 104 93" fill="none" xmlns="http://www.w3.org/2000/svg"><path d="M98.84 46.9c-.414-5.296-1.984-10.3-5.54-14.373-3.532-4.051-15.116-12.51-19.812-15.082C52.854 6.116 39.011 1.28 23.642 11.923 14.94 17.948 9.296 27.128 7.082 37.036c-1.341 5.982-1.808 12.13-2.03 18.236-.207 5.624.126 11.212 2.481 16.414C17.028 92.72 44.077 95.46 64.275 91.423c10.072-2.011 20.16-6.273 26.596-14.47 6.57-8.363 8.777-19.685 7.97-30.06v.008z" fill="#B3EAFE"/><path d="M26.018 52.395c-.048 0-.09-.013-.138-.027a.566.566 0 01-.248-.144c-.772-.79-1.11-1.298-1.441-1.786-.359-.528-.69-1.03-1.655-1.93a.548.548 0 01.007-.803c6.682-6.07 11.212-10.273 15.605-14.33a1645.482 1645.482 0 0119.301-17.642.554.554 0 01.772.034c.449.488.856.9 1.248 1.298.8.804 1.552 1.566 2.545 2.857a.54.54 0 01-.09.755c-11.557 9.415-28.038 24.652-33.458 29.658-1.903 1.765-2.227 2.054-2.455 2.054l.007.006zm-2.303-4.27a9.724 9.724 0 011.386 1.71c.255.377.496.74.951 1.242.36-.33.952-.872 1.67-1.538 5.357-4.951 21.528-19.9 33.092-29.363-.8-.989-1.448-1.648-2.13-2.335-.29-.295-.587-.59-.904-.927a1523.578 1523.578 0 00-18.888 17.27c-4.296 3.976-8.73 8.083-15.177 13.947v-.007z" fill="#334A52"/><path d="M42.307 79.801c-2.455 0-4.882-1.703-6.04-4.305-.628-1.401-2.028-5-1.532-8.22.897-5.83 4.29-10.932 7.49-15.141 3.054-4.031 6.978-7.334 10.777-10.527 1.931-1.628 3.93-3.31 5.786-5.068 3.234-3.063 6.4-6.537 8.51-8.879 3.937-4.388 4.688-7.746 4.082-9.428-.262-.728-.8-1.188-1.504-1.298-1.344-.206-4.516.343-7.895 3.715a.55.55 0 01-.731.041c-1.062-.838-1.683-1.62-2.345-2.451-.427-.543-.876-1.106-1.469-1.71a.562.562 0 01-.158-.447.529.529 0 01.255-.398c.38-.233.807-.515 1.269-.817 3.944-2.554 10.543-6.832 14.826-3.852 4.55 3.165 5.737 8.446 3.179 14.125-1.38 3.056-6.241 8.48-9.461 12.072-.58.645-1.09 1.215-1.497 1.675-2.758 3.145-5.937 5.968-9.006 8.7-3.634 3.235-7.392 6.58-10.426 10.431-3.393 4.313-6.44 11.839-2.572 15.08.751.632 1.717 2.623 1.93 3.42.166.611.049 1.236-.344 1.799-.538.783-1.552 1.353-2.58 1.463-.179.02-.358.027-.537.027l-.007-.007zm26.99-64.006c.269 0 .51.02.738.055 1.11.172 1.972.9 2.372 2.012.924 2.555-.683 6.49-4.303 10.527-2.117 2.362-5.31 5.857-8.571 8.947-1.876 1.779-3.89 3.468-5.834 5.11-3.752 3.158-7.627 6.42-10.606 10.355-3.117 4.106-6.42 9.057-7.282 14.647-.448 2.932.862 6.297 1.448 7.608.89 1.992 3.048 3.88 5.462 3.633.696-.076 1.434-.481 1.786-.996.207-.295.269-.597.186-.893-.207-.769-1.103-2.472-1.572-2.863-4.676-3.921-1-12.258 2.413-16.59 3.096-3.928 6.89-7.307 10.558-10.569 3.048-2.712 6.199-5.514 8.909-8.604.407-.467.924-1.037 1.503-1.689 2.98-3.324 7.972-8.886 9.275-11.79 2.359-5.24 1.338-9.896-2.806-12.78-3.669-2.554-9.882 1.47-13.592 3.873-.255.165-.497.323-.724.467.414.453.758.886 1.09 1.312.53.673 1.04 1.318 1.785 1.964 2.924-2.768 5.827-3.73 7.744-3.73l.021-.006z" fill="#334A52"/><path d="M86.307 83.578c-8.744 0-30.5-.206-38.189-.433-1.372-.04-3.248-.096-4.613-1.174-2.503-1.964-1.841-5.782-.4-8.7 6.827-13.761 23.342-21.858 38.417-18.836 3.916.783 6.688 2.177 8.481 4.257 1.89 2.191 2.6 5.075 3.014 7.341a42.35 42.35 0 01.158 14.297c-.124.783-.31 1.675-.938 2.307-.806.824-1.972.907-3.096.92-.641.007-1.613.014-2.848.014l.014.007zM75.081 54.902c-12.702 0-25.308 7.402-30.99 18.856-1.255 2.534-1.89 5.796.09 7.362 1 .79 2.386.892 3.965.933 8.764.255 35.817.488 40.981.42.897-.014 1.807-.07 2.324-.591.4-.405.531-1.071.635-1.71a41.276 41.276 0 00-.159-13.933c-.386-2.129-1.055-4.834-2.765-6.826-1.627-1.888-4.2-3.158-7.861-3.893a31.677 31.677 0 00-6.22-.611v-.007zm-37.766 17.95a.184.184 0 01-.18-.138.182.182 0 01.138-.22l3.13-.748c.097-.02.2.035.221.138a.182.182 0 01-.138.22l-3.13.748h-.041zm2.64-5.446s-.048 0-.069-.013a14.54 14.54 0 00-3.075-.92c-.097-.021-.166-.117-.145-.213a.182.182 0 01.214-.145c1.082.2 2.137.516 3.15.941.09.041.139.144.097.24a.18.18 0 01-.165.11h-.007zm1.808-5.095s-.063-.007-.09-.027l-2.628-1.531a.173.173 0 01-.062-.248.175.175 0 01.249-.061l2.627 1.53c.09.049.117.166.062.248a.192.192 0 01-.158.09zm3.004-5.377s-.062-.006-.09-.02l-2.53-1.422a.18.18 0 01-.069-.247.183.183 0 01.248-.069l2.531 1.422a.18.18 0 01.07.247.183.183 0 01-.16.096v-.007zm3.559-3.954a.169.169 0 01-.11-.042l-2.455-1.902a.178.178 0 01-.035-.254.18.18 0 01.255-.035l2.455 1.903a.178.178 0 01.035.254.173.173 0 01-.145.068v.007zm3.814-3.599a.177.177 0 01-.124-.048l-2.386-2.17a.184.184 0 01-.014-.261.186.186 0 01.262-.014l2.386 2.17a.184.184 0 01.014.261.174.174 0 01-.138.062zm3.62-3.502a.172.172 0 01-.132-.055l-2.103-2.04a.184.184 0 010-.26.186.186 0 01.262 0l2.103 2.04c.076.068.076.184 0 .26a.189.189 0 01-.13.055z" fill="#334A52"/><path d="M76.13 88.714c-4.309 0-7.309-2.774-8.502-5.974-1.048-2.808-.8-6.235.621-8.734 1.228-2.15 3.227-3.537 5.793-4.018 4.24-.782 9.73.46 11.246 6.544.828 3.324.56 10.067-6.392 11.825a11.16 11.16 0 01-2.765.357zm-1.888-17.647c-2.235.412-3.98 1.613-5.034 3.474-1.27 2.232-1.483 5.301-.545 7.815 1.262 3.385 4.834 6.228 9.971 4.937 6.117-1.538 6.33-7.54 5.593-10.493-1.759-7.038-9.144-5.885-9.979-5.733h-.007z" fill="#334A52"/><path d="M76.201 84.731c-2.627 0-4.461-1.6-5.185-3.453-.621-1.58-.497-3.523.31-4.958.738-1.312 1.979-2.15 3.593-2.431.572-.103 5.647-.852 6.868 3.783.31 1.168.345 3.063-.559 4.574-.69 1.153-1.813 1.916-3.337 2.28a7.137 7.137 0 01-1.69.206zm-1.22-10.478c-1.504.26-2.655 1.043-3.338 2.252-.758 1.346-.869 3.166-.29 4.642.821 2.074 3.131 3.818 6.448 3.021 1.42-.336 2.469-1.05 3.11-2.115.848-1.407.807-3.193.517-4.291-1.138-4.313-5.91-3.612-6.454-3.516l.007.007zM59.504 42.878a.161.161 0 01-.138-.069 15.625 15.625 0 00-2-1.991.176.176 0 01-.02-.254.178.178 0 01.255-.02 15.924 15.924 0 012.048 2.039.182.182 0 01-.021.254.188.188 0 01-.117.041h-.007zm3.408-3.495a.202.202 0 01-.131-.055l-1.883-1.84a.184.184 0 010-.261.186.186 0 01.262 0l1.883 1.84a.184.184 0 010 .26.189.189 0 01-.131.056zm3.26-3.86a.186.186 0 01-.104-.034 9.748 9.748 0 01-1.813-1.675.182.182 0 01.02-.255.184.184 0 01.256.021 9.242 9.242 0 001.744 1.614c.083.062.104.171.042.254a.183.183 0 01-.152.075h.007z" fill="#334A52"/><path d="M10.559 42.514c1.448-1.552 4.013-1.669 6.137-.838 2.124.824 2.813 1.195 4.496 2.795a83.4 83.4 0 017.868 8.625c3.027 3.845 4.84 7.176 1.552 11.344L10.559 42.52v-.006z" fill="#FDB932"/><path d="M30.605 64.976a.544.544 0 01-.407-.179L10.145 42.878a.547.547 0 010-.742c1.703-1.82 4.613-1.806 6.744-.975 2.172.845 2.917 1.236 4.675 2.905a84.517 84.517 0 017.917 8.68c2.903 3.687 5.213 7.382 1.551 12.017a.53.53 0 01-.414.206h-.02l.007.007zM11.324 42.542l19.232 21.026c2.372-3.413 1.138-6.242-1.937-10.142a82.367 82.367 0 00-7.813-8.564c-1.628-1.545-2.269-1.888-4.317-2.678-1.628-.631-3.779-.727-5.165.364v-.007zM69.636 31.87a.156.156 0 01-.104-.034c-.69-.467-1.33-1.01-1.91-1.607a.19.19 0 010-.26.193.193 0 01.262 0 11.43 11.43 0 001.848 1.558.185.185 0 01-.103.336l.007.007zm3.061-3.927s-.062-.007-.09-.028a10.896 10.896 0 01-1.903-1.407.184.184 0 01-.007-.261.186.186 0 01.262-.007c.566.522 1.18.975 1.842 1.36.09.047.117.164.062.246a.191.191 0 01-.159.09l-.007.007zm3.131-5.157h-.021a9.838 9.838 0 01-2.82-.776.183.183 0 01-.09-.24.184.184 0 01.241-.09 9.287 9.287 0 002.717.749.18.18 0 01.159.206.179.179 0 01-.18.157l-.006-.006zm-2.897-5.26a.184.184 0 01-.172-.124.18.18 0 01.11-.234c.945-.33 1.849-.762 2.697-1.29a.188.188 0 01.255.054c.055.083.028.2-.055.254-.87.543-1.8.99-2.766 1.326-.02.007-.04.007-.061.007l-.007.007zm-2.711-2.287s-.035 0-.055-.007c-.097-.034-.152-.13-.118-.227.325-.995.58-2.019.773-3.042a.182.182 0 01.214-.144c.096.02.165.117.144.213a23.88 23.88 0 01-.786 3.09.184.184 0 01-.172.124v-.007zm-4.267.871a.197.197 0 01-.172-.11 11.29 11.29 0 00-1.33-2.368c-.063-.083-.042-.192.04-.254a.18.18 0 01.256.04 11.84 11.84 0 011.372 2.446.178.178 0 01-.097.24.249.249 0 01-.069.014v-.007zM54.562 79.156a161.739 161.739 0 00-9.661 0 .184.184 0 01-.186-.179.18.18 0 01.18-.185c3.213-.096 6.474-.09 9.688 0 .103 0 .179.089.179.185a.184.184 0 01-.186.179h-.014zm-8.684-2.898a.193.193 0 01-.187-.179.18.18 0 01.18-.185l3.958-.069c.096.014.186.076.186.179a.18.18 0 01-.18.185l-3.957.069z" fill="#334A52"/></svg>