<svg width="44" height="40" fill="none" xmlns="http://www.w3.org/2000/svg"><path d="M3.597 12.5l.858-2.93L7.2 8.832l-2.745-.74-.858-2.926-.852 2.925L0 8.833l2.745.736.852 2.93zm6.005-4l.571-1.863 1.826-.47-1.826-.47-.571-1.864-.571 1.863-1.832.47 1.832.471.571 1.863zM4.798.5l-.566 1.86-1.832.471 1.832.47.566 1.866.57-1.865L7.2 2.83l-1.831-.47L4.798.5z" fill="#FDB932"/><g clip-path="url(#clip0_164_7685)"><path d="M28 38.717l16-22.081-6.111-8.353H18.11L12 16.636l16 22.081z" fill="#FFDE9D"/><path d="M18.112 8.283l4.554 8.353H12l6.112-8.353zm19.777 0l-4.556 8.353L28 8.283h9.889z" fill="#FEEEB3"/><path d="M33.333 16.636l-5.334 22.08-5.333-22.08h10.667z" fill="#FEEEB3"/><path d="M37.888 8.283l6.11 8.353H33.332l4.556-8.353z" fill="#FDB932"/><path d="M28 8.283l5.333 8.353H22.666l5.333-8.353zm-5.334 8.353L28 38.716l-16-22.08h10.666z" fill="#FDB932"/></g><defs><clipPath id="clip0_164_7685"><path fill="#fff" transform="translate(12 7.5)" d="M0 0h32v32H0z"/></clipPath></defs></svg>