<svg width="32" height="32" fill="none" xmlns="http://www.w3.org/2000/svg"><g clip-path="url(#clip0_202_1889)"><path d="M16 27.413l12-16.561-4.584-6.265H8.584L4 10.852l12 16.56z" fill="#FFDE9D"/><path d="M8.584 4.587L12 10.852H4l4.584-6.265zm14.833 0L20 10.852l-4-6.265h7.417zM20 10.852l-4 16.56-4-16.56h8z" fill="#FEEEB3"/><path d="M23.417 4.587L28 10.852h-8l3.417-6.265zm-7.417 0l4 6.265h-8l4-6.265zm-4 6.265l4 16.56-12-16.56h8z" fill="#FDB932"/></g><defs><clipPath id="clip0_202_1889"><path fill="#fff" transform="translate(4 4)" d="M0 0h24v24H0z"/></clipPath></defs></svg>