<svg aria-hidden="true" style="position:absolute;width:0;height:0" xmlns="http://www.w3.org/2000/svg" overflow="hidden"><defs><symbol id="icon-burger" viewBox="0 0 32 32"><path stroke="currentColor" stroke-linejoin="round" stroke-linecap="round" d="M2 6h29M2 16h29M2 26h29"/></symbol><symbol id="icon-star" viewBox="0 0 33 32"><path fill="var(--color1, #fdb932)" d="M16.627 31.705l3.966-12.596 12.687-3.164-12.687-3.185L16.627.185 12.686 12.76-.001 15.945l12.687 3.164 3.941 12.596z"/></symbol><symbol id="icon-rating" viewBox="0 0 32 32"><path fill="var(--color1, #fdb932)" d="M16.218 1.055C14.826.469 12.17 11.224 12.17 11.224s-10.174-.774-11.031.816c-.9 1.695 8.354 7.365 8.354 7.365s-3.77 10.838-2.592 11.487c1.756.962 9.318-6.047 9.318-6.047s8.011 6.654 9.318 6.047c.664-.314-2.913-11.152-2.913-11.152s8.803-5.44 8.268-6.863c-.493-1.339-10.624-1.151-10.624-1.151S18.062 1.85 16.22 1.055z"/><path fill="var(--color1, #fdb932)" d="M7.2 31.979c2.163 0 5.912-2.908 9.039-5.754 7.882 6.465 9.232 5.838 9.746 5.607.9-.418 1.478-.69-2.099-11.654 8.804-5.524 8.247-7.03 8.011-7.658-.214-.586-.728-1.946-10.774-1.841-.921-3.934-2.57-9.75-4.477-10.566a1.372 1.372 0 00-1.178.042c-1.457.711-2.999 5.649-4.113 9.98-6.662-.439-10.41.042-11.16 1.444-.321.607-1.307 2.469 8.011 8.285-3.727 10.922-2.549 11.57-1.821 11.947.236.126.514.188.814.188v-.021zm8.997-8.181c-.257 0-.514.105-.728.293-3.042 2.825-6.405 5.293-7.775 5.775.107-1.674 1.414-6.256 2.763-10.127.15-.46-.021-.962-.45-1.214-3.791-2.322-7.176-4.938-7.818-6.026 1.285-.502 5.933-.544 9.853-.251.535.042.985-.293 1.114-.795.878-3.536 2.142-7.574 2.935-9.039.9 1.444 2.249 5.733 3.084 9.499.107.481.535.816 1.028.816 3.599-.063 7.818.126 9.318.544-1.007 1.172-4.455 3.662-7.54 5.566-.407.251-.6.732-.45 1.192 1.157 3.473 2.356 7.49 2.785 9.457-1.671-.921-4.862-3.264-7.497-5.461a1.068 1.068 0 00-.685-.251l.064.021z"/></symbol><symbol id="icon-stars" viewBox="0 0 32 32"><path fill="var(--color2, #b3eafe)" d="M9.593 32l2.288-7.673L19.2 22.4l-7.319-1.94-2.288-7.66-2.273 7.66L.001 22.4l7.319 1.927L9.593 32zm3.999-32l-1.508 5.102-4.885 1.292 4.885 1.292 1.508 5.115 1.523-5.115L20 6.394l-4.885-1.292L13.592 0zm12 11.2l-1.508 5.102-4.885 1.292 4.885 1.292 1.508 5.115 1.523-5.115L32 17.594l-4.885-1.292-1.523-5.102z"/></symbol><symbol id="icon-logo" viewBox="0 0 35 32"><path fill="var(--color1, #fdb932)" d="M2.878 10l.686-2.344 2.196-.589-2.196-.593-.686-2.341-.682 2.341L0 7.067l2.196.589L2.878 10zm4.804-3.2l.457-1.49L9.6 4.934l-1.461-.376-.457-1.49-.457 1.49-1.465.376 1.465.376.457 1.49zM3.838.4l-.452 1.488-1.465.377 1.465.377.452 1.492.457-1.492 1.465-.377-1.465-.377L3.838.4z"/><path fill="var(--color3, #ffde9d)" d="M22.4 30.974l12.8-17.665-4.889-6.682H14.489L9.6 13.309l12.8 17.665z"/><path fill="var(--color4, #feeeb3)" d="M14.489 6.627l3.644 6.682H9.6l4.889-6.682zm15.822 0l-3.644 6.682L22.4 6.627h7.911z"/><path fill="var(--color4, #feeeb3)" d="M26.666 13.309l-4.267 17.665-4.267-17.665h8.533z"/><path fill="var(--color1, #fdb932)" d="M30.31 6.627l4.889 6.682h-8.533l3.645-6.682z"/><path fill="var(--color1, #fdb932)" d="M22.399 6.627l4.267 6.682h-8.533L22.4 6.627zm-4.266 6.682L22.4 30.974 9.6 13.309h8.533z"/></symbol><symbol id="icon-edit" viewBox="0 0 32 32"><path fill="none" stroke="var(--color5, #61747a)" stroke-linejoin="round" stroke-linecap="round" stroke-width="1.6" d="M14.668 6.667H8.001a2.668 2.668 0 00-2.667 2.667v14.667a2.67 2.67 0 002.667 2.667h14.667a2.668 2.668 0 002.667-2.667v-6.667M23.449 4.781a2.668 2.668 0 012.927-.616 2.674 2.674 0 011.458 1.458 2.672 2.672 0 01-.017 2.062c-.14.325-.343.62-.598.866L15.771 19.999H12v-3.771L23.448 4.78z"/></symbol><symbol id="icon-user" viewBox="0 0 32 32"><path fill="none" stroke="var(--color5, #61747a)" stroke-linejoin="round" stroke-linecap="round" stroke-width="1.6" d="M19.77 13.105a5.334 5.334 0 10-7.544-7.543 5.334 5.334 0 007.544 7.543zM9.399 21.4A9.334 9.334 0 0125.333 28H6.666c0-2.475.983-4.849 2.734-6.6z"/></symbol><symbol id="icon-arrow-left" viewBox="0 0 32 32"><path d="M12 28c.341 0 .683-.131.943-.391L23.61 16.942a1.332 1.332 0 000-1.885L12.943 4.39a1.332 1.332 0 10-1.885 1.885l9.724 9.724-9.724 9.724a1.332 1.332 0 00.943 2.276z"/></symbol><symbol id="icon-close" viewBox="0 0 32 32"><path fill="none" stroke="currentColor" stroke-width="1.333" d="M31.333 16c0 8.468-6.865 15.333-15.333 15.333S.667 24.468.667 16 7.532.667 16 .667 31.333 7.532 31.333 16z"/><path stroke="currentColor" stroke-linejoin="round" stroke-linecap="round" stroke-width="1.333" d="M16 16l-5.333-5.333M16 16l5.333 5.333M16 16l5.333-5.333M16 16l-5.333 5.333"/></symbol><symbol id="icon-facebook" viewBox="0 0 32 32"><path fill="none" stroke="currentColor" stroke-miterlimit="10" stroke-width="1.231" d="M30.769 16c0-8.157-6.612-14.769-14.769-14.769S1.231 7.843 1.231 16 7.843 30.769 16 30.769 30.769 24.157 30.769 16z"/><path fill="currentColor" d="M13.751 24.925h3.593v-9.003h2.507l.264-3.011h-2.778v-1.715c0-.714.14-.993.83-.993h1.948V7.075h-2.491c-2.678 0-3.88 1.18-3.88 3.43v2.406h-1.87v3.05h1.87v8.964h.008z"/></symbol><symbol id="icon-instagram" viewBox="0 0 32 32"><path fill="none" stroke="currentColor" stroke-miterlimit="10" stroke-width="1.231" d="M16 30.769C7.843 30.769 1.231 24.157 1.231 16S7.843 1.231 16 1.231 30.769 7.843 30.769 16 24.157 30.769 16 30.769z"/><path fill="currentColor" d="M15.998 9.364c2.165 0 2.421.008 3.275.047.792.039 1.218.171 1.506.279.38.147.644.326.931.605.287.287.458.551.605.931.109.287.241.714.279 1.506.039.854.047 1.11.047 3.275s-.008 2.422-.047 3.275c-.039.792-.171 1.218-.279 1.506-.147.38-.326.644-.605.931a2.51 2.51 0 01-.931.605c-.287.109-.714.241-1.506.279-.854.039-1.11.047-3.275.047s-2.421-.008-3.275-.047c-.792-.039-1.218-.171-1.506-.279a2.577 2.577 0 01-.931-.605 2.477 2.477 0 01-.605-.931c-.109-.287-.241-.714-.279-1.506-.039-.854-.047-1.11-.047-3.275s.008-2.421.047-3.275c.039-.792.171-1.219.279-1.506.147-.38.326-.644.605-.931.287-.287.551-.458.931-.605.287-.109.714-.241 1.506-.279.854-.039 1.11-.047 3.275-.047zm0-1.459c-2.196 0-2.476.008-3.337.047s-1.451.178-1.964.38c-.536.21-.986.481-1.436.931s-.73.9-.931 1.436c-.202.512-.334 1.102-.373 1.963s-.047 1.141-.047 3.337.008 2.476.047 3.337.178 1.451.373 1.964c.21.535.481.986.931 1.436s.9.729 1.436.931c.512.202 1.102.334 1.964.38.862.039 1.141.047 3.337.047s2.476-.008 3.337-.047c.862-.039 1.451-.179 1.964-.38.535-.21.986-.481 1.436-.931s.729-.9.931-1.436c.202-.512.334-1.102.38-1.964.039-.861.047-1.141.047-3.337s-.008-2.476-.047-3.337c-.039-.861-.179-1.451-.38-1.963-.21-.536-.481-.986-.931-1.436s-.9-.73-1.436-.931c-.512-.202-1.102-.334-1.964-.38-.861-.039-1.141-.047-3.337-.047z"/><path fill="currentColor" d="M15.999 11.84A4.16 4.16 0 1016 20.161a4.16 4.16 0 000-8.321zm0 6.861c-1.49 0-2.701-1.211-2.701-2.701s1.211-2.701 2.701-2.701S18.7 14.51 18.7 16a2.703 2.703 0 01-2.701 2.701zm5.292-7.024a.97.97 0 11-1.94 0 .97.97 0 011.94 0z"/></symbol><symbol id="icon-location" viewBox="0 0 32 32"><path fill="none" stroke="currentColor" stroke-linejoin="round" stroke-linecap="round" stroke-width="1.333" d="M23.543 22.21l-5.657 5.657a2.667 2.667 0 01-3.77 0L8.457 22.21a10.66 10.66 0 01-2.312-11.624A10.666 10.666 0 1123.543 22.21v0z"/><path fill="none" stroke="currentColor" stroke-linejoin="round" stroke-linecap="round" stroke-width="1.333" d="M18.828 17.495a4.001 4.001 0 000-5.656 4.001 4.001 0 00-5.656 0 4.001 4.001 0 000 5.656 4.001 4.001 0 005.656 0z"/></symbol><symbol id="icon-mail" viewBox="0 0 32 32"><path fill="none" stroke="currentColor" stroke-linejoin="round" stroke-linecap="round" stroke-width="1.333" d="M4 10.667l10.52 7.013a2.668 2.668 0 002.96 0L28 10.667M6.667 25.333h18.667a2.67 2.67 0 002.667-2.667V9.333a2.668 2.668 0 00-2.667-2.667H6.667A2.668 2.668 0 004 9.333v13.333a2.67 2.67 0 002.667 2.667z"/></symbol><symbol id="icon-phone" viewBox="0 0 32 32"><path fill="none" stroke="#1D1D1D" stroke-linejoin="round" stroke-linecap="round" stroke-width="1.333" d="M4.781 4.781c-.5.5-.781 1.178-.781 1.886V8c0 11.045 8.955 20 20 20h1.333A2.67 2.67 0 0028 25.333v-4.372a1.332 1.332 0 00-.912-1.265l-5.991-1.997a1.333 1.333 0 00-1.613.67l-1.507 3.009a14.721 14.721 0 01-7.355-7.355l3.009-1.507a1.33 1.33 0 00.67-1.614l-1.997-5.991a1.334 1.334 0 00-1.264-.912H6.667c-.707 0-1.386.281-1.886.781z"/></symbol><symbol id="icon-whatsapp" viewBox="0 0 32 32"><path fill="none" stroke="currentColor" stroke-miterlimit="10" stroke-width="1.231" d="M16 30.769C7.843 30.769 1.231 24.157 1.231 16S7.843 1.231 16 1.231 30.769 7.843 30.769 16 24.157 30.769 16 30.769z"/><path fill="currentColor" d="M24.096 15.588c-.109-4.269-3.624-7.691-7.947-7.691s-7.761 3.345-7.947 7.552v.349c0 1.49.419 2.887 1.141 4.075l-1.436 4.238 4.408-1.397a7.94 7.94 0 003.842.986c4.393 0 7.955-3.531 7.955-7.893v-.202l-.015-.015zm-7.948 6.838a6.649 6.649 0 01-3.679-1.102l-2.569.823.83-2.468a6.571 6.571 0 01-1.242-4.532c.326-3.36 3.19-5.991 6.651-5.991s6.395 2.701 6.667 6.116c.015.171.023.342.023.52 0 3.663-3.003 6.636-6.69 6.636h.008z"/><path fill="currentColor" d="M19.796 17.389c-.194-.093-1.156-.567-1.335-.629-.178-.07-.31-.093-.442.093a9.846 9.846 0 01-.621.753c-.116.132-.225.147-.427.047-.194-.093-.823-.295-1.568-.962a6.114 6.114 0 01-1.087-1.335c-.109-.194-.008-.295.085-.396.085-.085.194-.225.295-.342l.07-.093c.047-.07.078-.14.124-.233.07-.132.031-.241-.016-.341-.047-.093-.442-1.048-.605-1.436s-.326-.318-.442-.318c-.116 0-.241-.016-.373-.016s-.342.047-.52.241-.683.66-.683 1.614c0 .225.039.45.101.66.194.683.621 1.242.698 1.343.093.124 1.35 2.142 3.329 2.926 1.987.768 1.987.512 2.344.481s1.156-.466 1.312-.924c.163-.45.163-.838.116-.924-.047-.078-.178-.124-.373-.225l.015.015z"/></symbol><symbol id="icon-youtube" viewBox="0 0 32 32"><path fill="none" stroke="currentColor" stroke-miterlimit="10" stroke-width="1.231" d="M16 30.769C7.843 30.769 1.231 24.157 1.231 16S7.843 1.231 16 1.231 30.769 7.843 30.769 16 24.157 30.769 16 30.769z"/><path fill="currentColor" d="M27.324 10.272a2.962 2.962 0 00-2.088-2.103C23.389 7.672 16 7.672 16 7.672s-7.396 0-9.236.497a2.964 2.964 0 00-2.088 2.103C4.179 12.127 4.179 16 4.179 16s0 3.873.497 5.728a2.964 2.964 0 002.088 2.103c1.847.497 9.236.497 9.236.497s7.396 0 9.236-.497a2.964 2.964 0 002.088-2.103c.497-1.855.497-5.728.497-5.728s0-3.873-.497-5.728z"/><path fill="var(--color7, #fff)" d="M13.587 19.508v-7.024L19.765 16l-6.178 3.508z"/></symbol><symbol id="icon-play" viewBox="0 0 31 32"><path fill="var(--color1, #b3eafe)" d="M1.153 28.829C1.07 19.69.987 10.551.904 1.016c9.199 4.358 18.412 8.702 27.612 13.06C19.358 19.294 10.2 24.513 1.153 28.83z"/><path fill="var(--color2, #334a52)" d="M1.154 29.348a.501.501 0 01-.277-.082.522.522 0 01-.249-.437C.545 19.676.462 10.551.379 1.016c0-.178.083-.342.235-.437S.96.47 1.112.552l27.612 13.06c.18.082.291.246.291.437s-.097.369-.263.464c-9.02 5.15-18.33 10.45-27.39 14.767a.664.664 0 01-.221.055l.014.014zm.277-27.499c.083 8.948.166 17.568.235 26.174 8.508-4.098 17.25-9.057 25.73-13.893L1.43 1.849z"/><path fill="var(--color2, #334a52)" opacity=".13" d="M29.514 14.062c-.885-.779-1.964-.574-2.545.15a3.909 3.909 0 00-.194.205c-.235.164-.457.314-.692.478-3.486 2.104-7.207 3.839-10.638 6.052-2.421 1.516-5.035 2.678-7.415 4.262-1.19.574-2.31 1.257-3.514 1.79-.913.383-1.757.902-2.601 1.407-.373.246-.844.383-1.107.765-1.01 1.202.539 2.937 1.895 2.131 2.794-1.776 5.879-3.033 8.674-4.781 3.846-1.954 7.512-4.248 11.247-6.393a71.137 71.137 0 014.842-2.855c.138-.082.484-.246.706-.355.567.041 1.148-.178 1.48-.656.553-.615.443-1.626-.138-2.199z"/></symbol><symbol id="icon-logo-simple" viewBox="0 0 32 32"><path fill="var(--color4, #ffde9d)" d="M16 27.413l12-16.561-4.584-6.264H8.583l-4.584 6.264 12 16.561z"/><path fill="var(--color5, #feeeb3)" d="M8.584 4.587L12 10.851H4l4.584-6.264zm14.833 0L20 10.851l-4-6.264h7.417zM20 10.852l-4 16.561-4-16.561h8z"/><path fill="var(--color3, #fdb932)" d="M23.417 4.587L28 10.851h-8l3.417-6.264zm-7.417 0l4 6.264h-8l4-6.264zm-4 6.265l4 16.561L4 10.852h8z"/></symbol></defs></svg>