<svg width="381" height="196" fill="none" xmlns="http://www.w3.org/2000/svg"><g clip-path="url(#clip0_703_1030)"><path d="M63.603 186.909c2.216 0 4.17-.02 5.6-.04 1.41-.02 3.002-.04 4.493-.742 1.753-.823 2.962-2.529 3.042-4.355v-.1c-.685-14.549-1.41-30.784-2.155-47.962-1.572-35.84-3.365-76.457-5.279-108.304 0-.08 0-.14-.04-.221-.202-.662-4.775-16.335-9.026-24.603a1.005 1.005 0 00-.886-.542c-1.088 0-2.015 0-2.962-.04-.927 0-1.833-.02-2.86-.02-.404 0-.766.24-.928.602-1.128 2.609-3.424 9.853-4.694 13.927-2.357 7.585-3.082 9.913-3.143 10.816h-.04c0 27.493-.14 55.788-.282 83.16-.141 26.871-.262 52.276-.262 76.518 0 .482.343.903.826.983 4.09.743 12.35.903 18.576.903l.02.02zm11.14-5.197c-.08 1.224-1.007 2.187-1.893 2.589-1.088.521-2.397.541-3.667.562-5.097.08-17.185.14-22.967-.703 0-24.001.12-49.105.262-75.675.14-27.332.282-55.607.282-83.08.363-1.565 5.42-18.301 7.454-23.438.746 0 1.45 0 2.156.02.766 0 1.531.02 2.357.02 3.929 7.886 8.18 22.215 8.583 23.6 1.913 31.806 3.686 72.363 5.258 108.164.745 17.157 1.47 33.372 2.156 47.921l.02.02z" fill="#334A52"/><path d="M16.359 181.591h84.274v13.426H16.359v-13.426z" fill="#B3EAFE"/><path d="M16.36 196h84.273a1.01 1.01 0 001.008-1.004v-13.425c0-.542-.444-1.003-1.008-1.003H16.359c-.544 0-1.007.441-1.007 1.003v13.425c0 .542.443 1.004 1.007 1.004zm83.266-1.987h-82.26v-11.418h82.26v11.418z" fill="#334A52"/><path d="M134.681 21.171L2.116 24.021 1.007 40.396 151 41.2l-16.319-20.03z" fill="#B3EAFE"/><path d="M151.001 42.202c.382 0 .745-.22.906-.562a1.02 1.02 0 00-.121-1.063l-16.339-20.048a.957.957 0 00-.806-.361L2.096 23.038c-.524 0-.947.421-.987.923L0 40.316c0 .28.08.542.262.742.18.2.443.321.725.321l149.992.823H151zm-16.803-20.027l14.687 18.02-146.81-.802.988-14.389 131.135-2.83z" fill="#334A52"/><path d="M45.452 180.488c4.311-4.556 11.685-11.258 18.212-17.178 3.808-3.452 7.394-6.703 9.993-9.211l.544-.522-.765-.04c-9.006-.542-17.991-.582-26.675-.602 7.636-9.733 16.178-19.024 26.07-28.396l.584-.562h-.805c-8.784-.22-17.81.281-26.554.783 7.878-9.472 16.037-18.823 25.607-29.42l.523-.581h-.785c-8.865.341-17.286.843-25.083 1.485 7.293-8.71 14.949-17.64 24.035-28.034l.443-.502-.665-.06c-6.688-.542-13.9-.482-22.624.2 6.588-9.672 13.68-18.783 20.368-27.191l-.524-.422c-6.83 8.59-14.082 17.9-20.791 27.794l-.383.582.685-.06c8.724-.703 15.896-.803 22.544-.301C60.3 78.665 52.624 87.635 45.291 96.404l-.504.623.806-.06c7.776-.663 16.198-1.165 25.062-1.506-9.55 10.576-17.688 19.947-25.586 29.439l-.483.582.765-.04c8.703-.501 17.689-1.023 26.453-.863-9.852 9.372-18.354 18.683-25.97 28.436l-.423.542h.685c8.643.02 17.589.06 26.554.562-2.539 2.408-5.903 5.458-9.429 8.669-6.527 5.92-13.921 12.643-18.253 17.218l.484.462v.02zM145.359 35.46v-.663a3698.907 3698.907 0 00-143.908-.923v.662a3660.3 3660.3 0 01143.908.924z" fill="#FFDD98"/><path d="M46.801 40.757c.444-.301.907-.462 1.41-.462 2.076-.02 4.171.161 6.246.221 4.473.14 8.945.04 13.418.06 3.667.1 3.667 6.743 0 6.864-4.654-.04-9.288.08-13.942-.08-1.913-.081-3.807-.221-5.721-.201-.383 0-.746-.08-1.068-.301-2.115-.903-2.256-4.797-.343-6.101z" fill="#334A52" opacity=".13"/></g><path d="M280.572 54H133.579a6.428 6.428 0 00-6.429 6.428V166.8a6.43 6.43 0 006.429 6.429h146.993A6.429 6.429 0 00287 166.8V60.429A6.428 6.428 0 00280.572 54z" fill="#D7F4FF" stroke="#334A52" stroke-width="1.85" stroke-miterlimit="10"/><path d="M132.002 66.69h150.14" stroke="#334A52" stroke-width="1.85" stroke-miterlimit="10"/><path d="M256.093 63.548a2.723 2.723 0 100-5.446 2.723 2.723 0 000 5.446zm8.43 0a2.722 2.722 0 100-5.444 2.722 2.722 0 000 5.444zm8.43 0a2.722 2.722 0 100-5.445 2.722 2.722 0 000 5.445z" fill="#D7F4FF" stroke="#334A52" stroke-width="1.39" stroke-miterlimit="10"/><g clip-path="url(#clip1_703_1030)"><path d="M184.587 145.788l-3.997-1.201-3.601 2.526-4.366-6.226c1.326-.801 2.644-1.61 3.97-2.411.071-.045.141-.089.185-.16.061-.089.061-.214.061-.32a320.775 320.775 0 00-.079-4.163c-1.308-.685-2.556-1.352-3.75-2.1-.097-.062-.194-.133-.22-.24-.026-.106.035-.213.088-.311 1.001-1.646 2.003-3.3 3.004-4.946a.302.302 0 01.097-.115c.105-.071.246-.009.36.053a17.76 17.76 0 013.1 2.206 41.264 41.264 0 003.909-2.384c.299-.204.606-.445.712-.783.088-.284 0-.596-.079-.88a46.287 46.287 0 00-1.125-3.443 11.55 11.55 0 017.361-.516c.185.089-.439 4.395-.439 4.395l4.489 2.57 3.417-2.063 3.47 4.723-3.619 2.455.087 4.332 3.813 1.672-2.249 6.449-3.909-1.565-3.795 2.321-.351 4.377-5.385.133-1.168-4.394.009.009zm2.038-7.445c.193.044.562-.125.738-.196.149-.062.29-.125.43-.214.255-.16.492-.373.703-.596a4.66 4.66 0 00.966-1.565c.088-.24.149-.489.193-.747.035-.223.062-.427.035-.65-.017-.133-.061-.275-.061-.418 0 .383 0-.035-.035-.187-.185-.667-.738-1.316-1.344-1.636-.369-.196-.782-.374-1.204-.392-.377-.017-.773.089-1.124.232-.501.204-1.001.444-1.449.756-.501.347-1.028.774-1.3 1.334-.281.56-.325 1.165-.115 1.699-.105.222-.14.48-.052.703.149.4.351.747.685 1.023.334.275.659.453 1.063.613.123.054.255.089.386.125.079.018.15.035.229.044.123.018.237.036.36.045h-.079c-.106-.018-.106-.018-.009 0l.369.053c.061 0 .123.009.184 0 .15 0 .317-.009.457-.053l-.026.027z" fill="#D7F4FF"/><path d="M187.416 139.614c-.676-.053-.738-1.076-.088-1.227.633-.205.518-.125 1.177-.801.527-.649.369-.418.738-1.423.29-.943.228-.561.228-1.361a2.183 2.183 0 00-.079-.329c-.149-.392-.07-.267-.483-1.014-.158-.312-.439-.578-.457-.934-.202-1.077 1.38-1.601 1.915-.65 1.169 1.691 1.696 3.389.729 5.32-.544.996-1.475 1.716-2.556 2.081-.351.151-.72.365-1.115.338h-.009zm10.813 2.918c.228-.632.386-.854.597-2.055.176-.56.088-1.254.457-1.734.72-1.014 2.398-.178 2.047 1.005-.299 1.414-.36 3.042-1.406 4.145-.984.872-2.266-.231-1.695-1.361zm-9.268 8.032h-.036.036c-.238 0-.475-.053-.677-.169-.922-.489-.773-1.921.185-2.268.044-.018.096-.044.158-.08.184-.098.386-.16.58-.231.149-.063.351-.152.465-.205.211-.124.439-.187.685-.187 1.573.018 1.871 2.224.36 2.642-.491.214-.992.383-1.519.454a1.045 1.045 0 01-.229.026l-.008.018z" fill="#334A52" opacity=".13"/><path d="M201.83 138.405a.424.424 0 00-.272-.401c-1.16-.462-2.354-.943-3.523-1.672.167-1.37.088-2.757-.044-4.065a93.778 93.778 0 012.135-1.156c.421-.223.852-.454 1.291-.694a.441.441 0 00.202-.543 12.538 12.538 0 00-3.821-5.248.432.432 0 00-.518-.009c-.993.712-2.021 1.45-3.259 2.242-1.089-.836-2.389-1.583-3.97-2.26.061-.32.131-.631.202-.951.21-1.014.43-2.064.588-3.194a.439.439 0 00-.316-.48c-2.345-.64-4.998-.462-7.888.534a.44.44 0 00-.281.516l.017.08c.352 1.405.712 2.846 1.081 4.358-1.318.623-2.548 1.388-3.821 2.197-.931-.702-2.029-1.494-3.303-2.197a.411.411 0 00-.518.089c-1.397 1.548-2.618 3.505-3.619 5.809a.434.434 0 00.184.551 36.953 36.953 0 003.9 1.913 18.848 18.848 0 00-.158 4.447c-1.265.658-2.565 1.352-3.926 2.224a.431.431 0 00-.15.569 26.186 26.186 0 003.145 4.741c.334.392.676.783 1.01 1.157.167.186.369.418.668.489a.46.46 0 00.342-.062c.492-.329.975-.676 1.476-1.023.685-.481 1.388-.97 2.161-1.486 1.089.436 2.205.89 3.311 1.299.115 1.236.352 2.82 1.046 4.51a.434.434 0 00.369.267c2.169.133 4.155-.161 6.061-.881a.446.446 0 00.281-.427l-.018-.48c-.044-1.103-.088-2.251 0-3.469 1.116-.463 2.231-1.166 3.487-2.189 1.134.65 2.319 1.308 3.707 1.895.202.08.431 0 .536-.196 1.195-2.215 1.924-4.501 2.17-6.778v-.044l.035.018zm-4.682-1.851c0 .143.07.285.193.365 1.204.783 2.416 1.299 3.593 1.77-.246 1.939-.87 3.879-1.845 5.782-1.3-.569-2.424-1.21-3.513-1.841a.42.42 0 00-.483.044c-1.371 1.139-2.557 1.886-3.725 2.331a.435.435 0 00-.272.364c-.132 1.379-.079 2.633-.035 3.852v.16c-1.617.578-3.312.818-5.139.738-.624-1.618-.808-3.131-.905-4.278a.447.447 0 00-.281-.374c-1.256-.453-2.521-.96-3.751-1.458a.442.442 0 00-.395.035c-.861.56-1.625 1.103-2.372 1.619-.421.294-.825.578-1.238.863-.044-.045-.088-.098-.123-.134a59.88 59.88 0 01-.993-1.138 25.223 25.223 0 01-2.854-4.225c1.308-.81 2.564-1.468 3.785-2.108a.428.428 0 00.229-.427 17.542 17.542 0 01.176-4.848.435.435 0 00-.264-.481 34.94 34.94 0 01-3.777-1.805c.878-1.939 1.915-3.603 3.083-4.955 1.203.694 2.24 1.459 3.136 2.135.14.107.334.116.483.018 1.449-.916 2.82-1.788 4.295-2.446a.439.439 0 00.246-.498c-.369-1.522-.729-2.98-1.089-4.395 2.425-.774 4.656-.934 6.641-.48a45.833 45.833 0 01-.527 2.74c-.097.436-.185.871-.272 1.316a.438.438 0 00.254.489c1.775.739 3.189 1.548 4.322 2.464a.418.418 0 00.492.027c1.274-.792 2.31-1.53 3.294-2.242 1.353 1.148 2.433 2.633 3.153 4.323a45.38 45.38 0 00-.948.507c-.835.445-1.625.863-2.407 1.308a.444.444 0 00-.22.427c.15 1.423.255 2.944.035 4.412v.062l.018-.018z" fill="#334A52"/><path d="M189.7 134.571c0-.578-.114-1.165-.351-1.708-.202-.463-.457-.792-.773-1.014-.422-.303-.94-.374-1.336-.409-1.405-.107-2.687.231-3.61.96-1.115.881-1.616 2.349-1.203 3.567.026.08.07.143.132.196v.036c.439 1.289 1.721 2.241 3.118 2.321 1.353.08 2.697-.631 3.426-1.814a4.036 4.036 0 00.597-2.135zm-6.562.516c0-.721.378-1.495 1.01-2.002.756-.596 1.828-.871 3.022-.774.29.027.659.072.914.249.184.134.342.347.474.659.43.987.369 2.152-.184 3.024-.563.898-1.625 1.468-2.653 1.405-1.045-.062-2.029-.782-2.346-1.725-.008-.036-.026-.071-.035-.107-.026-.089-.07-.24-.167-.347a1.84 1.84 0 01-.035-.382z" fill="#334A52"/><path d="M218.916 126.441c-.325-1.086-.879-2.126-1.748-2.838-1.213-.996-2.917-1.236-4.428-.827-1.502.409-2.81 1.396-3.812 2.597a56.71 56.71 0 01-4.761-3.424c1.072-1.468 2.091-2.874 2.17-4.501.079-1.575-.773-3.096-1.985-4.074-1.212-.979-2.758-1.459-4.296-1.655-.149-.053-.175-.133-.184-.196a850.93 850.93 0 01-.36-4.945c1.519-.294 2.872-.996 3.856-2.073.984-1.076 1.572-2.535 1.528-4.002-.017-.605-.14-1.192-.263-1.78-.211-.96-.466-1.983-1.168-2.66.878-1.307 1.818-2.48 2.793-3.62.395.579.931.828 1.458 1.032 1.124.436 2.354.774 3.531.499 1.212-.285 2.223-1.21 2.82-2.322s.834-2.384.913-3.647c1.775-.347 3.681-.516 5.587-.578.378 1.076.703 2.09 1.23 3.006.527.916 1.282 1.735 2.249 2.144 1.089.463 2.362.347 3.443-.133 1.08-.48 1.985-1.3 2.723-2.233a184.55 184.55 0 015.121 3.309c-1.107 1.717-1.458 3.878-.861 5.755.15.471.36.925.659 1.308.378.48.896.836 1.432 1.111 1.3.668 2.802.917 4.242.703.396 2.002.651 3.941.8 5.88-1.994-.116-4.006.756-5.095 2.357-1.089 1.601-1.168 3.878-.088 5.488.51.765 1.239 1.343 1.959 1.913-1.221 1.752-2.468 3.487-3.847 5.114-1.397-.907-2.794-1.832-4.357-1.868-1.634-.035-3.198.961-4.085 2.349-.887 1.387-1.15 3.122-.984 4.767a75.313 75.313 0 01-5.63 1.441c-.097-1.209-.202-2.339-.527-3.424l-.035.027zm4.181-10.337c1.458-.667 2.714-1.752 3.663-3.059a8.646 8.646 0 001.282-2.5c1.169-3.683-.878-7.997-4.304-9.704-2.495-1.246-5.587-1.192-8.037.142-2.451 1.334-4.199 3.914-4.559 6.707-.316 2.508 1.019 5.675 3.426 7.48 2.406 1.806 5.788 2.171 8.52.926l.009.008z" fill="#FFDD98"/><path d="M219.126 118.346a7.244 7.244 0 01-.844-.169c-.061-.036-.131-.062-.193-.098a17.81 17.81 0 01-2.872-1.85.664.664 0 01.334-.249c.483-.071.922.302 1.387.427 1.265.427 1.871.711 3.031.578.439.018 2.89-.72 3.189-.961a9.967 9.967 0 001.537-.969c.132-.116.193-.151.193-.134.141-.186.325-.347.474-.524.325-.383.65-.765.967-1.157.079-.098.21-.267.325-.391-.088.062.07-.107.202-.267.052-.089.316-.471.412-.667.466-1.352.73-2.749.773-3.496.088-.987-.158-1.957-.333-2.722-.15-.542-.685-1.014-.571-1.601a.653.653 0 01.474-.48c.062.053.114.115.176.169l.483.596c.465.72.931 1.441 1.388 2.17.342 1.201.413 2.482.123 4.021 0-.027 0-.063.009-.089-.334 1.61-.554 2.117-1.151 3.291-.606 1.032-1.485 1.859-2.477 2.491-.027.017-.053.035-.088.053a10.587 10.587 0 01-3.11 1.717c-1.229.409-2.556.4-3.83.275l-.008.036zm13.019 3.923c.008-.16.043-.32.123-.463.114-.204.298-.338.491-.462.15-.125.299-.24.466-.356.404-.32.58-.409 1.291-1.121.422-.391.677-1.014 1.195-1.272.009 0 .017 0 .026-.009.088-.151.176-.302.255-.462.176-.285.263-.659.545-.854.729-.623 1.8.338 1.3 1.156a11.715 11.715 0 01-1.617 2.375l-.105.107c-.448.56-.905 1.103-1.414 1.601-.194.187-.413.4-.659.578a13.01 13.01 0 00-1.142-.498 13.853 13.853 0 00-.755-.32zm-12.791 5.55a66.71 66.71 0 003.662-1.085c.563-.187 1.125-.365 1.696-.551.263.213.413.587.307.934 0 .017-.017.035-.017.053.413.294.36 1.076-.211 1.219-.264.071-.527.186-.8.284a.645.645 0 01-.105.169c-.255.356-.738.454-1.124.587-.791.196-1.599.303-2.416.338h-.149a83.423 83.423 0 00-.843-1.939v-.009z" fill="#334A52" opacity=".13"/><path d="M241.999 108.295v-.036a49.311 49.311 0 00-.808-5.933.439.439 0 00-.483-.347 6.728 6.728 0 01-3.988-.658c-.571-.294-1.001-.623-1.291-.996-.237-.303-.431-.685-.589-1.166-.553-1.734-.254-3.745.808-5.381a.426.426 0 00-.123-.596 172.032 172.032 0 00-5.129-3.318.432.432 0 00-.563.098c-.79.996-1.651 1.708-2.565 2.108-1.054.471-2.187.516-3.1.125-1.002-.419-1.66-1.3-2.047-1.957-.439-.765-.738-1.628-1.054-2.535l-.141-.4a.416.416 0 00-.412-.285c-2.1.062-3.997.257-5.657.578a.424.424 0 00-.343.4c-.088 1.423-.369 2.553-.861 3.46-.597 1.094-1.519 1.868-2.538 2.108-1.134.267-2.346-.115-3.277-.48-.483-.187-.94-.391-1.256-.872a.442.442 0 00-.325-.187.444.444 0 00-.351.152c-1.125 1.307-2.029 2.472-2.829 3.664a.439.439 0 00.062.56c.606.579.843 1.486 1.045 2.438.132.605.237 1.148.255 1.708.035 1.316-.475 2.668-1.414 3.691-.896.979-2.153 1.655-3.628 1.94a.436.436 0 00-.343.462l.36 4.946c.018.258.185.471.457.569l.097.027c1.686.213 3.057.738 4.084 1.565 1.195.961 1.889 2.375 1.827 3.709-.079 1.522-1.098 2.918-2.081 4.27a.44.44 0 00.079.605c1.712 1.352 3.285 2.482 4.796 3.451.184.116.421.08.553-.089.729-.88 1.95-2.019 3.593-2.464 1.458-.391 3.004-.106 4.04.748.712.587 1.274 1.494 1.608 2.624.307 1.04.413 2.126.509 3.335a.43.43 0 00.51.392 76.286 76.286 0 005.666-1.45.436.436 0 00.307-.463c-.176-1.699.149-3.291.922-4.492.852-1.334 2.31-2.179 3.716-2.152 1.432.035 2.723.871 4.093 1.77l.044.026c.185.116.422.08.562-.08 1.423-1.681 2.706-3.469 3.874-5.141a.438.438 0 00-.088-.596c-.641-.507-1.379-1.085-1.871-1.815-.957-1.423-.922-3.522.088-4.999.975-1.423 2.829-2.277 4.717-2.17a.437.437 0 00.457-.436l.026-.035zm-1.572-5.409c.307 1.619.527 3.256.676 4.964-2.029.027-3.909.978-4.98 2.553-1.221 1.788-1.256 4.243-.088 5.977.483.712 1.116 1.272 1.73 1.761-1.027 1.468-2.134 2.998-3.346 4.457-1.327-.863-2.697-1.69-4.269-1.726-1.696-.035-3.444.961-4.454 2.544-.817 1.281-1.195 2.936-1.08 4.688-1.652.48-3.233.889-4.788 1.236-.096-1.067-.21-2.054-.5-3.024-.387-1.299-1.046-2.348-1.889-3.042-1.247-1.023-3.083-1.37-4.805-.907-1.37.373-2.67 1.218-3.786 2.455a56.539 56.539 0 01-4.084-2.945c.984-1.352 1.923-2.757 2.003-4.403.079-1.601-.747-3.3-2.153-4.429-1.115-.899-2.573-1.477-4.33-1.726l-.325-4.385c1.493-.365 2.776-1.094 3.716-2.126 1.089-1.192 1.686-2.767 1.633-4.306-.017-.622-.14-1.236-.281-1.859-.202-.925-.448-1.876-1.036-2.606a39.788 39.788 0 012.24-2.917c.404.391.878.604 1.309.773 1.045.41 2.415.837 3.777.516 1.256-.293 2.389-1.218 3.1-2.535.519-.951.826-2.09.94-3.487 1.45-.266 3.092-.435 4.884-.498l.035.098c.334.952.642 1.85 1.125 2.686.448.774 1.238 1.815 2.45 2.322 1.134.48 2.513.427 3.778-.133.94-.418 1.827-1.112 2.644-2.064 1.563.978 3.03 1.93 4.444 2.873-1.019 1.78-1.273 3.905-.685 5.755.185.578.422 1.05.729 1.441.378.481.887.881 1.581 1.228a7.565 7.565 0 004.085.791z" fill="#334A52"/><path d="M224.809 108.072c0-1.459-.8-2.944-2.091-3.771-1.362-.872-3.206-1.014-4.822-.374-1.09.436-2.003 1.183-2.574 2.108-.633 1.032-.826 2.251-.536 3.354.334 1.245.878 2.17 1.625 2.766.896.712 2.099 1.094 3.382 1.085.878 0 1.625-.187 2.231-.551.536-.321.966-.792 1.274-1.157.834-.996 1.3-1.885 1.458-2.802a4.17 4.17 0 00.053-.658zm-9.294.303c0-.641.184-1.299.536-1.877.474-.774 1.238-1.397 2.161-1.762 1.361-.542 2.916-.427 4.049.294 1.204.765 1.88 2.233 1.652 3.549-.132.756-.536 1.512-1.265 2.384-.281.338-.633.721-1.054.97-.475.284-1.081.427-1.801.435-1.089 0-2.1-.32-2.846-.907-.597-.471-1.037-1.245-1.318-2.304a3.026 3.026 0 01-.105-.791l-.009.009z" fill="#334A52"/><path d="M228.798 108.392c0-3.193-1.898-6.457-4.867-7.943-2.626-1.308-5.85-1.254-8.432.151-2.574 1.406-4.41 4.101-4.779 7.036-.342 2.749 1.168 6.067 3.602 7.89 2.547 1.913 6.061 2.295 8.959.97 1.485-.676 2.802-1.779 3.83-3.202a9.067 9.067 0 001.344-2.624 7.486 7.486 0 00.343-2.287v.009zm-17.27.063c0-.241.018-.481.044-.712.334-2.66 1.994-5.106 4.331-6.378 2.336-1.272 5.261-1.325 7.642-.133 3.329 1.663 5.165 5.782 4.084 9.18-.254.809-.667 1.601-1.221 2.375-.939 1.298-2.143 2.303-3.496 2.917-2.573 1.174-5.823.818-8.09-.881-1.985-1.494-3.303-4.073-3.303-6.368h.009z" fill="#334A52"/></g><path d="M327.909 184.186l19.284 9.047a15.573 15.573 0 0012.927.142l18.247-8.074c1.285-.567 1.234-2.423-.074-2.924l-24.657-9.391a1.532 1.532 0 00-1.047-.019l-24.521 8.29a1.557 1.557 0 00-1.066 1.408c-.032.6.262 1.219.902 1.521h.005z" fill="#FFDD98" stroke="#334A52" stroke-width="1.5" stroke-miterlimit="10"/><g style="mix-blend-mode:screen" opacity=".5"><path d="M331.396 183.658l-.076-.035a.747.747 0 01-.362-.697.746.746 0 01.515-.684l.001-.001 19.649-6.642.005-.001a.707.707 0 01.492.009h.001l19.756 7.525h.001c.634.243.655 1.146.037 1.419h-.001l-14.622 6.467a11.98 11.98 0 01-9.942-.109h-.001l-15.453-7.251z" fill="#FFDD98"/><path d="M331.396 183.658l-.076-.035a.747.747 0 01-.362-.697.746.746 0 01.515-.684l.001-.001 19.649-6.642h0l.005-.001a.707.707 0 01.492.009h.001l19.756 7.525h.001c.634.243.655 1.146.037 1.419h-.001l-14.622 6.467h0a11.98 11.98 0 01-9.942-.109h-.001l-15.453-7.251z" stroke="#334A52"/></g><path d="M349.768 143.739c-2.032 6.85-8.852 29.832-11.141 37.561-.482 1.63.149 3.387 1.56 4.308 4.2 2.749 13.029 5.82 25.53.78 1.57-.633 2.467-2.518 2.014-4.162l-10.675-38.416a3.807 3.807 0 00-3.162-2.768c-.047-.005-.094-.014-.141-.019-1.794-.203-3.466.968-3.985 2.716z" fill="#FFDD98" stroke="#334A52" stroke-width="1.5" stroke-miterlimit="10"/><path d="M366.139 176.51c-14.211 6.977-26.096 0-26.096 0l2.63-8.858c10.007 5.15 21.004 0 21.004 0l2.462 8.858zm-18.136-26.833c6.521 1.441 10.679 0 10.679 0l2.616 9.42c-7.717 1.942-16.089 0-16.089 0l2.794-9.42z" fill="#D7F4FF" stroke="#334A52" stroke-width="1.5" stroke-miterlimit="10"/><path d="M294.735 164.93l15.598 7.316a12.59 12.59 0 0010.455.115l14.758-6.53c1.039-.458.998-1.96-.06-2.365l-19.943-7.596a1.242 1.242 0 00-.846-.015l-19.834 6.706c-.54.183-.835.653-.861 1.138-.026.486.212.986.729 1.231h.004z" fill="#FFDD98" stroke="#334A52" stroke-width="1.5" stroke-miterlimit="10"/><g style="mix-blend-mode:screen" opacity=".5"><path d="M297.597 164.416l-.057-.027a.507.507 0 01-.242-.474.507.507 0 01.351-.468h.001l15.892-5.372.005-.002a.483.483 0 01.333.006l.001.001 15.978 6.086h.001a.528.528 0 01.025.971l-11.827 5.231a9.597 9.597 0 01-7.962-.088l-12.499-5.864z" fill="#FFDD98"/><path d="M297.597 164.416l-.057-.027a.507.507 0 01-.242-.474.507.507 0 01.351-.468h.001l15.892-5.372h0l.005-.002a.483.483 0 01.333.006l.001.001 15.978 6.086h.001a.528.528 0 01.025.971h0l-11.827 5.231h0a9.597 9.597 0 01-7.962-.088l-12.499-5.864z" stroke="#334A52"/></g><path d="M312.416 132.215c-1.643 5.541-7.16 24.129-9.011 30.38a3.105 3.105 0 001.262 3.484c3.396 2.224 10.538 4.708 20.649.631 1.269-.512 1.995-2.037 1.628-3.366l-8.633-31.071a3.08 3.08 0 00-2.558-2.239c-.038-.004-.076-.012-.114-.016-1.451-.164-2.803.784-3.223 2.197z" fill="#FFDD98" stroke="#334A52" stroke-width="1.5" stroke-miterlimit="10"/><path d="M325.657 158.721c-11.494 5.643-21.106 0-21.106 0l2.127-7.164c8.094 4.164 16.988 0 16.988 0l1.991 7.164zm-14.669-21.703c5.275 1.165 8.638 0 8.638 0l2.116 7.619c-6.242 1.57-13.013 0-13.013 0l2.259-7.619z" fill="#D7F4FF" stroke="#334A52" stroke-width="1.5" stroke-miterlimit="10"/><defs><clipPath id="clip0_703_1030"><path fill="#fff" transform="matrix(-1 0 0 1 162 0)" d="M0 0h162v196H0z"/></clipPath><clipPath id="clip1_703_1030"><path fill="#fff" transform="matrix(0 1 1 0 172 87)" d="M0 0h64v70H0z"/></clipPath></defs></svg>