<svg width="140" height="145" viewBox="0 0 140 145" fill="none" xmlns="http://www.w3.org/2000/svg">
<path d="M70 145C31.3972 145 0 112.472 0 72.5C0 32.5281 31.3972 0 70 0C108.603 0 140 32.5281 140 72.5C140 112.472 108.603 145 70 145ZM70 2.47275C32.8019 2.47275 2.54924 33.8792 2.54924 72.4745C2.54924 111.07 32.8019 142.476 70 142.476C107.198 142.476 137.451 111.07 137.451 72.4745C137.451 33.8792 107.198 2.47275 70 2.47275ZM70 127.844C40.5277 127.844 16.518 103.014 16.518 72.4745C16.518 41.9348 40.5017 17.1053 70 17.1053C99.4983 17.1053 123.482 41.9348 123.482 72.4745C123.482 103.014 99.4983 127.844 70 127.844ZM19.0673 72.4745C19.0673 101.638 41.9064 125.345 70 125.345C98.0937 125.345 120.933 101.638 120.933 72.4745C120.933 43.3114 98.0937 19.6036 70 19.6036C41.9064 19.6036 19.0673 43.3114 19.0673 72.4745Z" fill="#334A52"/>
<path d="M53.8971 59.9065L45.7031 67.8091L67.996 93.5053L92.6559 56.2866L83.5255 48.7664L66.3051 73.9272L53.8971 59.9065Z" fill="#FDB932"/>
<path d="M67.9969 94.7545C67.6328 94.7545 67.2686 94.6015 67.0345 94.3211L44.7416 68.6249C44.2994 68.1405 44.3514 67.4013 44.8197 66.9424L52.9876 59.0398C53.2478 58.8104 53.5859 58.6574 53.9241 58.6829C54.2623 58.6829 54.6004 58.8614 54.8345 59.1163L66.1761 71.9134L82.46 48.1036C82.6681 47.7977 82.9802 47.6193 83.3444 47.5683C83.7086 47.5173 84.0727 47.6193 84.3329 47.8487L93.4633 55.3689C93.9575 55.7768 94.0616 56.4651 93.7234 57.0004L69.0634 94.1936C68.8553 94.525 68.4912 94.729 68.075 94.7545H67.9969ZM47.447 67.9111L67.8669 91.4405L90.9661 56.5671L83.7866 50.6529L67.3726 74.6411C67.1645 74.9725 66.8004 75.1764 66.3841 75.2019C65.994 75.2019 65.6038 75.0744 65.3436 74.7685L53.8201 61.742L47.447 67.9111Z" fill="#334A52"/>
<path d="M26.404 76.3999C26.1699 76.3999 25.9878 76.2214 25.9878 76.0175C25.3635 66.5853 27.1323 57.0767 31.1123 48.5623C31.2163 48.3584 31.4504 48.2564 31.6846 48.3584C31.8927 48.4603 31.9967 48.6898 31.8927 48.9192C27.9647 57.3062 26.2219 66.6618 26.8202 75.9665C26.8202 76.1959 26.6641 76.3999 26.43 76.3999H26.404Z" fill="#334A52"/>
<path d="M35.0904 43.2093C35.0904 43.2093 34.9083 43.1838 34.8303 43.1073C34.6482 42.9544 34.6222 42.6995 34.7783 42.521C36.5731 40.3542 38.4981 38.2638 40.5271 36.3264C40.6831 36.1734 40.9693 36.1734 41.1253 36.3264C41.2814 36.4793 41.2814 36.7598 41.1253 36.9127C39.1484 38.8501 37.2235 40.915 35.4546 43.0563C35.3766 43.1583 35.2465 43.2093 35.1164 43.2093H35.0904Z" fill="#334A52"/>
<path d="M105.689 99.5214C105.689 99.5214 105.507 99.4959 105.429 99.4449C105.247 99.3174 105.221 99.037 105.351 98.8586C110.189 92.7149 113.103 84.9908 113.545 77.0882C113.545 76.8588 113.753 76.6803 113.987 76.7058C114.221 76.7058 114.403 76.9097 114.377 77.1392C113.935 85.2202 110.944 93.1228 106.001 99.3939C105.923 99.4959 105.793 99.5469 105.663 99.5469L105.689 99.5214Z" fill="#334A52"/>
</svg>
