<svg width="129" height="108" viewBox="0 0 129 108" fill="none" xmlns="http://www.w3.org/2000/svg">
<g opacity="0.41">
<path d="M128.118 68.9289C128.239 66.8183 128.186 64.6996 127.949 62.5972C126.844 52.7302 121.831 43.4274 114.451 36.8643C111.818 34.5224 108.823 32.424 107.111 29.3352C104.225 24.1278 104.446 18.1491 100.864 13.0066C97.2786 7.86007 92.0569 3.84996 86.168 1.78809C68.6057 -4.35695 44.0169 5.64802 46.2318 27.0136C46.2398 27.0907 46.2478 27.2003 46.2559 27.3423C46.5493 31.7786 43.1004 35.5127 38.7108 35.6183C22.5072 36.0079 8.55867 48.6227 5.57199 64.6022C3.65457 74.8791 6.794 86.1423 14.2386 93.4116C19.7939 98.8383 27.2505 101.817 34.7112 103.867C49.6686 107.975 65.41 108.835 80.8297 107.264C95.2647 105.795 110.495 101.602 119.829 90.3878C124.81 84.4052 127.664 76.734 128.114 68.9289H128.118Z" fill="white"/>
</g>
<path opacity="0.31" d="M124.539 16.8588C125.044 14.7081 123.726 12.5512 121.596 12.0412C119.466 11.5312 117.33 12.8611 116.825 15.0117C116.32 17.1623 117.637 19.3192 119.767 19.8293C121.898 20.3393 124.034 19.0094 124.539 16.8588Z" fill="white"/>
<path opacity="0.31" d="M36.888 14.5756C38.6824 12.7637 38.6824 9.82611 36.888 8.01423C35.0935 6.20236 32.1842 6.20236 30.3897 8.01423C28.5953 9.82611 28.5953 12.7637 30.3897 14.5756C32.1842 16.3875 35.0935 16.3875 36.888 14.5756Z" fill="white"/>
<path opacity="0.31" d="M6.11479 106.415C9.39158 106.415 12.0479 103.733 12.0479 100.424C12.0479 97.1158 9.39158 94.4336 6.11479 94.4336C2.838 94.4336 0.181641 97.1158 0.181641 100.424C0.181641 103.733 2.838 106.415 6.11479 106.415Z" fill="white"/>
<path d="M42.4102 95.3552C41.0095 95.3552 39.7933 94.2858 39.6361 92.8439L34.573 47.4747C34.5457 47.2125 34.7302 46.9779 34.9898 46.9504L109.741 38.4436C110 38.416 110.233 38.6023 110.26 38.8645L115.323 84.2544C115.405 84.9995 115.2 85.7308 114.736 86.3172C114.271 86.9037 113.608 87.2693 112.87 87.359L42.7245 95.3414C42.6221 95.3552 42.5127 95.3621 42.4102 95.3621V95.3552ZM35.2699 47.6127L40.3057 92.7749C40.4355 93.9409 41.481 94.7895 42.6425 94.6584L112.781 86.676C113.335 86.6139 113.834 86.331 114.189 85.8895C114.537 85.4479 114.695 84.896 114.633 84.3303L109.59 39.1542L35.2631 47.6127H35.2699Z" fill="#243762"/>
<path opacity="0.29" d="M109.543 87.0147L46.1205 94.9971C44.7745 95.1488 65.7717 67.9522 65.6214 66.593L34.9147 47.4408C34.9079 47.3718 34.9557 47.3029 35.0309 47.296L109.782 38.7892C109.85 38.7823 109.919 38.8306 109.925 38.9065L84.357 64.4612C84.5073 65.8134 110.896 86.8698 109.556 87.0216L109.543 87.0147Z" fill="#243762"/>
<path d="M34.9316 47.6485L34.8769 47.138L34.7812 47.0414L34.8564 46.9655H34.8632L65.6929 16.1743C67.6539 14.2081 70.6672 13.8631 73.0177 15.3326L109.758 38.376C109.908 38.4726 109.983 38.652 109.949 38.8244C109.908 38.9969 109.765 39.1349 109.587 39.1556L34.9316 47.6485ZM69.8814 15.1188C68.5285 15.1188 67.1893 15.6431 66.1712 16.6642L35.9633 46.8344L108.753 38.5554L72.6555 15.9191C71.7946 15.3809 70.8312 15.1188 69.8814 15.1188Z" fill="#243762"/>
<path opacity="0.29" d="M35.0244 47.2964L65.936 16.4293C67.7809 14.5803 70.637 14.2561 72.844 15.6359L109.584 38.6724C109.646 38.7138 109.625 38.8104 109.55 38.8172L34.8945 47.3102" fill="#243762"/>
<path d="M45.3906 94.9005L69.0732 61.6256C70.2826 59.9215 72.1616 58.8108 74.2251 58.5762C76.2886 58.3416 78.3658 59.0039 79.9168 60.3907L110.343 87.5115L45.3906 94.9005ZM75.045 59.2247C74.7991 59.2247 74.5462 59.2385 74.3003 59.2661C72.4281 59.48 70.7267 60.4873 69.6266 62.0327L46.8392 94.045L108.738 87.0009L79.4659 60.915C78.2428 59.825 76.6644 59.2247 75.045 59.2247Z" fill="#243762"/>
<path d="M38.7949 24.929L87.6496 19.3682C90.8542 19.0025 93.7034 20.9826 94.0177 23.7906L97.1608 51.9325L83.5772 64.5442L65.6274 66.5864L47.8962 55.389L44.8556 28.1233L38.8086 24.929H38.7949Z" fill="#F1F8FF"/>
<path d="M65.5361 66.9446L47.559 55.5954L44.5184 28.3504L39.8652 24.4662L87.6061 19.0365C89.2392 18.8502 90.8312 19.2366 92.1021 20.1197C93.3867 21.0097 94.1861 22.3067 94.3501 23.7694L97.5069 52.0837L83.7114 64.8887L65.5293 66.9584L65.5361 66.9446ZM48.2013 55.1883L65.6933 66.234L83.4176 64.2194L96.7963 51.8077L93.6737 23.8384C93.5302 22.5827 92.8401 21.4581 91.7195 20.6854C90.5852 19.8989 89.1503 19.5539 87.6881 19.7195L39.9404 25.1492L45.1607 27.902L48.2013 55.1815V55.1883Z" fill="#454545"/>
<path opacity="0.29" d="M69.3517 59.012L46.1133 94.4739L109.535 87.2573L79.6897 57.8391C76.574 55.0657 71.7705 55.6107 69.3449 59.0189L69.3517 59.012Z" fill="#243762"/>
<path d="M45.3906 94.9005L69.0732 61.6256C70.2826 59.9215 72.1616 58.8108 74.2251 58.5762C76.2886 58.3416 78.3658 59.0039 79.9168 60.3907L110.343 87.5115L45.3906 94.9005ZM75.045 59.2247C74.7991 59.2247 74.5462 59.2385 74.3003 59.2661C72.4281 59.48 70.7267 60.4873 69.6266 62.0327L46.8392 94.045L108.738 87.0009L79.4659 60.915C78.2428 59.825 76.6644 59.2247 75.045 59.2247Z" fill="#243762"/>
<path opacity="0.35" d="M71.6006 69.0559L54.5391 93.0307L101.118 87.7321L79.1987 68.1935C76.9097 66.1583 73.384 66.5584 71.6006 69.0559Z" fill="#ECF1F7"/>
<path d="M35.2383 47.0683L34.877 47.6538L65.4434 66.887L65.8047 66.3015L35.2383 47.0683Z" fill="#243762"/>
<path d="M109.655 38.5986L84.0996 64.2231L84.5811 64.7127L110.137 39.0882L109.655 38.5986Z" fill="#243762"/>
<path d="M46.1982 40.6864L37.6709 41.6592L36.2975 29.3786C36.0447 27.1088 37.664 25.0597 39.9052 24.8045L40.2947 24.7631C42.5427 24.5078 44.572 26.1429 44.8248 28.4059L46.1982 40.6864Z" fill="#ECF1F7"/>
<path d="M37.3708 42.0382L35.9633 29.4127C35.8335 28.226 36.1614 27.0532 36.9062 26.1149C37.6442 25.1766 38.7032 24.5901 39.8785 24.459L40.268 24.4176C41.45 24.2866 42.6048 24.6177 43.5272 25.3697C44.4565 26.1149 45.0373 27.1842 45.1671 28.3709L46.5746 40.9964L37.3708 42.0451V42.0382ZM40.7667 25.08C40.6233 25.08 40.4798 25.0869 40.3363 25.1076L39.9468 25.149C38.9492 25.2593 38.061 25.763 37.4323 26.5495C36.8105 27.3429 36.5236 28.3295 36.6397 29.3368L37.9721 41.2793L45.8162 40.3893L44.4838 28.4468C44.3745 27.4395 43.8757 26.5426 43.0967 25.9079C42.4271 25.3697 41.6072 25.08 40.7667 25.08Z" fill="#243762"/>
<path d="M51.9804 34.2977C51.8096 34.2977 51.6593 34.1666 51.6388 33.9941C51.6183 33.8079 51.7549 33.6354 51.9394 33.6147L87.3402 29.5856C87.5315 29.5649 87.6955 29.7028 87.716 29.8891C87.7365 30.0754 87.5999 30.2479 87.4154 30.2686L52.0146 34.2977C52.0146 34.2977 51.9872 34.2977 51.9736 34.2977H51.9804Z" fill="#243762"/>
<path d="M53.3456 46.4471C53.1748 46.4471 53.0245 46.316 53.004 46.1436C52.9835 45.9573 53.1201 45.7848 53.3046 45.7641L88.6986 41.735C88.8831 41.7143 89.0539 41.8523 89.0744 42.0385C89.0949 42.2248 88.9583 42.3973 88.7738 42.418L53.3798 46.4471C53.3798 46.4471 53.3525 46.4471 53.3388 46.4471H53.3456Z" fill="#243762"/>
<path d="M52.6484 40.3001C52.4775 40.3001 52.3272 40.1691 52.3067 39.9966C52.2862 39.8103 52.4229 39.6378 52.6074 39.6171L67.906 37.8785C68.0905 37.8578 68.2613 37.9958 68.2818 38.1821C68.3023 38.3684 68.1657 38.5408 67.9812 38.5615L52.6825 40.3001C52.6825 40.3001 52.6552 40.3001 52.6415 40.3001H52.6484Z" fill="#243762"/>
<path d="M71.9589 38.1057C71.7881 38.1057 71.6378 37.9746 71.6173 37.8021C71.5968 37.6158 71.7334 37.4433 71.9179 37.4226L88.016 35.5943C88.2073 35.5736 88.3713 35.7116 88.3918 35.8979C88.4123 36.0842 88.2757 36.2567 88.0912 36.2774L71.9931 38.1057C71.9931 38.1057 71.9657 38.1057 71.9521 38.1057H71.9589Z" fill="#243762"/>
<path d="M54.1073 53.3329C53.9365 53.3329 53.7862 53.2018 53.7657 53.0293C53.7452 52.843 53.8819 52.6705 54.0663 52.6498L69.365 50.9112C69.5495 50.8905 69.7203 51.0285 69.7408 51.2148C69.7613 51.4011 69.6247 51.5736 69.4402 51.5943L54.1415 53.3329C54.1415 53.3329 54.1142 53.3329 54.1005 53.3329H54.1073Z" fill="#243762"/>
</svg>
